# Blender v2.81 (sub 16) OBJ File: ''
# www.blender.org
mtllib BridgePreiew.mtl
o Plane
v -2.000000 -2.000000 -2.000000
v 2.000000 0.000000 -2.000000
v 2.000000 0.000000 -2.000000
v -2.000000 0.000000 -2.000000
v 2.000000 0.000000 2.000000
v -2.000000 0.000000 2.000000
v 2.000000 -2.000000 2.000000
v 0.911531 -0.000000 1.456664
v -0.261119 0.000000 -1.376592
v -2.000000 -2.000000 2.000000
v 2.000000 -2.000000 -2.000000
v 2.000000 -2.000000 -2.000000
v 0.911531 -2.000000 1.456664
v -0.261119 -2.000000 -1.376592
v -1.200000 -2.152369 -1.200000
v 1.200000 -2.152369 -1.200000
v 1.200000 0.247631 -1.200000
v -1.200000 0.247631 -1.200000
v -1.200000 -2.152369 1.200000
v -1.200000 0.247630 1.200000
v 1.200000 0.247630 1.200000
v 1.200000 -2.152369 1.200000
v 1.200000 0.646548 -0.603713
v -1.200000 0.646548 -0.603713
v -1.200000 0.716424 0.000000
v 1.200000 0.716424 0.000000
v 1.200000 0.535464 -1.006673
v -1.200000 0.535464 -1.006673
v 1.200000 0.398886 -1.367975
v -1.200000 0.398886 -1.367975
v 1.120673 -0.013225 -1.929138
v -1.120673 -0.013225 -1.929138
v 1.200000 0.247630 1.200000
v 1.200000 0.438308 0.947592
v 1.200000 0.535464 1.006673
v 1.200000 0.398886 1.367975
v 1.200000 0.568544 0.592079
v 1.200000 0.646548 0.603713
v 1.200000 0.644671 0.000000
v -1.200000 0.247631 -1.200000
v -1.200000 -2.152369 -1.200000
v -1.200000 0.438308 -0.947592
v -1.200000 0.568544 -0.592079
v -1.200000 0.644671 0.000000
v 1.200000 0.247631 -1.200000
v 1.200000 0.438308 -0.947592
v 1.200000 0.568544 -0.592079
v 1.200000 -2.152369 -1.200000
v 1.200000 0.646548 0.603713
v -1.200000 0.646548 0.603713
v 1.200000 0.535464 1.006673
v -1.200000 0.535464 1.006673
v -1.200000 0.398886 1.367975
v 1.200000 0.398886 1.367975
v -1.120673 -0.013226 1.929138
v 1.120673 -0.013226 1.929138
v 1.200000 0.247631 -1.200000
v 1.200000 0.398886 -1.367975
v 1.200000 0.535464 -1.006673
v 1.200000 0.438308 -0.947592
v 1.200000 0.646548 -0.603713
v 1.200000 0.568544 -0.592079
v -1.200000 0.247630 1.200000
v -1.200000 0.438308 0.947592
v -1.200000 0.568544 0.592079
v 1.200000 0.438308 0.947592
v 1.200000 0.247630 1.200000
v 1.200000 0.568544 0.592079
v 1.200000 -2.152369 1.200000
v -1.200000 -2.152369 1.200000
v -1.200000 -2.152369 -1.200000
v -1.120673 -0.013225 -1.929138
v -1.200000 0.646548 -0.603713
v -1.200000 0.535464 -1.006673
v -1.200000 0.398886 -1.367975
v -1.200000 0.535464 -1.006673
v -1.200000 0.398886 -1.367975
v -1.200000 0.438308 -0.947592
v -1.120673 -0.013225 -1.929138
v -1.200000 0.568544 -0.592079
v -1.200000 0.247631 -1.200000
v -1.200000 0.247631 -1.200000
v -1.200000 0.247631 -1.200000
v 1.200000 -2.152369 -1.200000
v 1.120673 -0.013225 -1.929138
v 1.200000 0.535464 -1.006673
v 1.200000 0.398886 -1.367975
v 1.120673 -0.013225 -1.929138
v 1.200000 0.247631 -1.200000
v 1.200000 0.247631 -1.200000
v 1.200000 0.247631 -1.200000
v -1.200000 -2.152369 1.200000
v -1.200000 0.535464 1.006673
v -1.200000 0.398886 1.367975
v -1.120673 -0.013226 1.929138
v -1.200000 0.247630 1.200000
v -1.200000 0.247630 1.200000
v -1.200000 0.247630 1.200000
v 1.200000 -2.152369 1.200000
v 1.200000 0.535464 1.006673
v 1.200000 0.398886 1.367975
v 1.120673 -0.013226 1.929138
v 1.200000 0.247630 1.200000
v 1.200000 0.247630 1.200000
v 1.200000 0.247630 1.200000
v -1.200000 -2.152369 1.200000
v -1.120673 -0.013226 1.929138
v -1.200000 0.646548 0.603713
v -1.200000 0.535464 1.006673
v -1.200000 0.398886 1.367975
v -1.200000 0.535464 1.006673
v -1.200000 0.398886 1.367975
v -1.200000 0.438308 0.947592
v -1.120673 -0.013226 1.929138
v -1.200000 0.568544 0.592079
v -1.200000 0.247630 1.200000
v -1.200000 0.247630 1.200000
v -1.200000 0.247630 1.200000
v 1.200000 -2.152369 1.200000
v 1.120673 -0.013226 1.929138
v 1.200000 0.535464 1.006673
v 1.200000 0.398886 1.367975
v 1.120673 -0.013226 1.929138
v 1.200000 0.247630 1.200000
v 1.200000 0.247630 1.200000
v 1.200000 0.247630 1.200000
v -1.200000 -2.152369 -1.200000
v -1.200000 0.535464 -1.006673
v -1.200000 0.398886 -1.367975
v -1.120673 -0.013225 -1.929138
v -1.200000 0.247631 -1.200000
v -1.200000 0.247631 -1.200000
v -1.200000 0.247631 -1.200000
v 1.200000 0.535464 -1.006673
v 1.200000 0.398886 -1.367975
v 1.120673 -0.013225 -1.929138
v 1.200000 0.247631 -1.200000
v 1.200000 0.247631 -1.200000
vt 1.000000 0.000000
vt 1.000000 1.000000
vt 0.000000 0.000000
vt 1.000000 0.000000
vt 0.000000 0.000000
vt 0.000000 0.000000
vt 0.000000 0.000000
vt 0.000000 1.000000
vt 0.000000 1.000000
vt 0.000000 0.000000
vt 0.000000 0.000000
vt 0.000000 0.000000
vt 0.000000 0.000000
vt 0.000000 0.000000
vt 0.000000 0.000000
vt 1.000000 1.000000
vt 0.999264 0.764603
vt 0.900093 0.764664
vt 0.900032 0.601086
vt 0.999202 0.601026
vt 0.999420 0.603474
vt 0.999476 0.763206
vt 0.900201 0.763262
vt 0.900144 0.603529
vt 0.567324 0.856494
vt 0.353079 0.856494
vt 0.353079 0.804439
vt 0.567324 0.804439
vt 0.567324 0.890734
vt 0.353079 0.890734
vt 0.567324 0.921146
vt 0.353079 0.921146
vt 0.560243 0.966815
vt 0.360161 0.966815
vt 0.959656 0.637227
vt 0.952676 0.646282
vt 0.949119 0.644162
vt 0.954119 0.631202
vt 0.947908 0.659034
vt 0.945053 0.658617
vt 0.942495 0.680273
vt 0.945122 0.680273
vt 0.900997 0.601136
vt 0.955354 0.620624
vt 0.901601 0.766267
vt 0.954684 0.635394
vt 0.960221 0.641419
vt 0.953241 0.650474
vt 0.949685 0.648354
vt 0.948474 0.663226
vt 0.945618 0.662809
vt 0.945687 0.684465
vt 0.943061 0.684465
vt 0.573011 0.907110
vt 0.354636 0.906676
vt 0.354678 0.885705
vt 0.573053 0.886139
vt 0.354740 0.854519
vt 0.573115 0.854953
vt 0.354846 0.800906
vt 0.573221 0.801340
vt 0.944263 0.618954
vt 0.999612 0.599539
vt 0.998062 0.765671
vt 0.958610 0.703063
vt 0.937478 0.702304
vt 0.937478 0.680855
vt 0.958610 0.680096
vt 0.354197 0.856468
vt 0.354197 0.802044
vt 0.573588 0.802044
vt 0.573588 0.856468
vt 0.354197 0.893312
vt 0.573588 0.893312
vt 0.573588 0.926642
vt 0.354197 0.926642
vt 0.566337 0.980012
vt 0.361449 0.980012
vt 0.959656 0.723320
vt 0.954119 0.729345
vt 0.949119 0.716385
vt 0.952676 0.714265
vt 0.945053 0.701930
vt 0.947908 0.701512
vt 0.900343 0.764607
vt 0.954584 0.744797
vt 0.919039 0.764075
vt 0.954684 0.733537
vt 0.949685 0.720577
vt 0.953241 0.718457
vt 0.960221 0.727512
vt 0.945618 0.706122
vt 0.948474 0.705704
vt 0.356177 0.916273
vt 0.356138 0.890953
vt 0.572859 0.890621
vt 0.572898 0.915941
vt 0.572807 0.856592
vt 0.356086 0.856925
vt 0.572722 0.801585
vt 0.356002 0.801917
vt 0.999399 0.764815
vt 0.944050 0.745708
vt 0.997861 0.598585
vt 0.937793 0.703444
vt 0.937793 0.680477
vt 0.958926 0.681236
vt 0.958926 0.702685
vt 0.923500 0.600818
vt 0.976398 0.600689
vt 0.900351 0.601221
vt 0.984710 0.763973
vn 0.0000 1.0000 0.0000
vn 1.0000 0.0000 0.0000
vn 0.2658 0.0000 0.9640
vn 0.4466 0.0000 -0.8947
vn -0.3375 0.0000 0.9413
vn -0.1834 0.0000 -0.9830
vn -1.0000 0.0000 0.0000
vn 0.0000 0.0000 1.0000
vn 0.0000 0.0000 -1.0000
vn 0.0000 0.9816 -0.1909
vn -0.6902 0.7103 -0.1381
vn -0.6821 0.7312 0.0000
vn 0.6821 0.7312 0.0000
vn 0.0000 0.9507 -0.3100
vn -0.6968 0.6819 -0.2223
vn 0.5144 0.7274 -0.4541
vn -0.6972 0.6081 -0.3796
vn 0.5491 0.2405 -0.8004
vn -0.5491 0.2405 -0.8004
vn 0.7370 -0.6759 0.0000
vn -0.9355 -0.3105 0.1685
vn -0.2047 -0.3090 -0.9287
vn -0.7418 -0.5888 0.3209
vn -0.7331 -0.6607 0.1614
vn -0.7370 -0.6759 0.0000
vn 0.8317 -0.4880 0.2648
vn 0.0000 -0.8780 0.4786
vn 0.0000 -0.9714 0.2372
vn 0.2047 -0.3090 -0.9287
vn 0.0000 0.9816 0.1909
vn -0.6902 0.7103 0.1381
vn 0.0000 0.9507 0.3100
vn -0.6968 0.6819 0.2223
vn -0.6972 0.6081 0.3796
vn 0.5144 0.7274 0.4541
vn -0.5491 0.2405 0.8004
vn 0.5491 0.2405 0.8004
vn -0.9355 -0.3105 -0.1685
vn -0.7418 -0.5888 -0.3209
vn -0.7331 -0.6607 -0.1614
vn 0.0000 -0.8780 -0.4786
vn 0.8317 -0.4880 -0.2648
vn 0.0000 -0.9714 -0.2372
vn 0.2047 -0.3090 0.9287
vn -0.2047 -0.3090 0.9287
usemtl Material.001
s off
f 7/1/1 11/2/1 13/3/1
f 5/4/1 8/5/1 6/6/1
f 6/6/2 10/7/2 1/8/2 4/9/2
f 9/10/3 14/11/3 12/12/3 2/13/3
f 5/4/4 7/1/4 13/3/4 8/5/4
f 2/13/1 4/14/1 9/10/1
f 4/14/5 1/15/5 14/11/5 9/10/5
f 12/12/1 10/7/1 13/3/1
f 12/12/1 14/11/1 10/7/1
f 10/7/1 14/11/1 1/15/1
f 8/5/6 13/3/6 10/7/6 6/6/6
f 3/16/7 11/2/7 7/1/7 5/4/7
s 1
f 15/17/8 16/18/8 17/19/8 18/20/8
f 19/21/9 20/22/9 21/23/9 22/24/9
f 23/25/10 24/26/11 25/27/12 26/28/13
f 27/29/14 28/30/15 24/26/11 23/25/10
f 27/29/14 29/31/16 30/32/17 28/30/15
f 29/31/16 31/33/18 32/34/19 30/32/17
f 33/35/2 34/36/2 35/37/2 36/38/2
f 34/36/2 37/39/2 38/40/2 35/37/2
f 26/41/13 38/40/2 37/39/2 39/42/20
f 40/43/21 32/44/19 41/45/22
f 30/46/17 40/47/21 42/48/23 28/49/15
f 42/48/23 43/50/24 24/51/11 28/49/15
f 43/50/24 44/52/25 25/53/12 24/51/11
f 40/54/21 45/55/26 46/56/27 42/57/23
f 47/58/28 43/59/24 42/57/23 46/56/27
f 39/60/20 44/61/25 43/59/24 47/58/28
f 31/62/18 45/63/26 48/64/29
f 41/65/22 32/66/19 31/67/18 48/68/29
f 49/69/30 26/70/13 25/71/12 50/72/31
f 51/73/32 49/69/30 50/72/31 52/74/33
f 51/73/32 52/74/33 53/75/34 54/76/35
f 54/76/35 53/75/34 55/77/36 56/78/37
f 57/79/2 58/80/2 59/81/2 60/82/2
f 60/82/2 59/81/2 61/83/2 62/84/2
f 26/41/13 39/42/20 62/84/2 61/83/2
f 63/85/38 55/86/36 53/87/34
f 53/88/34 52/89/33 64/90/39 63/91/38
f 64/90/39 52/89/33 50/92/31 65/93/40
f 65/93/40 50/92/31 25/53/12 44/52/25
f 63/94/38 64/95/39 66/96/41 67/97/42
f 68/98/43 66/96/41 64/95/39 65/99/40
f 39/100/20 68/98/43 65/99/40 44/101/25
f 67/102/42 56/103/37 69/104/44
f 70/105/45 69/106/44 56/107/37 55/108/36
f 40/43/21 30/109/17 32/44/19
f 31/62/18 29/110/16 45/63/26
f 63/85/38 70/111/45 55/86/36
f 67/102/42 54/112/35 56/103/37
l 3 2
l 138 137
l 137 46
l 17 138
l 137 135
l 47 23
l 135 136
l 136 31
l 46 134
l 135 29
l 134 27
l 16 31
l 133 131
l 131 42
l 132 133
l 131 129
l 129 130
l 130 32
l 42 128
l 129 30
l 128 28
l 127 32
l 126 124
l 124 34
l 125 126
l 124 122
l 122 123
l 123 120
l 34 121
l 122 36
l 121 35
l 119 120
l 118 116
l 113 115
l 116 113
l 117 118
l 116 112
l 115 44
l 115 108
l 112 114
l 114 107
l 113 111
l 112 110
l 111 109
l 110 109
l 108 109
l 25 108
l 106 107
l 105 103
l 103 66
l 104 105
l 103 101
l 68 49
l 101 102
l 102 56
l 66 100
l 101 54
l 100 51
l 99 56
l 98 96
l 96 64
l 97 98
l 96 94
l 94 95
l 95 55
l 64 93
l 94 53
l 93 52
l 92 55
l 91 89
l 89 60
l 90 91
l 89 87
l 87 88
l 88 85
l 60 86
l 87 58
l 86 59
l 84 85
l 83 81
l 78 80
l 81 78
l 82 83
l 81 77
l 80 44
l 80 73
l 77 79
l 79 72
l 78 76
l 77 75
l 76 74
l 75 74
l 73 74
l 25 73
l 71 72
