# Blender v2.81 (sub 16) OBJ File: ''
# www.blender.org
mtllib DirtPreiew.mtl
o Plane.002
v -1.000000 -0.000000 1.000000
v 1.000000 -0.000000 1.000000
v 1.000000 0.000000 -1.000000
v -1.000000 0.000000 -1.000000
v 1.000000 -0.027194 1.000000
v 0.455766 -0.027194 0.728332
v 1.000000 -0.027194 -1.000000
v 0.455766 -0.000000 0.728332
v -1.000000 -0.027194 -1.000000
v -1.000000 -0.027194 1.000000
v -0.130559 0.000000 -0.688296
v 1.000000 0.000000 -1.000000
v 1.000000 -0.027194 -1.000000
v -0.130559 -0.027194 -0.688296
vt 1.000000 0.000000
vt 1.000000 1.000000
vt 0.000000 0.000000
vt 1.000000 0.000000
vt 0.000000 0.000000
vt 0.000000 0.000000
vt 0.000000 0.000000
vt 0.000000 1.000000
vt 0.000000 1.000000
vt 0.000000 0.000000
vt 0.000000 0.000000
vt 0.000000 0.000000
vt 0.000000 0.000000
vt 0.000000 0.000000
vt 0.000000 0.000000
vt 1.000000 1.000000
vn -0.0000 1.0000 0.0000
vn 1.0000 0.0000 0.0000
vn 0.2658 0.0000 0.9640
vn 0.4466 0.0000 -0.8947
vn -0.3375 0.0000 0.9413
vn -0.1834 0.0000 -0.9830
vn -1.0000 0.0000 0.0000
usemtl None.001
s 1
f 5/1/1 7/2/1 6/3/1
f 2/4/1 8/5/1 1/6/1
f 1/6/2 10/7/2 9/8/2 4/9/2
f 11/10/3 14/11/3 13/12/3 12/13/3
f 2/4/4 5/1/4 6/3/4 8/5/4
f 12/13/1 4/14/1 11/10/1
f 4/14/5 9/15/5 14/11/5 11/10/5
f 13/12/1 10/7/1 6/3/1
f 13/12/1 14/11/1 10/7/1
f 10/7/1 14/11/1 9/15/1
f 8/5/6 6/3/6 10/7/6 1/6/6
f 3/16/7 7/2/7 5/1/7 2/4/7
l 3 12
