# Blender v2.81 (sub 16) OBJ File: ''
# www.blender.org
mtllib firtree.mtl
o Leaves0_LOD0_Leaves.000
v 0.101439 6.297233 0.000001
v 0.369592 5.371639 0.369594
v 0.542773 5.195447 0.000001
v -0.000001 6.297233 0.101441
v -0.000001 5.195447 0.542775
v -0.369594 5.371639 0.369594
v -0.101441 6.297233 0.000001
v -0.542775 5.195447 0.000001
v -0.369594 5.371639 -0.369592
v -0.000001 6.297233 -0.101439
v -0.000001 5.195447 -0.542773
v 0.369592 5.371639 -0.369592
v -1.060660 1.297233 1.060660
v -1.060660 1.297233 -1.060660
v 1.060660 1.297233 -1.060660
v 0.000000 1.954374 -1.315604
v 1.261451 1.204973 -1.261451
v 0.000000 1.028780 -1.852532
v 0.000000 2.787707 -1.073551
v 1.105085 2.038306 -1.105086
v 0.000000 1.862114 -1.622899
v -0.000001 3.621040 -0.831497
v 0.961736 2.871639 -0.961736
v 0.000000 2.695447 -1.412379
v -0.000001 4.454374 -0.589444
v 0.782218 3.704973 -0.782218
v -0.000001 3.528780 -1.148745
v -0.000001 5.287707 -0.347391
v 0.629565 4.538306 -0.629565
v -0.000001 4.362114 -0.924562
v 1.315604 1.954374 0.000000
v 1.852532 1.028780 0.000000
v 1.073551 2.787707 0.000000
v 1.622899 1.862114 0.000000
v 0.831497 3.621040 0.000001
v 1.412379 2.695447 0.000000
v 0.589444 4.454374 0.000001
v 1.148745 3.528780 0.000001
v 0.347391 5.287707 0.000001
v 0.924562 4.362114 0.000001
v -1.261450 1.204973 -1.261451
v -1.105085 2.038306 -1.105086
v -0.961737 2.871639 -0.961736
v -0.782220 3.704973 -0.782218
v -0.629567 4.538306 -0.629565
v -1.315604 1.954374 0.000000
v -1.852532 1.028780 0.000000
v -1.073552 2.787707 0.000000
v -1.622899 1.862114 0.000000
v -0.831499 3.621040 0.000001
v -1.412380 2.695447 0.000000
v -0.589446 4.454374 0.000001
v -1.148747 3.528780 0.000001
v -0.347393 5.287707 0.000001
v -0.924564 4.362114 0.000001
v -1.261451 1.204973 1.261451
v -1.105085 2.038306 1.105085
v -0.961737 2.871639 0.961737
v -0.782220 3.704973 0.782220
v -0.629567 4.538306 0.629567
v 0.000000 1.954374 1.315604
v 0.000000 1.028780 1.852532
v 0.000000 2.787707 1.073552
v 0.000000 1.862114 1.622899
v -0.000001 3.621040 0.831499
v 0.000000 2.695447 1.412380
v -0.000001 4.454374 0.589446
v -0.000001 3.528780 1.148747
v -0.000001 5.287707 0.347393
v -0.000001 4.362114 0.924564
v 1.261451 1.204973 1.261451
v 1.105085 2.038306 1.105085
v 0.961736 2.871639 0.961737
v 0.782218 3.704973 0.782220
v 0.629565 4.538306 0.629567
v 0.236550 5.463899 -0.236550
v -0.236552 5.463899 -0.236550
v -0.236552 5.463899 0.236552
v 0.236550 5.463899 0.236552
v 0.401372 4.630566 0.401374
v -0.401374 4.630566 0.401374
v -0.401374 4.630566 -0.401372
v 0.401372 4.630566 -0.401372
v 0.566194 3.797233 0.566196
v -0.566196 3.797233 0.566196
v -0.566196 3.797233 -0.566194
v 0.566194 3.797233 -0.566194
v 0.731017 2.963899 0.731017
v -0.731017 2.963899 0.731017
v -0.731016 2.963899 -0.731017
v 0.731016 2.963899 -0.731017
v 0.895838 2.130566 0.895838
v -0.895838 2.130566 0.895838
v -0.895838 2.130566 -0.895838
v 0.895838 2.130566 -0.895838
v 1.557657 1.121040 0.000000
v 1.060660 1.297233 1.060660
v 0.000000 1.121040 1.557657
v -1.557657 1.121040 0.000000
v 0.000000 1.121040 -1.557657
v 0.071728 6.297233 0.071730
v -0.071730 6.297233 0.071730
v -0.071730 6.297233 -0.071728
v 0.071728 6.297233 -0.071728
v 0.000000 0.720975 0.249006
v -0.192660 -0.038183 0.192660
v 0.000000 -0.038183 0.272463
v 0.249006 0.720975 0.000000
v 0.192660 1.265203 0.192660
v 0.176074 0.720975 0.176074
v -0.176074 0.720975 0.176074
v -0.272463 -0.038183 -0.000000
v -0.249006 0.720975 0.000000
v -0.192660 -0.038183 -0.192660
v -0.192660 1.265203 0.192660
v -0.176074 0.720975 -0.176074
v 0.000000 -0.038183 -0.272463
v 0.192660 -0.038183 -0.192660
v 0.272463 -0.038183 -0.000000
v -0.272463 1.265203 0.000000
v 0.192660 -0.038183 0.192660
v 0.176074 0.720975 -0.176074
v -0.192660 1.265203 -0.192660
v 0.000000 0.720975 -0.249006
v 0.192660 1.265203 -0.192660
v 0.272463 1.265203 0.000000
v 0.000000 1.265203 0.272463
v 0.000000 1.265203 -0.272463
vt 0.434564 0.827806
vt 0.434890 0.832374
vt 0.433045 0.832833
vt 0.432183 0.842116
vt 0.434732 0.838459
vt 0.433214 0.843484
vt 0.435059 0.843022
vt 0.432017 0.836594
vt 0.434564 0.832959
vt 0.433045 0.837985
vt 0.434890 0.837526
vt 0.453626 0.815079
vt 0.456175 0.811422
vt 0.454656 0.816446
vt 0.429838 0.816600
vt 0.430404 0.816844
vt 0.430169 0.817432
vt 0.432017 0.831442
vt 0.456501 0.815984
vt 0.428463 0.808734
vt 0.424618 0.817261
vt 0.416413 0.813265
vt 0.430698 0.832592
vt 0.427768 0.838340
vt 0.426198 0.832335
vt 0.451357 0.832144
vt 0.448302 0.837121
vt 0.446839 0.831871
vt 0.442572 0.839947
vt 0.446839 0.836881
vt 0.446839 0.841655
vt 0.453978 0.820533
vt 0.458166 0.818446
vt 0.458166 0.822357
vt 0.456134 0.825851
vt 0.457386 0.830087
vt 0.454325 0.830209
vt 0.436711 0.818446
vt 0.439605 0.823347
vt 0.435085 0.823133
vt 0.436596 0.829121
vt 0.439624 0.833468
vt 0.435085 0.833238
vt 0.451564 0.811302
vt 0.449673 0.806611
vt 0.453962 0.808327
vt 0.437239 0.838474
vt 0.439294 0.842619
vt 0.435085 0.840794
vt 0.421048 0.833410
vt 0.424613 0.830979
vt 0.422803 0.835361
vt 0.427768 0.827681
vt 0.448302 0.827783
vt 0.444517 0.844640
vt 0.456067 0.824685
vt 0.452564 0.828303
vt 0.445482 0.823347
vt 0.442588 0.829121
vt 0.440962 0.823133
vt 0.419811 0.834147
vt 0.416783 0.839152
vt 0.415272 0.833917
vt 0.427894 0.841398
vt 0.432183 0.838340
vt 0.432183 0.843114
vt 0.452186 0.815447
vt 0.447982 0.817534
vt 0.447977 0.813622
vt 0.424613 0.836540
vt 0.425864 0.840797
vt 0.422803 0.840923
vt 0.442588 0.818446
vt 0.416783 0.829800
vt 0.429786 0.846088
vt 0.450131 0.811302
vt 0.421048 0.838971
vt 0.446657 0.808465
vt 0.443728 0.814212
vt 0.442158 0.808208
vt 0.451357 0.822807
vt 0.448302 0.827783
vt 0.446839 0.822534
vt 0.442572 0.832187
vt 0.446839 0.829121
vt 0.446839 0.833895
vt 0.416687 0.841240
vt 0.420874 0.839152
vt 0.420874 0.843064
vt 0.424618 0.842088
vt 0.425870 0.846325
vt 0.422809 0.846447
vt 0.443728 0.803553
vt 0.448302 0.818446
vt 0.444517 0.836881
vt 0.418775 0.845392
vt 0.421048 0.844540
vt 0.436711 0.829121
vt 0.436596 0.838474
vt 0.453962 0.803553
vt 0.435090 0.844706
vt 0.425864 0.835236
vt 0.455293 0.830995
vt 0.456763 0.831602
vt 0.456007 0.831886
vt 0.456007 0.833045
vt 0.453903 0.830209
vt 0.454177 0.830995
vt 0.453319 0.831737
vt 0.452564 0.833181
vt 0.453319 0.832896
vt 0.454033 0.833788
vt 0.455423 0.834573
vt 0.455149 0.833788
vt 0.449347 0.838468
vt 0.451710 0.837121
vt 0.451241 0.838468
vt 0.452696 0.839727
vt 0.453992 0.842182
vt 0.452696 0.841695
vt 0.451484 0.843207
vt 0.449122 0.844554
vt 0.449591 0.843207
vt 0.448136 0.841947
vt 0.446839 0.839492
vt 0.448136 0.839980
vt 0.433858 0.821497
vt 0.435085 0.824734
vt 0.433858 0.824273
vt 0.432149 0.826406
vt 0.429034 0.827681
vt 0.429478 0.826406
vt 0.427425 0.824629
vt 0.426198 0.821392
vt 0.427425 0.821854
vt 0.429135 0.819721
vt 0.432250 0.818446
vt 0.431806 0.819721
vt 0.424888 0.826145
vt 0.422712 0.829800
vt 0.422238 0.828438
vt 0.418789 0.828438
vt 0.415272 0.826177
vt 0.416583 0.825685
vt 0.416583 0.822101
vt 0.418758 0.818446
vt 0.419232 0.819808
vt 0.422681 0.819808
vt 0.426198 0.822069
vt 0.424888 0.822562
vt 0.430792 0.812554
vt 0.429603 0.807716
vt 0.430792 0.808163
vt 0.433496 0.804788
vt 0.438152 0.803553
vt 0.437722 0.804788
vt 0.440970 0.807599
vt 0.442158 0.812437
vt 0.440970 0.811990
vt 0.438265 0.815365
vt 0.433609 0.816600
vt 0.434039 0.815365
vt 0.416413 0.808066
vt 0.419845 0.803553
vt 0.420257 0.804738
vt 0.425261 0.804738
vt 0.429603 0.808305
vt 0.428463 0.813933
vt 0.425031 0.818446
vt 0.419614 0.817261
vt 0.415272 0.813694
vt 0.434890 0.827862
vt 0.434501 0.838340
vt 0.435059 0.838515
vt 0.434333 0.832833
vt 0.434890 0.833014
vt 0.455943 0.811302
vt 0.429838 0.817432
vt 0.429603 0.817188
vt 0.429603 0.816844
vt 0.430169 0.816600
vt 0.430404 0.817188
vt 0.434333 0.827681
vt 0.456501 0.811477
vt 0.432017 0.836833
vt 0.452564 0.835589
vt 0.442284 0.837079
vt 0.453640 0.818446
vt 0.457386 0.825356
vt 0.440962 0.819994
vt 0.440861 0.830716
vt 0.447977 0.808305
vt 0.440734 0.841508
vt 0.424054 0.829800
vt 0.432017 0.829263
vt 0.452564 0.829412
vt 0.440917 0.841647
vt 0.452564 0.821648
vt 0.455574 0.824685
vt 0.446839 0.827575
vt 0.421048 0.837581
vt 0.427609 0.838530
vt 0.452523 0.817534
vt 0.425864 0.836047
vt 0.446839 0.819994
vt 0.421048 0.831395
vt 0.426198 0.843091
vt 0.453626 0.814336
vt 0.424054 0.835361
vt 0.447977 0.812705
vt 0.452564 0.826252
vt 0.442284 0.829319
vt 0.416349 0.839153
vt 0.425870 0.841593
vt 0.447977 0.805135
vt 0.452564 0.820075
vt 0.440917 0.833887
vt 0.415272 0.842354
vt 0.424058 0.840923
vt 0.440962 0.827575
vt 0.440861 0.836902
vt 0.449388 0.803743
vt 0.439631 0.844706
vt 0.425864 0.830486
vt 0.455647 0.830209
vt 0.456763 0.833413
vt 0.452564 0.831369
vt 0.453679 0.834573
vt 0.448740 0.837121
vt 0.453992 0.839096
vt 0.452091 0.844554
vt 0.446839 0.842579
vt 0.435085 0.820900
vt 0.432724 0.827681
vt 0.426198 0.825227
vt 0.428560 0.818446
vt 0.426198 0.826783
vt 0.418175 0.829800
vt 0.415272 0.821463
vt 0.423295 0.818446
vt 0.429603 0.813133
vt 0.432939 0.803553
vt 0.442158 0.807020
vt 0.438822 0.816600
vt 0.415272 0.807510
vt 0.425795 0.803553
vt 0.429603 0.814489
vt 0.426968 0.793255
vt 0.421018 0.793255
vt 0.421552 0.792070
vt 0.417210 0.788503
vt 0.336474 0.813587
vt 0.335617 0.810386
vt 0.336506 0.810368
vt 0.338031 0.813559
vt 0.337174 0.815809
vt 0.337218 0.813578
vt 0.338612 0.780187
vt 0.338033 0.776800
vt 0.338702 0.777014
vt 0.337174 0.816039
vt 0.337084 0.813769
vt 0.336063 0.805182
vt 0.335206 0.802011
vt 0.336095 0.801991
vt 0.335617 0.815858
vt 0.335661 0.813604
vt 0.335116 0.805392
vt 0.334538 0.801991
vt 0.335206 0.802190
vt 0.338702 0.782434
vt 0.338000 0.779992
vt 0.336794 0.835772
vt 0.336093 0.838750
vt 0.336125 0.835558
vt 0.336095 0.807411
vt 0.335250 0.805201
vt 0.337174 0.810389
vt 0.338063 0.810368
vt 0.333693 0.805227
vt 0.333649 0.802009
vt 0.335206 0.807661
vt 0.334506 0.805210
vt 0.336794 0.841193
vt 0.336704 0.838945
vt 0.333649 0.807481
vt 0.337174 0.810567
vt 0.336125 0.840979
vt 0.335236 0.841000
vt 0.336506 0.815840
vt 0.338033 0.782221
vt 0.335206 0.807432
vt 0.334538 0.807462
vt 0.342180 0.781808
vt 0.341570 0.781627
vt 0.341603 0.778408
vn 0.8989 0.3601 0.2496
vn 0.2496 0.3601 0.8989
vn -0.2496 0.3601 0.8989
vn -0.8989 0.3601 0.2496
vn -0.8989 0.3601 -0.2496
vn -0.2496 0.3601 -0.8989
vn 0.0000 1.0000 -0.0000
vn 0.8989 0.3601 -0.2496
vn 0.2496 0.3601 -0.8989
vn 0.0000 -1.0000 -0.0000
vn 0.3178 0.4758 -0.8201
vn 0.3061 0.4859 -0.8187
vn 0.2869 0.5092 -0.8114
vn 0.2737 0.4974 -0.8232
vn 0.2421 0.5134 -0.8233
vn 0.8201 0.4758 -0.3178
vn 0.8187 0.4859 -0.3061
vn 0.8114 0.5092 -0.2869
vn 0.8232 0.4974 -0.2737
vn 0.8233 0.5134 -0.2421
vn -0.3178 0.4758 -0.8201
vn -0.3061 0.4859 -0.8187
vn -0.2869 0.5092 -0.8114
vn -0.2737 0.4974 -0.8232
vn -0.2421 0.5134 -0.8233
vn -0.8201 0.4758 -0.3178
vn -0.8187 0.4859 -0.3061
vn -0.8114 0.5092 -0.2869
vn -0.8232 0.4974 -0.2737
vn -0.8233 0.5134 -0.2421
vn -0.8201 0.4758 0.3178
vn -0.8187 0.4859 0.3061
vn -0.8114 0.5092 0.2869
vn -0.8232 0.4974 0.2737
vn -0.8233 0.5134 0.2421
vn -0.3178 0.4758 0.8201
vn -0.3061 0.4859 0.8187
vn -0.2869 0.5092 0.8114
vn -0.2737 0.4974 0.8232
vn -0.2421 0.5134 0.8233
vn 0.3178 0.4758 0.8201
vn 0.3061 0.4859 0.8187
vn 0.2869 0.5092 0.8114
vn 0.2737 0.4974 0.8232
vn 0.2421 0.5134 0.8233
vn 0.8201 0.4758 0.3178
vn 0.8187 0.4859 0.3061
vn 0.8114 0.5092 0.2869
vn 0.8232 0.4974 0.2737
vn 0.8233 0.5134 0.2421
vn 0.2001 -0.7000 0.6855
vn -0.6855 -0.7000 -0.2001
vn -0.2001 -0.7000 0.6856
vn 0.6855 -0.7000 -0.2001
vn 0.6855 -0.7000 0.2001
vn -0.2001 -0.7000 -0.6856
vn 0.2001 -0.7000 -0.6855
vn -0.6855 -0.7000 0.2001
vn -0.4926 -0.8579 0.1458
vn 0.1458 -0.8579 -0.4926
vn -0.1458 -0.8579 -0.4926
vn 0.4926 -0.8579 0.1458
vn 0.4926 -0.8579 -0.1458
vn -0.1458 -0.8579 0.4926
vn -0.4926 -0.8579 -0.1458
vn 0.1458 -0.8579 0.4926
vn -0.4481 -0.8914 0.0674
vn 0.0674 -0.8914 -0.4481
vn -0.0674 -0.8914 -0.4481
vn 0.4481 -0.8914 0.0674
vn 0.4481 -0.8914 -0.0674
vn -0.0674 -0.8914 0.4481
vn -0.4481 -0.8914 -0.0674
vn 0.0674 -0.8914 0.4481
vn -0.3998 -0.9160 0.0335
vn 0.0335 -0.9160 -0.3998
vn -0.0335 -0.9160 -0.3998
vn 0.3998 -0.9160 0.0335
vn 0.3998 -0.9160 -0.0335
vn -0.0335 -0.9160 0.3998
vn -0.3998 -0.9160 -0.0335
vn 0.0335 -0.9160 0.3998
vn -0.3982 -0.9173 -0.0062
vn -0.0062 -0.9173 -0.3982
vn 0.0062 -0.9173 -0.3982
vn 0.3982 -0.9173 -0.0062
vn 0.3982 -0.9173 0.0062
vn 0.0062 -0.9173 0.3982
vn -0.3982 -0.9173 0.0062
vn -0.0062 -0.9173 0.3982
vn -0.3917 -0.9196 -0.0308
vn -0.0308 -0.9196 -0.3917
vn 0.0308 -0.9196 -0.3917
vn 0.3917 -0.9196 -0.0308
vn 0.3917 -0.9196 0.0308
vn 0.0308 -0.9196 0.3917
vn -0.3917 -0.9196 0.0308
vn -0.0308 -0.9196 0.3917
vn 0.8517 0.3876 0.3528
vn 0.3528 0.3876 0.8517
vn -0.3528 0.3876 0.8517
vn -0.8517 0.3876 0.3528
vn -0.8517 0.3876 -0.3528
vn -0.3528 0.3876 -0.8517
vn 0.8517 0.3876 -0.3528
vn 0.3528 0.3876 -0.8517
vn -0.3341 -0.9425 0.0000
vn 0.0000 -0.9425 -0.3341
vn 0.3341 -0.9425 0.0000
vn 0.0000 -0.9425 0.3341
vn 0.3042 0.4515 -0.8388
vn 0.2851 0.4560 -0.8431
vn 0.2508 0.4691 -0.8468
vn 0.2122 0.4452 -0.8699
vn 0.1040 0.4258 -0.8988
vn 0.8388 0.4515 -0.3042
vn 0.8431 0.4560 -0.2851
vn 0.8468 0.4691 -0.2508
vn 0.8699 0.4452 -0.2122
vn 0.8988 0.4258 -0.1040
vn -0.3042 0.4515 -0.8388
vn -0.2851 0.4560 -0.8431
vn -0.2508 0.4691 -0.8468
vn -0.2122 0.4452 -0.8699
vn -0.1040 0.4258 -0.8988
vn -0.8388 0.4515 -0.3042
vn -0.8431 0.4560 -0.2851
vn -0.8468 0.4691 -0.2508
vn -0.8699 0.4452 -0.2122
vn -0.8988 0.4258 -0.1040
vn -0.8388 0.4515 0.3042
vn -0.8431 0.4560 0.2851
vn -0.8468 0.4691 0.2508
vn -0.8699 0.4452 0.2122
vn -0.8988 0.4258 0.1040
vn -0.3042 0.4515 0.8388
vn -0.2851 0.4560 0.8431
vn -0.2508 0.4691 0.8468
vn -0.2122 0.4452 0.8699
vn -0.1040 0.4258 0.8988
vn 0.3042 0.4515 0.8388
vn 0.2851 0.4560 0.8431
vn 0.2508 0.4691 0.8468
vn 0.2122 0.4452 0.8699
vn 0.1040 0.4258 0.8988
vn 0.8388 0.4515 0.3042
vn 0.8431 0.4560 0.2851
vn 0.8468 0.4691 0.2508
vn 0.8699 0.4452 0.2122
vn 0.8988 0.4258 0.1040
vn 0.2251 -0.8811 0.4160
vn -0.4160 -0.8811 -0.2251
vn -0.2251 -0.8811 0.4160
vn 0.4160 -0.8811 -0.2251
vn 0.4160 -0.8811 0.2251
vn -0.2251 -0.8811 -0.4160
vn 0.2251 -0.8811 -0.4160
vn -0.4160 -0.8811 0.2251
vn -0.2627 -0.9541 0.1439
vn 0.1439 -0.9541 -0.2627
vn -0.1439 -0.9541 -0.2627
vn 0.2627 -0.9541 0.1439
vn 0.2627 -0.9541 -0.1439
vn -0.1439 -0.9541 0.2627
vn -0.2627 -0.9541 -0.1439
vn 0.1439 -0.9541 0.2627
vn -0.2782 -0.9567 0.0851
vn 0.0851 -0.9567 -0.2782
vn -0.0851 -0.9567 -0.2782
vn 0.2782 -0.9567 0.0851
vn 0.2782 -0.9567 -0.0851
vn -0.0851 -0.9567 0.2782
vn -0.2782 -0.9567 -0.0851
vn 0.0851 -0.9567 0.2782
vn -0.2623 -0.9635 0.0536
vn 0.0536 -0.9635 -0.2624
vn -0.0536 -0.9635 -0.2623
vn 0.2623 -0.9635 0.0536
vn 0.2623 -0.9635 -0.0536
vn -0.0536 -0.9635 0.2623
vn -0.2623 -0.9635 -0.0536
vn 0.0536 -0.9635 0.2624
vn -0.2875 -0.9576 0.0180
vn 0.0180 -0.9576 -0.2875
vn -0.0180 -0.9576 -0.2875
vn 0.2875 -0.9576 0.0180
vn 0.2875 -0.9576 -0.0180
vn -0.0180 -0.9576 0.2875
vn -0.2875 -0.9576 -0.0180
vn 0.0180 -0.9576 0.2875
vn -0.2986 -0.9544 -0.0000
vn -0.2986 -0.9544 -0.0066
vn -0.0066 -0.9544 -0.2986
vn -0.0000 -0.9544 -0.2986
vn 0.0066 -0.9544 -0.2986
vn 0.2986 -0.9544 -0.0066
vn 0.2986 -0.9544 -0.0000
vn 0.2986 -0.9544 0.0066
vn 0.0066 -0.9544 0.2986
vn 0.0000 -0.9544 0.2986
vn -0.2986 -0.9544 0.0066
vn -0.0066 -0.9544 0.2986
vn -0.3825 0.0285 0.9235
vn 0.9231 -0.0398 0.3824
vn -0.9235 0.0285 0.3825
vn 0.3824 -0.0398 0.9231
vn -0.9235 0.0285 -0.3825
vn -0.3824 -0.0398 0.9231
vn -0.3825 0.0285 -0.9235
vn -0.9231 -0.0398 0.3824
vn 0.9235 0.0285 -0.3825
vn -0.9231 -0.0398 -0.3824
vn 0.9235 0.0285 0.3825
vn 0.3825 0.0285 -0.9235
vn -0.3824 -0.0398 -0.9231
vn 0.9231 -0.0398 -0.3824
vn 0.3824 -0.0398 -0.9231
vn 0.3825 0.0285 0.9235
usemtl vegetation.001
s 1
f 1/1/1 2/2/1 3/3/1
f 2/4/2 4/5/2 5/6/2
f 4/5/3 6/7/3 5/6/3
f 6/8/4 7/9/4 8/10/4
f 7/9/5 9/11/5 8/10/5
f 9/12/6 10/13/6 11/14/6
f 10/15/7 7/16/7 4/17/7
f 12/18/8 1/1/8 3/3/8
f 10/13/9 12/19/9 11/14/9
f 13/20/10 14/21/10 15/22/10
f 16/23/11 17/24/11 18/25/11
f 19/26/12 20/27/12 21/28/12
f 22/29/13 23/30/13 24/31/13
f 25/32/14 26/33/14 27/34/14
f 28/35/15 29/36/15 30/37/15
f 17/38/16 31/39/16 32/40/16
f 20/41/17 33/42/17 34/43/17
f 23/44/18 35/45/18 36/46/18
f 26/47/19 37/48/19 38/49/19
f 29/50/20 39/51/20 40/52/20
f 41/53/21 16/23/21 18/25/21
f 42/54/22 19/26/22 21/28/22
f 43/55/23 22/29/23 24/31/23
f 44/56/24 25/32/24 27/34/24
f 45/57/25 28/35/25 30/37/25
f 46/58/26 41/59/26 47/60/26
f 48/61/27 42/62/27 49/63/27
f 50/64/28 43/65/28 51/66/28
f 52/67/29 44/68/29 53/69/29
f 54/70/30 45/71/30 55/72/30
f 56/73/31 46/58/31 47/60/31
f 57/74/32 48/61/32 49/63/32
f 58/75/33 50/64/33 51/66/33
f 59/76/34 52/67/34 53/69/34
f 60/77/35 54/70/35 55/72/35
f 61/78/36 56/79/36 62/80/36
f 63/81/37 57/82/37 64/83/37
f 65/84/38 58/85/38 66/86/38
f 67/87/39 59/88/39 68/89/39
f 69/90/40 60/91/40 70/92/40
f 71/93/41 61/78/41 62/80/41
f 72/94/42 63/81/42 64/83/42
f 73/95/43 65/84/43 66/86/43
f 74/96/44 67/87/44 68/89/44
f 75/97/45 69/90/45 70/92/45
f 31/39/46 71/98/46 32/40/46
f 33/42/47 72/99/47 34/43/47
f 35/45/48 73/100/48 36/46/48
f 37/48/49 74/101/49 38/49/49
f 39/51/50 75/102/50 40/52/50
f 28/103/51 12/104/51 76/105/51
f 12/104/52 39/106/52 76/105/52
f 9/107/53 28/103/53 77/108/53
f 54/109/54 9/107/54 77/108/54
f 6/110/55 54/109/55 78/111/55
f 69/112/56 6/110/56 78/111/56
f 2/113/57 69/112/57 79/114/57
f 39/106/58 2/113/58 79/114/58
f 37/115/59 75/116/59 80/117/59
f 75/116/60 67/118/60 80/117/60
f 67/118/61 60/119/61 81/120/61
f 60/119/62 52/121/62 81/120/62
f 52/121/63 45/122/63 82/123/63
f 45/122/64 25/124/64 82/123/64
f 29/125/65 37/115/65 83/126/65
f 25/124/66 29/125/66 83/126/66
f 35/127/67 74/128/67 84/129/67
f 74/128/68 65/130/68 84/129/68
f 65/130/69 59/131/69 85/132/69
f 59/131/70 50/133/70 85/132/70
f 50/133/71 44/134/71 86/135/71
f 44/134/72 22/136/72 86/135/72
f 26/137/73 35/127/73 87/138/73
f 22/136/74 26/137/74 87/138/74
f 33/139/75 73/140/75 88/141/75
f 73/140/76 63/142/76 88/141/76
f 63/142/77 58/143/77 89/144/77
f 58/143/78 48/145/78 89/144/78
f 48/145/79 43/146/79 90/147/79
f 43/146/80 19/148/80 90/147/80
f 23/149/81 33/139/81 91/150/81
f 19/148/82 23/149/82 91/150/82
f 31/151/83 72/152/83 92/153/83
f 72/152/84 61/154/84 92/153/84
f 61/154/85 57/155/85 93/156/85
f 57/155/86 46/157/86 93/156/86
f 46/157/87 42/158/87 94/159/87
f 42/158/88 16/160/88 94/159/88
f 20/161/89 31/151/89 95/162/89
f 16/160/90 20/161/90 95/162/90
f 96/163/91 71/164/91 97/165/91
f 71/164/92 98/166/92 97/165/92
f 98/166/93 56/167/93 13/20/93
f 56/167/94 99/168/94 13/20/94
f 99/168/95 41/169/95 14/21/95
f 41/169/96 100/170/96 14/21/96
f 17/171/97 96/163/97 15/22/97
f 100/170/98 17/171/98 15/22/98
f 1/1/99 101/172/99 2/2/99
f 2/4/100 101/173/100 4/5/100
f 4/5/101 102/174/101 6/7/101
f 6/8/102 102/175/102 7/9/102
f 7/9/103 103/176/103 9/11/103
f 9/12/104 103/177/104 10/13/104
f 4/17/7 101/178/7 1/179/7
f 1/179/7 104/180/7 10/15/7
f 10/15/7 103/181/7 7/16/7
f 7/16/7 102/182/7 4/17/7
f 4/17/7 1/179/7 10/15/7
f 12/18/105 104/183/105 1/1/105
f 10/13/106 104/184/106 12/19/106
f 15/22/107 96/163/107 97/165/107
f 97/165/108 98/166/108 13/20/108
f 13/20/109 99/168/109 14/21/109
f 14/21/110 100/170/110 15/22/110
f 15/22/10 97/165/10 13/20/10
f 16/23/111 95/185/111 17/24/111
f 19/26/112 91/186/112 20/27/112
f 22/29/113 87/187/113 23/30/113
f 25/32/114 83/188/114 26/33/114
f 28/35/115 76/189/115 29/36/115
f 17/38/116 95/190/116 31/39/116
f 20/41/117 91/191/117 33/42/117
f 23/44/118 87/192/118 35/45/118
f 26/47/119 83/193/119 37/48/119
f 29/50/120 76/194/120 39/51/120
f 41/53/121 94/195/121 16/23/121
f 42/54/122 90/196/122 19/26/122
f 43/55/123 86/197/123 22/29/123
f 44/56/124 82/198/124 25/32/124
f 45/57/125 77/199/125 28/35/125
f 46/58/126 94/200/126 41/59/126
f 48/61/127 90/201/127 42/62/127
f 50/64/128 86/202/128 43/65/128
f 52/67/129 82/203/129 44/68/129
f 54/70/130 77/204/130 45/71/130
f 56/73/131 93/205/131 46/58/131
f 57/74/132 89/206/132 48/61/132
f 58/75/133 85/207/133 50/64/133
f 59/76/134 81/208/134 52/67/134
f 60/77/135 78/209/135 54/70/135
f 61/78/136 93/210/136 56/79/136
f 63/81/137 89/211/137 57/82/137
f 65/84/138 85/212/138 58/85/138
f 67/87/139 81/213/139 59/88/139
f 69/90/140 78/214/140 60/91/140
f 71/93/141 92/215/141 61/78/141
f 72/94/142 88/216/142 63/81/142
f 73/95/143 84/217/143 65/84/143
f 74/96/144 80/218/144 67/87/144
f 75/97/145 79/219/145 69/90/145
f 31/39/146 92/220/146 71/98/146
f 33/42/147 88/221/147 72/99/147
f 35/45/148 84/222/148 73/100/148
f 37/48/149 80/223/149 74/101/149
f 39/51/150 79/224/150 75/102/150
f 28/103/151 11/225/151 12/104/151
f 12/104/152 3/226/152 39/106/152
f 9/107/153 11/225/153 28/103/153
f 54/109/154 8/227/154 9/107/154
f 6/110/155 8/227/155 54/109/155
f 69/112/156 5/228/156 6/110/156
f 2/113/157 5/228/157 69/112/157
f 39/106/158 3/226/158 2/113/158
f 37/115/159 40/229/159 75/116/159
f 75/116/160 70/230/160 67/118/160
f 67/118/161 70/230/161 60/119/161
f 60/119/162 55/231/162 52/121/162
f 52/121/163 55/231/163 45/122/163
f 45/122/164 30/232/164 25/124/164
f 29/125/165 40/229/165 37/115/165
f 25/124/166 30/232/166 29/125/166
f 35/127/167 38/233/167 74/128/167
f 74/128/168 68/234/168 65/130/168
f 65/130/169 68/234/169 59/131/169
f 59/131/170 53/235/170 50/133/170
f 50/133/171 53/235/171 44/134/171
f 44/134/172 27/236/172 22/136/172
f 26/137/173 38/233/173 35/127/173
f 22/136/174 27/236/174 26/137/174
f 33/139/175 36/237/175 73/140/175
f 73/140/176 66/238/176 63/142/176
f 63/142/177 66/238/177 58/143/177
f 58/143/178 51/239/178 48/145/178
f 48/145/179 51/239/179 43/146/179
f 43/146/180 24/240/180 19/148/180
f 23/149/181 36/237/181 33/139/181
f 19/148/182 24/240/182 23/149/182
f 31/151/183 34/241/183 72/152/183
f 72/152/184 64/242/184 61/154/184
f 61/154/185 64/242/185 57/155/185
f 57/155/186 49/243/186 46/157/186
f 46/157/187 49/243/187 42/158/187
f 42/158/188 21/244/188 16/160/188
f 20/161/189 34/241/189 31/151/189
f 16/160/190 21/244/190 20/161/190
f 96/163/191 32/245/191 71/164/192
f 71/164/193 62/246/194 98/166/194
f 98/166/194 62/246/194 56/167/195
f 56/167/196 47/247/197 99/168/197
f 99/168/197 47/247/197 41/169/198
f 41/248/199 18/249/200 100/250/200
f 17/171/201 32/245/191 96/163/191
f 100/250/200 18/249/200 17/251/202
f 105/252/203 106/253/203 107/254/203
f 108/255/204 109/256/204 110/257/204
f 111/258/205 112/259/205 106/260/205
f 109/261/206 105/252/206 110/262/206
f 113/263/207 114/264/207 112/265/207
f 105/252/208 115/266/208 111/267/208
f 116/268/209 117/269/209 114/270/209
f 115/271/210 113/272/210 111/258/210
f 118/273/211 108/274/211 119/275/211
f 120/276/212 116/277/212 113/263/212
f 108/255/213 121/278/213 119/279/213
f 117/269/214 122/280/214 118/281/214
f 123/282/215 124/283/215 116/268/215
f 125/284/216 108/274/216 122/285/216
f 124/283/217 125/286/217 122/280/217
f 110/262/218 107/254/218 121/287/218
f 105/252/203 111/267/203 106/253/203
f 108/274/204 126/288/204 109/289/204
f 111/258/205 113/272/205 112/259/205
f 109/261/206 127/290/206 105/252/206
f 113/263/207 116/277/207 114/264/207
f 105/252/208 127/290/208 115/266/208
f 116/268/209 124/283/209 117/269/209
f 115/271/210 120/291/210 113/272/210
f 118/273/211 122/285/211 108/274/211
f 120/276/212 123/292/212 116/277/212
f 108/255/213 110/257/213 121/278/213
f 117/269/214 124/283/214 122/280/214
f 123/282/215 128/293/215 124/283/215
f 125/284/216 126/288/216 108/274/216
f 124/283/217 128/293/217 125/286/217
f 110/294/218 105/295/218 107/296/218
