# Blender v2.81 (sub 16) OBJ File: ''
# www.blender.org
mtllib firtreeSnow.mtl
o Leaves0_LOD0_Leaves.000
v 0.000000 3.098693 -1.412379
v 1.060660 1.700479 -1.060660
v 0.961736 3.274885 -0.961736
v -0.000001 4.024286 -0.831497
v 0.000000 2.265360 -1.622899
v 1.105085 2.441552 -1.105086
v -1.060660 1.700479 -1.060660
v -1.060660 1.700479 1.060660
v 0.369592 5.774885 -0.369592
v -0.000001 5.598693 -0.542773
v -0.000001 6.700479 -0.101439
v -0.369594 5.774885 -0.369592
v -0.542775 5.598693 0.000001
v -0.101441 6.700479 0.000001
v 0.000000 3.190953 -1.073551
v -0.369594 5.774885 0.369594
v 0.000000 1.432027 -1.852532
v -0.000001 5.598693 0.542775
v -0.000001 6.700479 0.101441
v 0.542773 5.598693 0.000001
v 0.369592 5.774885 0.369594
v 1.261451 1.608219 -1.261451
v 0.000000 2.357620 -1.315604
v 0.101439 6.700479 0.000001
v -0.000001 4.857620 -0.589444
v 0.782218 4.108219 -0.782218
v -0.000001 3.932026 -1.148746
v -0.000001 5.690953 -0.347391
v 0.629565 4.941552 -0.629565
v -0.000001 4.765360 -0.924562
v 1.315604 2.357620 0.000000
v 1.852532 1.432026 0.000000
v 1.073551 3.190953 0.000000
v 1.622899 2.265360 0.000000
v 0.831497 4.024286 0.000001
v 1.412379 3.098693 0.000000
v 0.589444 4.857620 0.000001
v 1.148745 3.932026 0.000001
v 0.347391 5.690953 0.000001
v 0.924562 4.765360 0.000001
v -1.261450 1.608219 -1.261451
v -1.105085 2.441552 -1.105086
v -0.961737 3.274885 -0.961736
v -0.782220 4.108219 -0.782218
v -0.629567 4.941552 -0.629565
v -1.315604 2.357620 0.000000
v -1.852532 1.432026 0.000000
v -1.073552 3.190953 0.000000
v -1.622899 2.265360 0.000000
v -0.831499 4.024286 0.000001
v -1.412380 3.098693 0.000000
v -0.589446 4.857620 0.000001
v -1.148747 3.932026 0.000001
v -0.347393 5.690953 0.000001
v -0.924564 4.765360 0.000001
v -1.261451 1.608219 1.261451
v -1.105085 2.441552 1.105085
v -0.961737 3.274885 0.961737
v -0.782220 4.108219 0.782220
v -0.629567 4.941552 0.629567
v 0.000000 2.357620 1.315604
v 0.000000 1.432026 1.852532
v 0.000000 3.190953 1.073551
v 0.000000 2.265360 1.622899
v -0.000001 4.024286 0.831499
v 0.000000 3.098693 1.412379
v -0.000001 4.857620 0.589446
v -0.000001 3.932026 1.148746
v -0.000001 5.690953 0.347393
v -0.000001 4.765360 0.924564
v 1.261451 1.608219 1.261451
v 1.105085 2.441552 1.105085
v 0.961736 3.274885 0.961737
v 0.782218 4.108219 0.782220
v 0.629565 4.941552 0.629567
v 0.236550 5.867145 -0.236550
v -0.236552 5.867145 -0.236550
v -0.236552 5.867145 0.236552
v 0.236550 5.867145 0.236552
v 0.401372 5.033812 0.401374
v -0.401374 5.033812 0.401374
v -0.401374 5.033812 -0.401372
v 0.401372 5.033812 -0.401372
v 0.566194 4.200479 0.566196
v -0.566196 4.200479 0.566196
v -0.566196 4.200479 -0.566194
v 0.566194 4.200479 -0.566194
v 0.731017 3.367145 0.731017
v -0.731017 3.367145 0.731017
v -0.731016 3.367145 -0.731017
v 0.731016 3.367145 -0.731017
v 0.895838 2.533812 0.895838
v -0.895838 2.533812 0.895838
v -0.895838 2.533812 -0.895838
v 0.895838 2.533812 -0.895838
v 1.557657 1.524286 0.000000
v 1.060660 1.700479 1.060660
v 0.000000 1.524286 1.557657
v -1.557657 1.524286 0.000000
v 0.000000 1.524286 -1.557657
v 0.071728 6.700479 0.071730
v -0.071730 6.700479 0.071730
v -0.071730 6.700479 -0.071728
v 0.071728 6.700479 -0.071728
vt 0.539248 0.822049
vt 0.542277 0.826396
vt 0.537737 0.826166
vt 0.565053 0.810695
vt 0.567948 0.815596
vt 0.563427 0.815382
vt 0.559177 0.810695
vt 0.562070 0.815596
vt 0.557550 0.815382
vt 0.547078 0.828789
vt 0.548329 0.833046
vt 0.545269 0.833172
vt 0.578599 0.818100
vt 0.579852 0.822336
vt 0.576790 0.822458
vt 0.574651 0.807696
vt 0.570448 0.809783
vt 0.570442 0.805871
vt 0.576443 0.812782
vt 0.580631 0.810695
vt 0.580631 0.814606
vt 0.565037 0.832196
vt 0.569304 0.829130
vt 0.569304 0.833904
vt 0.550359 0.833647
vt 0.554649 0.830589
vt 0.554649 0.835363
vt 0.573822 0.824393
vt 0.570768 0.829370
vt 0.569304 0.824120
vt 0.539248 0.831401
vt 0.553164 0.824841
vt 0.550233 0.830589
vt 0.548663 0.824584
vt 0.550928 0.800983
vt 0.547083 0.809510
vt 0.538879 0.805514
vt 0.565053 0.821370
vt 0.578640 0.803671
vt 0.578966 0.808233
vt 0.577121 0.808695
vt 0.575029 0.820552
vt 0.578532 0.816934
vt 0.566983 0.836889
vt 0.554482 0.823691
vt 0.557029 0.820055
vt 0.555511 0.825082
vt 0.570768 0.820032
vt 0.552303 0.808849
vt 0.552869 0.809093
vt 0.552634 0.809681
vt 0.550233 0.819930
vt 0.576092 0.807328
vt 0.557029 0.825208
vt 0.557356 0.829775
vt 0.555511 0.830234
vt 0.543513 0.825659
vt 0.547078 0.823228
vt 0.545269 0.827610
vt 0.554482 0.828843
vt 0.559704 0.830723
vt 0.561759 0.834868
vt 0.557550 0.833043
vt 0.557197 0.830708
vt 0.557525 0.835271
vt 0.555680 0.835733
vt 0.554649 0.834365
vt 0.574030 0.803551
vt 0.572138 0.798860
vt 0.576427 0.800576
vt 0.557356 0.824623
vt 0.559062 0.821370
vt 0.562090 0.825717
vt 0.557550 0.825487
vt 0.552251 0.838337
vt 0.572596 0.803551
vt 0.543513 0.831220
vt 0.569122 0.800714
vt 0.566193 0.806461
vt 0.564623 0.800457
vt 0.573822 0.815056
vt 0.570768 0.820032
vt 0.569304 0.814783
vt 0.565037 0.824436
vt 0.569304 0.821370
vt 0.569304 0.826144
vt 0.539153 0.833489
vt 0.543339 0.831401
vt 0.543339 0.835313
vt 0.547083 0.834337
vt 0.548335 0.838574
vt 0.545274 0.838696
vt 0.566193 0.795802
vt 0.570768 0.810695
vt 0.566983 0.829130
vt 0.541240 0.837641
vt 0.543513 0.836789
vt 0.559177 0.821370
vt 0.559062 0.830723
vt 0.576427 0.795802
vt 0.557555 0.836955
vt 0.548329 0.827485
vt 0.577758 0.823244
vt 0.579229 0.823851
vt 0.578472 0.824135
vt 0.578472 0.825294
vt 0.576368 0.822458
vt 0.576643 0.823244
vt 0.575785 0.823986
vt 0.575029 0.825430
vt 0.575785 0.825145
vt 0.576499 0.826037
vt 0.577888 0.826822
vt 0.577614 0.826037
vt 0.571813 0.830717
vt 0.574175 0.829370
vt 0.573707 0.830717
vt 0.575161 0.831976
vt 0.576458 0.834431
vt 0.575161 0.833944
vt 0.573949 0.835456
vt 0.571588 0.836803
vt 0.572057 0.835456
vt 0.570601 0.834196
vt 0.569304 0.831741
vt 0.570601 0.832229
vt 0.556324 0.813746
vt 0.557550 0.816983
vt 0.556324 0.816522
vt 0.554614 0.818655
vt 0.551499 0.819930
vt 0.551943 0.818655
vt 0.549891 0.816878
vt 0.548663 0.813641
vt 0.549891 0.814103
vt 0.551600 0.811970
vt 0.554716 0.810695
vt 0.554271 0.811970
vt 0.547354 0.818394
vt 0.545177 0.822049
vt 0.544703 0.820687
vt 0.541255 0.820687
vt 0.537737 0.818426
vt 0.539048 0.817934
vt 0.539048 0.814350
vt 0.541224 0.810695
vt 0.541698 0.812057
vt 0.545146 0.812057
vt 0.548663 0.814318
vt 0.547354 0.814811
vt 0.553257 0.804803
vt 0.552068 0.799965
vt 0.553257 0.800412
vt 0.555961 0.797037
vt 0.560617 0.795802
vt 0.560187 0.797037
vt 0.563435 0.799848
vt 0.564623 0.804686
vt 0.563435 0.804239
vt 0.560730 0.807614
vt 0.556075 0.808849
vt 0.556504 0.807614
vt 0.538879 0.800315
vt 0.542310 0.795802
vt 0.542722 0.796987
vt 0.547727 0.796987
vt 0.552068 0.800554
vt 0.550928 0.806182
vt 0.547496 0.810695
vt 0.542079 0.809510
vt 0.537737 0.805943
vt 0.557356 0.820111
vt 0.556966 0.830589
vt 0.557525 0.830764
vt 0.556798 0.825082
vt 0.557356 0.825263
vt 0.578408 0.803551
vt 0.552303 0.809681
vt 0.552068 0.809437
vt 0.552068 0.809093
vt 0.552634 0.808849
vt 0.552869 0.809437
vt 0.556798 0.819930
vt 0.578966 0.803726
vt 0.554482 0.829082
vt 0.575029 0.827838
vt 0.564749 0.829328
vt 0.576105 0.810695
vt 0.579852 0.817605
vt 0.563427 0.812243
vt 0.563326 0.822965
vt 0.570442 0.800554
vt 0.563200 0.833757
vt 0.546520 0.822049
vt 0.554482 0.821512
vt 0.575029 0.821661
vt 0.563383 0.833896
vt 0.575029 0.813897
vt 0.578040 0.816934
vt 0.569304 0.819824
vt 0.543513 0.829830
vt 0.550074 0.830779
vt 0.574988 0.809783
vt 0.548329 0.828296
vt 0.569304 0.812243
vt 0.543513 0.823644
vt 0.548663 0.835340
vt 0.576092 0.806585
vt 0.546520 0.827610
vt 0.570442 0.804954
vt 0.575029 0.818501
vt 0.564749 0.821568
vt 0.538814 0.831402
vt 0.548335 0.833842
vt 0.570442 0.797384
vt 0.575029 0.812324
vt 0.563383 0.826136
vt 0.537737 0.834603
vt 0.546523 0.833172
vt 0.563427 0.819824
vt 0.563326 0.829151
vt 0.571854 0.795992
vt 0.562096 0.836955
vt 0.548329 0.822735
vt 0.578112 0.822458
vt 0.579229 0.825662
vt 0.575029 0.823618
vt 0.576144 0.826822
vt 0.571205 0.829370
vt 0.576458 0.831345
vt 0.574556 0.836803
vt 0.569304 0.834828
vt 0.557550 0.813149
vt 0.555189 0.819930
vt 0.548663 0.817476
vt 0.551026 0.810695
vt 0.548663 0.819032
vt 0.540640 0.822049
vt 0.537737 0.813712
vt 0.545761 0.810695
vt 0.552068 0.805382
vt 0.555404 0.795802
vt 0.564623 0.799269
vt 0.561288 0.808849
vt 0.537737 0.799759
vt 0.548260 0.795802
vt 0.552068 0.806738
vt 0.549433 0.785504
vt 0.543483 0.785504
vt 0.544017 0.784319
vt 0.539675 0.780752
vn -0.8187 0.4859 0.3061
vn -0.8201 0.4758 0.3178
vn 0.8201 0.4758 -0.3178
vn -0.8233 0.5134 -0.2421
vn 0.2421 0.5134 -0.8233
vn -0.8232 0.4974 -0.2737
vn 0.2737 0.4974 -0.8232
vn 0.2869 0.5092 -0.8114
vn -0.8114 0.5092 -0.2869
vn 0.3061 0.4859 -0.8187
vn -0.8187 0.4859 -0.3061
vn 0.3178 0.4758 -0.8201
vn 0.0000 -1.0000 -0.0000
vn -0.8201 0.4758 -0.3178
vn 0.2496 0.3601 -0.8989
vn -0.2421 0.5134 -0.8233
vn -0.2737 0.4974 -0.8232
vn -0.2869 0.5092 -0.8114
vn 0.8989 0.3601 -0.2496
vn -0.3061 0.4859 -0.8187
vn 0.0000 1.0000 0.0000
vn -0.3178 0.4758 -0.8201
vn -0.2496 0.3601 -0.8989
vn -0.8989 0.3601 -0.2496
vn 0.8233 0.5134 -0.2421
vn -0.8989 0.3601 0.2496
vn 0.8232 0.4974 -0.2737
vn -0.2496 0.3601 0.8989
vn 0.2496 0.3601 0.8989
vn 0.8114 0.5092 -0.2869
vn 0.8989 0.3601 0.2496
vn 0.8187 0.4859 -0.3061
vn -0.8114 0.5092 0.2869
vn -0.8232 0.4974 0.2737
vn -0.8233 0.5134 0.2421
vn -0.3178 0.4758 0.8201
vn -0.3061 0.4859 0.8187
vn -0.2869 0.5092 0.8114
vn -0.2737 0.4974 0.8232
vn -0.2421 0.5134 0.8233
vn 0.3178 0.4758 0.8201
vn 0.3061 0.4859 0.8187
vn 0.2869 0.5092 0.8114
vn 0.2737 0.4974 0.8232
vn 0.2421 0.5134 0.8233
vn 0.8201 0.4758 0.3178
vn 0.8187 0.4859 0.3061
vn 0.8114 0.5092 0.2869
vn 0.8232 0.4974 0.2737
vn 0.8233 0.5134 0.2421
vn 0.2001 -0.7000 0.6855
vn -0.6855 -0.7000 -0.2001
vn -0.2001 -0.7000 0.6856
vn 0.6855 -0.7000 -0.2001
vn 0.6856 -0.7000 0.2001
vn -0.2001 -0.7000 -0.6856
vn 0.2001 -0.7000 -0.6855
vn -0.6856 -0.7000 0.2001
vn -0.4926 -0.8579 0.1458
vn 0.1458 -0.8579 -0.4926
vn -0.1458 -0.8579 -0.4926
vn 0.4926 -0.8579 0.1458
vn 0.4926 -0.8579 -0.1458
vn -0.1458 -0.8579 0.4926
vn -0.4926 -0.8579 -0.1458
vn 0.1458 -0.8579 0.4926
vn -0.4481 -0.8914 0.0674
vn 0.0674 -0.8914 -0.4481
vn -0.0674 -0.8914 -0.4481
vn 0.4481 -0.8914 0.0674
vn 0.4481 -0.8914 -0.0674
vn -0.0674 -0.8914 0.4481
vn -0.4481 -0.8914 -0.0674
vn 0.0674 -0.8914 0.4481
vn -0.3998 -0.9160 0.0335
vn 0.0335 -0.9160 -0.3998
vn -0.0335 -0.9160 -0.3998
vn 0.3998 -0.9160 0.0335
vn 0.3998 -0.9160 -0.0335
vn -0.0335 -0.9160 0.3998
vn -0.3998 -0.9160 -0.0335
vn 0.0335 -0.9160 0.3998
vn -0.3982 -0.9173 -0.0062
vn -0.0062 -0.9173 -0.3982
vn 0.0062 -0.9173 -0.3982
vn 0.3982 -0.9173 -0.0062
vn 0.3982 -0.9173 0.0062
vn 0.0062 -0.9173 0.3982
vn -0.3982 -0.9173 0.0062
vn -0.0062 -0.9173 0.3982
vn -0.3917 -0.9196 -0.0308
vn -0.0308 -0.9196 -0.3917
vn 0.0308 -0.9196 -0.3917
vn 0.3917 -0.9196 -0.0308
vn 0.3917 -0.9196 0.0308
vn 0.0308 -0.9196 0.3917
vn -0.3917 -0.9196 0.0308
vn -0.0308 -0.9196 0.3917
vn 0.8517 0.3876 0.3528
vn 0.3528 0.3876 0.8517
vn -0.3528 0.3876 0.8517
vn -0.8517 0.3876 0.3528
vn -0.8517 0.3876 -0.3528
vn -0.3528 0.3876 -0.8517
vn 0.8517 0.3876 -0.3528
vn 0.3528 0.3876 -0.8517
vn -0.3341 -0.9425 -0.0000
vn 0.0000 -0.9425 -0.3341
vn 0.3341 -0.9425 -0.0000
vn 0.0000 -0.9425 0.3341
vn 0.3042 0.4515 -0.8388
vn 0.2851 0.4560 -0.8431
vn 0.2508 0.4691 -0.8468
vn 0.2122 0.4452 -0.8699
vn 0.1040 0.4258 -0.8988
vn 0.8388 0.4515 -0.3042
vn 0.8431 0.4560 -0.2851
vn 0.8468 0.4691 -0.2508
vn 0.8699 0.4452 -0.2122
vn 0.8988 0.4258 -0.1040
vn -0.3042 0.4515 -0.8388
vn -0.2851 0.4560 -0.8431
vn -0.2508 0.4691 -0.8468
vn -0.2122 0.4452 -0.8699
vn -0.1040 0.4258 -0.8988
vn -0.8388 0.4515 -0.3042
vn -0.8431 0.4560 -0.2851
vn -0.8468 0.4691 -0.2508
vn -0.8699 0.4452 -0.2122
vn -0.8988 0.4258 -0.1040
vn -0.8388 0.4515 0.3042
vn -0.8431 0.4560 0.2851
vn -0.8468 0.4691 0.2508
vn -0.8699 0.4452 0.2122
vn -0.8988 0.4258 0.1040
vn -0.3042 0.4515 0.8388
vn -0.2851 0.4560 0.8431
vn -0.2508 0.4691 0.8468
vn -0.2122 0.4452 0.8699
vn -0.1040 0.4258 0.8988
vn 0.3042 0.4515 0.8388
vn 0.2851 0.4560 0.8431
vn 0.2508 0.4691 0.8468
vn 0.2122 0.4452 0.8699
vn 0.1040 0.4258 0.8988
vn 0.8388 0.4515 0.3042
vn 0.8431 0.4560 0.2851
vn 0.8468 0.4691 0.2508
vn 0.8699 0.4452 0.2122
vn 0.8988 0.4258 0.1040
vn 0.2251 -0.8811 0.4160
vn -0.4160 -0.8811 -0.2251
vn -0.2251 -0.8811 0.4160
vn 0.4160 -0.8811 -0.2251
vn 0.4160 -0.8811 0.2251
vn -0.2251 -0.8811 -0.4160
vn 0.2251 -0.8811 -0.4160
vn -0.4160 -0.8811 0.2251
vn -0.2627 -0.9541 0.1439
vn 0.1439 -0.9541 -0.2627
vn -0.1439 -0.9541 -0.2627
vn 0.2627 -0.9541 0.1439
vn 0.2627 -0.9541 -0.1439
vn -0.1439 -0.9541 0.2627
vn -0.2627 -0.9541 -0.1439
vn 0.1439 -0.9541 0.2627
vn -0.2782 -0.9567 0.0851
vn 0.0851 -0.9567 -0.2782
vn -0.0851 -0.9567 -0.2782
vn 0.2782 -0.9567 0.0851
vn 0.2782 -0.9567 -0.0851
vn -0.0851 -0.9567 0.2782
vn -0.2782 -0.9567 -0.0851
vn 0.0851 -0.9567 0.2782
vn -0.2623 -0.9635 0.0536
vn 0.0536 -0.9635 -0.2623
vn -0.0536 -0.9635 -0.2623
vn 0.2623 -0.9635 0.0536
vn 0.2623 -0.9635 -0.0536
vn -0.0536 -0.9635 0.2623
vn -0.2623 -0.9635 -0.0536
vn 0.0536 -0.9635 0.2623
vn -0.2875 -0.9576 0.0180
vn 0.0180 -0.9576 -0.2875
vn -0.0180 -0.9576 -0.2875
vn 0.2875 -0.9576 0.0180
vn 0.2875 -0.9576 -0.0180
vn -0.0180 -0.9576 0.2875
vn -0.2875 -0.9576 -0.0180
vn 0.0180 -0.9576 0.2875
vn -0.2986 -0.9544 -0.0000
vn -0.2986 -0.9544 -0.0066
vn -0.0066 -0.9544 -0.2986
vn 0.0000 -0.9544 -0.2986
vn 0.0066 -0.9544 -0.2986
vn 0.2986 -0.9544 -0.0066
vn 0.2986 -0.9544 -0.0000
vn 0.2986 -0.9544 0.0066
vn 0.0066 -0.9544 0.2986
vn -0.0000 -0.9544 0.2986
vn -0.2986 -0.9544 0.0066
vn -0.0066 -0.9544 0.2986
usemtl vegetation.001
s 1
f 57/1/1 48/2/1 49/3/1
f 56/4/2 46/5/2 47/6/2
f 22/7/3 31/8/3 32/9/3
f 54/10/4 45/11/4 55/12/4
f 28/13/5 29/14/5 30/15/5
f 52/16/6 44/17/6 53/18/6
f 25/19/7 26/20/7 27/21/7
f 4/22/8 3/23/8 1/24/8
f 50/25/9 43/26/9 51/27/9
f 15/28/10 6/29/10 5/30/10
f 48/2/11 42/31/11 49/3/11
f 23/32/12 22/33/12 17/34/12
f 8/35/13 7/36/13 2/37/13
f 46/5/14 41/38/14 47/6/14
f 11/39/15 9/40/15 10/41/15
f 45/42/16 28/13/16 30/15/16
f 44/43/17 25/19/17 27/21/17
f 43/44/18 4/22/18 1/24/18
f 9/45/19 24/46/19 20/47/19
f 42/48/20 15/28/20 5/30/20
f 11/49/21 14/50/21 19/51/21
f 41/52/22 23/32/22 17/34/22
f 12/53/23 11/39/23 10/41/23
f 14/54/24 12/55/24 13/56/24
f 29/57/25 39/58/25 40/59/25
f 16/60/26 14/54/26 13/56/26
f 26/61/27 37/62/27 38/63/27
f 19/64/28 16/65/28 18/66/28
f 21/67/29 19/64/29 18/66/29
f 3/68/30 35/69/30 36/70/30
f 24/46/31 21/71/31 20/47/31
f 6/72/32 33/73/32 34/74/32
f 58/75/33 50/25/33 51/27/33
f 59/76/34 52/16/34 53/18/34
f 60/77/35 54/10/35 55/12/35
f 61/78/36 56/79/36 62/80/36
f 63/81/37 57/82/37 64/83/37
f 65/84/38 58/85/38 66/86/38
f 67/87/39 59/88/39 68/89/39
f 69/90/40 60/91/40 70/92/40
f 71/93/41 61/78/41 62/80/41
f 72/94/42 63/81/42 64/83/42
f 73/95/43 65/84/43 66/86/43
f 74/96/44 67/87/44 68/89/44
f 75/97/45 69/90/45 70/92/45
f 31/8/46 71/98/46 32/9/46
f 33/73/47 72/99/47 34/74/47
f 35/69/48 73/100/48 36/70/48
f 37/62/49 74/101/49 38/63/49
f 39/58/50 75/102/50 40/59/50
f 28/103/51 9/104/51 76/105/51
f 9/104/52 39/106/52 76/105/52
f 12/107/53 28/103/53 77/108/53
f 54/109/54 12/107/54 77/108/54
f 16/110/55 54/109/55 78/111/55
f 69/112/56 16/110/56 78/111/56
f 21/113/57 69/112/57 79/114/57
f 39/106/58 21/113/58 79/114/58
f 37/115/59 75/116/59 80/117/59
f 75/116/60 67/118/60 80/117/60
f 67/118/61 60/119/61 81/120/61
f 60/119/62 52/121/62 81/120/62
f 52/121/63 45/122/63 82/123/63
f 45/122/64 25/124/64 82/123/64
f 29/125/65 37/115/65 83/126/65
f 25/124/66 29/125/66 83/126/66
f 35/127/67 74/128/67 84/129/67
f 74/128/68 65/130/68 84/129/68
f 65/130/69 59/131/69 85/132/69
f 59/131/70 50/133/70 85/132/70
f 50/133/71 44/134/71 86/135/71
f 44/134/72 4/136/72 86/135/72
f 26/137/73 35/127/73 87/138/73
f 4/136/74 26/137/74 87/138/74
f 33/139/75 73/140/75 88/141/75
f 73/140/76 63/142/76 88/141/76
f 63/142/77 58/143/77 89/144/77
f 58/143/78 48/145/78 89/144/78
f 48/145/79 43/146/79 90/147/79
f 43/146/80 15/148/80 90/147/80
f 3/149/81 33/139/81 91/150/81
f 15/148/82 3/149/82 91/150/82
f 31/151/83 72/152/83 92/153/83
f 72/152/84 61/154/84 92/153/84
f 61/154/85 57/155/85 93/156/85
f 57/155/86 46/157/86 93/156/86
f 46/157/87 42/158/87 94/159/87
f 42/158/88 23/160/88 94/159/88
f 6/161/89 31/151/89 95/162/89
f 23/160/90 6/161/90 95/162/90
f 96/163/91 71/164/91 97/165/91
f 71/164/92 98/166/92 97/165/92
f 98/166/93 56/167/93 8/35/93
f 56/167/94 99/168/94 8/35/94
f 99/168/95 41/169/95 7/36/95
f 41/169/96 100/170/96 7/36/96
f 22/171/97 96/163/97 2/37/97
f 100/170/98 22/171/98 2/37/98
f 24/46/99 101/172/99 21/71/99
f 21/67/100 101/173/100 19/64/100
f 19/64/101 102/174/101 16/65/101
f 16/60/102 102/175/102 14/54/102
f 14/54/103 103/176/103 12/55/103
f 12/53/104 103/177/104 11/39/104
f 19/51/21 101/178/21 24/179/21
f 24/179/21 104/180/21 11/49/21
f 11/49/21 103/181/21 14/50/21
f 14/50/21 102/182/21 19/51/21
f 19/51/21 24/179/21 11/49/21
f 9/45/105 104/183/105 24/46/105
f 11/39/106 104/184/106 9/40/106
f 2/37/107 96/163/107 97/165/107
f 97/165/108 98/166/108 8/35/108
f 8/35/109 99/168/109 7/36/109
f 7/36/110 100/170/110 2/37/110
f 2/37/13 97/165/13 8/35/13
f 23/32/111 95/185/111 22/33/111
f 15/28/112 91/186/112 6/29/112
f 4/22/113 87/187/113 3/23/113
f 25/19/114 83/188/114 26/20/114
f 28/13/115 76/189/115 29/14/115
f 22/7/116 95/190/116 31/8/116
f 6/72/117 91/191/117 33/73/117
f 3/68/118 87/192/118 35/69/118
f 26/61/119 83/193/119 37/62/119
f 29/57/120 76/194/120 39/58/120
f 41/52/121 94/195/121 23/32/121
f 42/48/122 90/196/122 15/28/122
f 43/44/123 86/197/123 4/22/123
f 44/43/124 82/198/124 25/19/124
f 45/42/125 77/199/125 28/13/125
f 46/5/126 94/200/126 41/38/126
f 48/2/127 90/201/127 42/31/127
f 50/25/128 86/202/128 43/26/128
f 52/16/129 82/203/129 44/17/129
f 54/10/130 77/204/130 45/11/130
f 56/4/131 93/205/131 46/5/131
f 57/1/132 89/206/132 48/2/132
f 58/75/133 85/207/133 50/25/133
f 59/76/134 81/208/134 52/16/134
f 60/77/135 78/209/135 54/10/135
f 61/78/136 93/210/136 56/79/136
f 63/81/137 89/211/137 57/82/137
f 65/84/138 85/212/138 58/85/138
f 67/87/139 81/213/139 59/88/139
f 69/90/140 78/214/140 60/91/140
f 71/93/141 92/215/141 61/78/141
f 72/94/142 88/216/142 63/81/142
f 73/95/143 84/217/143 65/84/143
f 74/96/144 80/218/144 67/87/144
f 75/97/145 79/219/145 69/90/145
f 31/8/146 92/220/146 71/98/146
f 33/73/147 88/221/147 72/99/147
f 35/69/148 84/222/148 73/100/148
f 37/62/149 80/223/149 74/101/149
f 39/58/150 79/224/150 75/102/150
f 28/103/151 10/225/151 9/104/151
f 9/104/152 20/226/152 39/106/152
f 12/107/153 10/225/153 28/103/153
f 54/109/154 13/227/154 12/107/154
f 16/110/155 13/227/155 54/109/155
f 69/112/156 18/228/156 16/110/156
f 21/113/157 18/228/157 69/112/157
f 39/106/158 20/226/158 21/113/158
f 37/115/159 40/229/159 75/116/159
f 75/116/160 70/230/160 67/118/160
f 67/118/161 70/230/161 60/119/161
f 60/119/162 55/231/162 52/121/162
f 52/121/163 55/231/163 45/122/163
f 45/122/164 30/232/164 25/124/164
f 29/125/165 40/229/165 37/115/165
f 25/124/166 30/232/166 29/125/166
f 35/127/167 38/233/167 74/128/167
f 74/128/168 68/234/168 65/130/168
f 65/130/169 68/234/169 59/131/169
f 59/131/170 53/235/170 50/133/170
f 50/133/171 53/235/171 44/134/171
f 44/134/172 27/236/172 4/136/172
f 26/137/173 38/233/173 35/127/173
f 4/136/174 27/236/174 26/137/174
f 33/139/175 36/237/175 73/140/175
f 73/140/176 66/238/176 63/142/176
f 63/142/177 66/238/177 58/143/177
f 58/143/178 51/239/178 48/145/178
f 48/145/179 51/239/179 43/146/179
f 43/146/180 1/240/180 15/148/180
f 3/149/181 36/237/181 33/139/181
f 15/148/182 1/240/182 3/149/182
f 31/151/183 34/241/183 72/152/183
f 72/152/184 64/242/184 61/154/184
f 61/154/185 64/242/185 57/155/185
f 57/155/186 49/243/186 46/157/186
f 46/157/187 49/243/187 42/158/187
f 42/158/188 5/244/188 23/160/188
f 6/161/189 34/241/189 31/151/189
f 23/160/190 5/244/190 6/161/190
f 96/163/191 32/245/191 71/164/192
f 71/164/193 62/246/194 98/166/194
f 98/166/194 62/246/194 56/167/195
f 56/167/196 47/247/197 99/168/197
f 99/168/197 47/247/197 41/169/198
f 41/248/199 17/249/200 100/250/200
f 22/171/201 32/245/191 96/163/191
f 100/250/200 17/249/200 22/251/202
