# Blender v2.81 (sub 16) OBJ File: ''
# www.blender.org
mtllib windmillWings.mtl
o windmill_Mesh.001
v -0.471598 -1.439379 4.245530
v -0.500899 -1.451086 4.759068
v -0.520894 -1.401475 4.759068
v -0.491592 -1.389767 4.245530
v -0.079051 -1.224941 4.759068
v -0.120276 -1.241412 4.245530
v -0.059057 -1.274552 4.759068
v -0.100281 -1.291023 4.245530
v -0.542226 -1.409998 5.310855
v -0.054096 -1.214970 5.310855
v -0.034101 -1.264582 5.310855
v -0.010966 -1.197738 5.831357
v 0.009029 -1.247350 5.831357
v -0.522231 -1.459609 5.310855
v -0.579089 -1.424726 5.831357
v -0.559094 -1.474337 5.831357
v -0.297219 -1.398534 4.083827
v -0.297219 -1.398534 5.644765
v -0.334553 -1.299732 5.644765
v -0.334553 -1.299732 4.083827
v -0.237714 -1.261642 5.644765
v -0.237714 -1.261642 4.083827
v -0.200381 -1.360444 5.644765
v -0.200381 -1.360444 4.083827
v -0.418471 -1.427532 3.813915
v -0.418471 -1.427532 4.105100
v -0.418471 -0.278698 4.105100
v -0.418471 -0.278698 3.813915
v -0.120052 -0.278698 4.105100
v -0.120052 -0.278698 3.813915
v -0.120052 -1.427532 4.105100
v -0.120052 -1.427532 3.813915
v 0.018687 -1.432632 4.169212
v 0.532424 -1.444339 4.194784
v 0.532570 -1.394728 4.214778
v 0.018833 -1.383020 4.189207
v 0.529361 -1.218194 3.772947
v 0.016136 -1.234665 3.817900
v 0.529216 -1.267806 3.752953
v 0.015991 -1.284276 3.797906
v 1.084498 -1.403251 4.232103
v 1.080953 -1.208223 3.743986
v 1.080808 -1.257835 3.723991
v 1.601127 -1.190991 3.697077
v 1.600982 -1.240603 3.677082
v 1.084352 -1.452862 4.212109
v 1.605253 -1.417979 4.265185
v 1.605108 -1.467590 4.245191
v -0.144278 -1.391787 3.996013
v 1.416620 -1.391787 3.984678
v 1.416891 -1.292985 4.022010
v -0.144006 -1.292985 4.033346
v 1.416187 -1.254895 3.925174
v -0.144710 -1.254895 3.936510
v 1.415916 -1.353697 3.887842
v -0.144981 -1.353697 3.899177
v -0.566360 -1.432632 3.752296
v -1.079800 -1.444339 3.721334
v -1.079736 -1.394728 3.701339
v -0.566295 -1.383020 3.732301
v -1.081164 -1.218194 4.143180
v -0.567496 -1.234665 4.103616
v -1.081229 -1.267806 4.163174
v -0.567561 -1.284276 4.123611
v -1.631452 -1.403250 3.678223
v -1.633030 -1.208223 4.166351
v -1.633095 -1.257835 4.186345
v -2.153668 -1.190991 4.207798
v -2.153733 -1.240603 4.227792
v -1.631516 -1.452861 3.698218
v -2.151831 -1.417979 3.639677
v -2.151896 -1.467589 3.659672
v -0.405222 -1.391787 3.927197
v -1.966152 -1.391787 3.922149
v -1.966031 -1.292985 3.884816
v -0.405101 -1.292985 3.889863
v -1.966344 -1.254895 3.981654
v -0.405414 -1.254895 3.986701
v -1.966465 -1.353697 4.018987
v -0.405535 -1.353697 4.024035
v -0.066265 -1.435010 3.657135
v -0.039629 -1.446716 3.143453
v -0.019635 -1.397105 3.143349
v -0.046270 -1.385399 3.657032
v -0.461471 -1.220572 3.145642
v -0.417582 -1.237043 3.658959
v -0.481466 -1.270183 3.145746
v -0.437577 -1.286654 3.659063
v -0.001167 -1.405628 2.591458
v -0.489290 -1.210601 2.593992
v -0.509285 -1.260212 2.594095
v -0.535122 -1.193368 2.073721
v -0.555116 -1.242980 2.073825
v -0.021161 -1.455240 2.591562
v 0.032994 -1.420356 2.070772
v 0.013000 -1.469967 2.070876
v -0.239802 -1.394165 3.819741
v -0.247903 -1.394164 2.258824
v -0.210570 -1.295362 2.258630
v -0.202469 -1.295363 3.819547
v -0.307408 -1.257272 2.259133
v -0.299306 -1.257273 3.820050
v -0.344740 -1.356074 2.259327
v -0.336639 -1.356075 3.820244
vt 0.212389 0.274799
vt 0.212371 0.347745
vt 0.195210 0.347531
vt 0.195135 0.274750
vt 0.253433 0.400216
vt 0.253211 0.509880
vt 0.174862 0.509599
vt 0.174186 0.400028
vt 0.213416 0.275926
vt 0.213701 0.347273
vt 0.195361 0.347442
vt 0.195865 0.276079
vt 0.253037 0.400458
vt 0.253204 0.509984
vt 0.174703 0.509434
vt 0.174463 0.399919
vt 0.194836 0.346661
vt 0.195325 0.277592
vt 0.212728 0.277678
vt 0.212728 0.346258
vt 0.252818 0.400399
vt 0.174635 0.400220
vt 0.195624 0.275986
vt 0.213406 0.275963
vt 0.213702 0.347272
vt 0.195670 0.347287
vt 0.212424 0.274784
vt 0.195133 0.274717
vt 0.253166 0.400643
vt 0.174099 0.400104
vt 0.194382 0.343677
vt 0.194382 0.276886
vt 0.219678 0.276911
vt 0.219678 0.343702
vt 0.212529 0.347439
vt 0.195221 0.347679
vt 0.253113 0.509953
vt 0.174894 0.509599
vt 0.253017 0.510042
vt 0.174571 0.509966
vt 0.249679 0.276750
vt 0.249238 0.348013
vt 0.196189 0.347572
vt 0.196630 0.276309
vt 0.249472 0.276528
vt 0.249467 0.347792
vt 0.196417 0.347787
vt 0.196422 0.276522
vt 0.250201 0.276298
vt 0.250133 0.347492
vt 0.197154 0.347423
vt 0.197222 0.276229
vt 0.196443 0.347814
vt 0.196387 0.276549
vt 0.249437 0.276493
vt 0.249493 0.347758
vt 0.194342 0.098310
vt 0.250496 0.098310
vt 0.250496 0.154464
vt 0.194342 0.154464
vt 0.194341 0.098292
vt 0.250495 0.098292
vt 0.250495 0.154446
vt 0.194341 0.154446
vt 0.193627 0.274446
vt 0.252953 0.274446
vt 0.252953 0.346174
vt 0.193627 0.346174
vt 0.192287 0.098047
vt 0.251576 0.098047
vt 0.251576 0.154260
vt 0.192287 0.154260
vt 0.193627 0.274446
vt 0.252953 0.274446
vt 0.252953 0.346174
vt 0.193627 0.346174
vt 0.192077 0.098302
vt 0.251981 0.098302
vt 0.251366 0.154516
vt 0.191462 0.154516
vt 0.252953 0.274446
vt 0.252953 0.346174
vt 0.193627 0.274446
vt 0.193627 0.346174
vt 0.212389 0.274799
vt 0.212371 0.347745
vt 0.195210 0.347531
vt 0.195135 0.274750
vt 0.253433 0.400216
vt 0.253211 0.509880
vt 0.174862 0.509599
vt 0.174186 0.400028
vt 0.213416 0.275926
vt 0.213701 0.347273
vt 0.195361 0.347442
vt 0.195865 0.276079
vt 0.253037 0.400458
vt 0.253204 0.509984
vt 0.174703 0.509434
vt 0.174463 0.399919
vt 0.194836 0.346661
vt 0.195325 0.277592
vt 0.212728 0.277678
vt 0.212728 0.346258
vt 0.252818 0.400399
vt 0.174635 0.400220
vt 0.195624 0.275986
vt 0.213406 0.275963
vt 0.213702 0.347272
vt 0.195670 0.347287
vt 0.212424 0.274784
vt 0.195133 0.274717
vt 0.253166 0.400643
vt 0.174099 0.400104
vt 0.194382 0.343677
vt 0.194382 0.276886
vt 0.219678 0.276911
vt 0.219678 0.343702
vt 0.212529 0.347439
vt 0.195221 0.347679
vt 0.253113 0.509953
vt 0.174894 0.509599
vt 0.253017 0.510042
vt 0.174571 0.509966
vt 0.249679 0.276750
vt 0.249238 0.348013
vt 0.196189 0.347572
vt 0.196630 0.276309
vt 0.249472 0.276528
vt 0.249467 0.347792
vt 0.196417 0.347787
vt 0.196422 0.276522
vt 0.250201 0.276298
vt 0.250133 0.347492
vt 0.197154 0.347423
vt 0.197222 0.276229
vt 0.196443 0.347814
vt 0.196387 0.276549
vt 0.249437 0.276493
vt 0.249493 0.347758
vt 0.194342 0.098310
vt 0.250496 0.098310
vt 0.250496 0.154464
vt 0.194342 0.154464
vt 0.194341 0.098292
vt 0.250495 0.098292
vt 0.250495 0.154446
vt 0.194341 0.154446
vt 0.212389 0.274799
vt 0.212371 0.347745
vt 0.195210 0.347531
vt 0.195135 0.274750
vt 0.253433 0.400216
vt 0.253211 0.509880
vt 0.174862 0.509599
vt 0.174186 0.400028
vt 0.213416 0.275926
vt 0.213701 0.347273
vt 0.195361 0.347442
vt 0.195865 0.276079
vt 0.253037 0.400458
vt 0.253204 0.509984
vt 0.174703 0.509434
vt 0.174463 0.399919
vt 0.194836 0.346661
vt 0.195325 0.277592
vt 0.212728 0.277678
vt 0.212728 0.346258
vt 0.252818 0.400399
vt 0.174635 0.400220
vt 0.195624 0.275986
vt 0.213406 0.275963
vt 0.213702 0.347272
vt 0.195670 0.347287
vt 0.212424 0.274784
vt 0.195133 0.274717
vt 0.253166 0.400643
vt 0.174099 0.400104
vt 0.194382 0.343677
vt 0.194382 0.276886
vt 0.219678 0.276911
vt 0.219678 0.343702
vt 0.212529 0.347439
vt 0.195221 0.347679
vt 0.253113 0.509953
vt 0.174894 0.509599
vt 0.253017 0.510042
vt 0.174571 0.509966
vt 0.249679 0.276750
vt 0.249238 0.348013
vt 0.196189 0.347572
vt 0.196630 0.276309
vt 0.249472 0.276528
vt 0.249467 0.347792
vt 0.196417 0.347787
vt 0.196422 0.276522
vt 0.250201 0.276298
vt 0.250133 0.347492
vt 0.197154 0.347423
vt 0.197222 0.276229
vt 0.196443 0.347814
vt 0.196387 0.276549
vt 0.249437 0.276493
vt 0.249493 0.347758
vt 0.194342 0.098310
vt 0.250496 0.098310
vt 0.250496 0.154464
vt 0.194342 0.154464
vt 0.194341 0.098292
vt 0.250495 0.098292
vt 0.250495 0.154446
vt 0.194341 0.154446
vt 0.212389 0.274799
vt 0.212371 0.347745
vt 0.195210 0.347531
vt 0.195135 0.274750
vt 0.253433 0.400216
vt 0.253211 0.509880
vt 0.174862 0.509599
vt 0.174186 0.400028
vt 0.213416 0.275926
vt 0.213701 0.347273
vt 0.195361 0.347442
vt 0.195865 0.276079
vt 0.253037 0.400458
vt 0.253204 0.509984
vt 0.174703 0.509434
vt 0.174463 0.399919
vt 0.194836 0.346661
vt 0.195325 0.277592
vt 0.212728 0.277678
vt 0.212728 0.346258
vt 0.252818 0.400399
vt 0.174635 0.400220
vt 0.195624 0.275986
vt 0.213406 0.275963
vt 0.213702 0.347272
vt 0.195670 0.347287
vt 0.212424 0.274784
vt 0.195133 0.274717
vt 0.253166 0.400643
vt 0.174099 0.400104
vt 0.194382 0.343677
vt 0.194382 0.276886
vt 0.219678 0.276911
vt 0.219678 0.343702
vt 0.212529 0.347439
vt 0.195221 0.347679
vt 0.253113 0.509953
vt 0.174894 0.509599
vt 0.253017 0.510042
vt 0.174571 0.509966
vt 0.249679 0.276750
vt 0.249238 0.348013
vt 0.196189 0.347572
vt 0.196630 0.276309
vt 0.249472 0.276528
vt 0.249467 0.347792
vt 0.196417 0.347787
vt 0.196422 0.276522
vt 0.250201 0.276298
vt 0.250133 0.347492
vt 0.197154 0.347423
vt 0.197222 0.276229
vt 0.196443 0.347814
vt 0.196387 0.276549
vt 0.249437 0.276493
vt 0.249493 0.347758
vt 0.194342 0.098310
vt 0.250496 0.098310
vt 0.250496 0.154464
vt 0.194342 0.154464
vt 0.194341 0.098292
vt 0.250495 0.098292
vt 0.250495 0.154446
vt 0.194341 0.154446
vn -0.9258 -0.3731 -0.0613
vn -0.3710 0.9286 0.0000
vn 0.9241 0.3724 -0.0861
vn 0.3710 -0.9286 0.0000
vn 0.0000 0.0000 -1.0000
vn 0.9238 0.3723 -0.0889
vn 0.9264 0.3734 -0.0486
vn -0.9267 -0.3735 -0.0416
vn 0.0000 -0.0000 1.0000
vn -0.9248 -0.3727 -0.0760
vn -0.9354 -0.3535 -0.0000
vn -0.3660 0.9306 0.0000
vn 0.9354 0.3535 0.0000
vn 0.3660 -0.9306 -0.0000
vn -1.0000 0.0000 0.0000
vn 0.0000 1.0000 0.0000
vn 1.0000 -0.0000 -0.0000
vn -0.0000 -1.0000 -0.0000
vn -0.0546 -0.3731 0.9262
vn 0.0027 0.9286 0.3710
vn -0.0928 0.3724 -0.9234
vn -0.0027 -0.9286 -0.3710
vn -1.0000 0.0000 0.0073
vn -0.0956 0.3723 -0.9232
vn -0.0554 0.3734 -0.9260
vn -0.0349 -0.3735 0.9270
vn 1.0000 0.0000 -0.0073
vn -0.0693 -0.3727 0.9253
vn 0.0068 -0.3535 0.9354
vn 0.0027 0.9306 0.3660
vn -0.0068 0.3535 -0.9354
vn -0.0027 -0.9306 -0.3660
vn 0.0643 -0.3731 -0.9256
vn 0.0012 0.9286 -0.3710
vn 0.0831 0.3724 0.9243
vn -0.0012 -0.9286 0.3710
vn 1.0000 -0.0000 0.0032
vn 0.0859 0.3723 0.9241
vn 0.0456 0.3734 0.9266
vn 0.0446 -0.3735 -0.9266
vn -1.0000 0.0000 -0.0032
vn 0.0790 -0.3727 -0.9246
vn 0.0030 -0.3535 -0.9354
vn 0.0012 0.9306 -0.3660
vn -0.0030 0.3535 0.9354
vn -0.0012 -0.9306 0.3660
vn 0.9261 -0.3731 0.0565
vn 0.3710 0.9286 -0.0019
vn -0.9236 0.3724 0.0909
vn -0.3710 -0.9286 0.0019
vn 0.0052 -0.0000 1.0000
vn -0.9234 0.3723 0.0937
vn -0.9261 0.3734 0.0535
vn 0.9269 -0.3735 0.0368
vn -0.0052 -0.0000 -1.0000
vn 0.9252 -0.3727 0.0712
vn 0.9354 -0.3535 -0.0049
vn 0.3660 0.9306 -0.0019
vn -0.9354 0.3535 0.0049
vn -0.3660 -0.9306 0.0019
g windmill_Mesh.001_windmill_Mesh.001_TT_RTS_Buildings_mat
usemtl TT_RTS_Buildings_mat
s 1
f 1/1/1 2/2/1 3/3/1 4/4/1
f 4/5/2 3/6/2 5/7/2 6/8/2
f 6/9/3 5/10/3 7/11/3 8/12/3
f 8/13/4 7/14/4 2/15/4 1/16/4
f 4/17/5 6/18/5 8/19/5 1/20/5
f 5/7/2 3/6/2 9/21/2 10/22/2
f 11/23/6 10/24/6 12/25/6 13/26/6
f 7/11/7 5/10/7 10/24/7 11/23/7
f 3/3/8 2/2/8 14/27/8 9/28/8
f 2/15/4 7/14/4 11/29/4 14/30/4
f 12/31/9 15/32/9 16/33/9 13/34/9
f 9/28/10 14/27/10 16/35/10 15/36/10
f 14/30/4 11/29/4 13/37/4 16/38/4
f 10/22/2 9/21/2 15/39/2 12/40/2
f 17/41/11 18/42/11 19/43/11 20/44/11
f 20/45/12 19/46/12 21/47/12 22/48/12
f 22/49/13 21/50/13 23/51/13 24/52/13
f 24/53/14 23/54/14 18/55/14 17/56/14
f 20/57/5 22/58/5 24/59/5 17/60/5
f 21/61/9 19/62/9 18/63/9 23/64/9
f 25/65/15 26/66/15 27/67/15 28/68/15
f 28/69/16 27/70/16 29/71/16 30/72/16
f 30/73/17 29/74/17 31/75/17 32/76/17
f 32/77/18 31/78/18 26/79/18 25/80/18
f 28/81/5 30/73/5 32/76/5 25/82/5
f 29/74/9 27/83/9 26/84/9 31/75/9
f 33/85/19 34/86/19 35/87/19 36/88/19
f 36/89/20 35/90/20 37/91/20 38/92/20
f 38/93/21 37/94/21 39/95/21 40/96/21
f 40/97/22 39/98/22 34/99/22 33/100/22
f 36/101/23 38/102/23 40/103/23 33/104/23
f 37/91/20 35/90/20 41/105/20 42/106/20
f 43/107/24 42/108/24 44/109/24 45/110/24
f 39/95/25 37/94/25 42/108/25 43/107/25
f 35/87/26 34/86/26 46/111/26 41/112/26
f 34/99/22 39/98/22 43/113/22 46/114/22
f 44/115/27 47/116/27 48/117/27 45/118/27
f 41/112/28 46/111/28 48/119/28 47/120/28
f 46/114/22 43/113/22 45/121/22 48/122/22
f 42/106/20 41/105/20 47/123/20 44/124/20
f 49/125/29 50/126/29 51/127/29 52/128/29
f 52/129/30 51/130/30 53/131/30 54/132/30
f 54/133/31 53/134/31 55/135/31 56/136/31
f 56/137/32 55/138/32 50/139/32 49/140/32
f 52/141/23 54/142/23 56/143/23 49/144/23
f 53/145/27 51/146/27 50/147/27 55/148/27
f 57/149/33 58/150/33 59/151/33 60/152/33
f 60/153/34 59/154/34 61/155/34 62/156/34
f 62/157/35 61/158/35 63/159/35 64/160/35
f 64/161/36 63/162/36 58/163/36 57/164/36
f 60/165/37 62/166/37 64/167/37 57/168/37
f 61/155/34 59/154/34 65/169/34 66/170/34
f 67/171/38 66/172/38 68/173/38 69/174/38
f 63/159/39 61/158/39 66/172/39 67/171/39
f 59/151/40 58/150/40 70/175/40 65/176/40
f 58/163/36 63/162/36 67/177/36 70/178/36
f 68/179/41 71/180/41 72/181/41 69/182/41
f 65/176/42 70/175/42 72/183/42 71/184/42
f 70/178/36 67/177/36 69/185/36 72/186/36
f 66/170/34 65/169/34 71/187/34 68/188/34
f 73/189/43 74/190/43 75/191/43 76/192/43
f 76/193/44 75/194/44 77/195/44 78/196/44
f 78/197/45 77/198/45 79/199/45 80/200/45
f 80/201/46 79/202/46 74/203/46 73/204/46
f 76/205/37 78/206/37 80/207/37 73/208/37
f 77/209/41 75/210/41 74/211/41 79/212/41
f 81/213/47 82/214/47 83/215/47 84/216/47
f 84/217/48 83/218/48 85/219/48 86/220/48
f 86/221/49 85/222/49 87/223/49 88/224/49
f 88/225/50 87/226/50 82/227/50 81/228/50
f 84/229/51 86/230/51 88/231/51 81/232/51
f 85/219/48 83/218/48 89/233/48 90/234/48
f 91/235/52 90/236/52 92/237/52 93/238/52
f 87/223/53 85/222/53 90/236/53 91/235/53
f 83/215/54 82/214/54 94/239/54 89/240/54
f 82/227/50 87/226/50 91/241/50 94/242/50
f 92/243/55 95/244/55 96/245/55 93/246/55
f 89/240/56 94/239/56 96/247/56 95/248/56
f 94/242/50 91/241/50 93/249/50 96/250/50
f 90/234/48 89/233/48 95/251/48 92/252/48
f 97/253/57 98/254/57 99/255/57 100/256/57
f 100/257/58 99/258/58 101/259/58 102/260/58
f 102/261/59 101/262/59 103/263/59 104/264/59
f 104/265/60 103/266/60 98/267/60 97/268/60
f 100/269/51 102/270/51 104/271/51 97/272/51
f 101/273/55 99/274/55 98/275/55 103/276/55
