# Blender v2.81 (sub 16) OBJ File: 'TinyWorldAdventureBackpack.blend'
# www.blender.org
mtllib adventureBackpack.mtl
o backpack_Cube.001
v 0.326475 0.270173 0.209581
v 0.143022 0.270173 0.232586
v 0.346565 0.270173 0.369784
v 0.163112 0.270173 0.392789
v 0.350912 0.270173 0.287878
v 0.231768 0.270173 0.197309
v 0.133224 0.270173 0.315176
v 0.257897 0.270173 0.405674
v 0.326475 0.150203 0.209581
v 0.231768 0.150203 0.197309
v 0.346565 0.150203 0.369784
v 0.350912 0.150203 0.287878
v 0.163112 0.150203 0.392789
v 0.257897 0.150203 0.405674
v 0.143022 0.150203 0.232586
v 0.133224 0.150203 0.315176
v 0.244832 0.264221 0.301492
v 0.133224 0.270173 0.315176
v 0.163112 0.270173 0.392789
v 0.257897 0.270173 0.405674
v 0.346565 0.270173 0.369784
v 0.231768 0.270173 0.197309
v 0.143022 0.270173 0.232586
v 0.350912 0.270173 0.287878
v 0.326475 0.270173 0.209581
v 0.094646 0.160108 0.243113
v 0.157224 0.000000 -0.195148
v 0.014003 0.000000 0.209158
v 0.014003 0.000000 -0.195148
v 0.094646 0.000000 0.253467
v 0.123919 0.139498 -0.188779
v 0.014003 0.160477 0.209158
v 0.014003 0.138762 -0.187329
v 0.226642 0.000000 -0.117615
v 0.175834 0.197648 -0.112824
v 0.271446 0.000000 -0.016509
v 0.224972 0.239605 -0.013271
v 0.271446 0.000000 0.094015
v 0.228926 0.254327 0.089846
v 0.193115 0.215314 0.195175
v 0.221296 0.000000 0.201002
v 0.094646 0.080577 0.251241
v 0.214990 0.108180 0.201002
v 0.261747 0.127686 0.094015
v 0.265345 0.120326 -0.016509
v 0.218108 0.099347 -0.117615
v 0.150620 0.070272 -0.192693
v 0.014003 0.069904 -0.192754
v 0.045286 0.214612 0.172603
v 0.067369 0.252643 0.083659
v 0.063688 0.236694 -0.012645
v 0.046803 0.199276 -0.113856
v 0.014003 0.149620 0.010915
v 0.014003 0.155049 0.110037
v 0.014003 0.144191 -0.088207
v 0.014003 0.149620 0.010915
v 0.069301 0.291526 -0.090208
v 0.183031 0.294619 -0.089526
v 0.062759 0.200841 -0.044535
v 0.179249 0.196096 -0.043975
v 0.074041 0.314832 -0.019961
v 0.180534 0.316195 -0.019279
v 0.189200 0.222339 0.013767
v 0.065514 0.227084 0.013206
v 0.159100 0.235714 -0.140016
v 0.074800 0.232758 -0.138165
v 0.178405 0.168090 -0.105593
v 0.061915 0.172835 -0.106154
v 0.221958 0.181253 0.145424
v 0.087614 0.240216 0.049216
v 0.165355 0.237234 0.049568
v 0.087614 0.240216 0.049216
v 0.074041 0.314832 -0.019961
v 0.165355 0.237234 0.049568
v 0.180534 0.316195 -0.019279
v 0.069301 0.291526 -0.090208
v 0.183031 0.294619 -0.089526
v 0.180534 0.316195 -0.019279
v 0.074041 0.314832 -0.019961
v 0.326259 0.000000 0.209583
v 0.142806 0.000000 0.232589
v 0.346349 0.000000 0.369786
v 0.162895 0.000000 0.392792
v 0.326475 -0.270173 0.209581
v 0.143022 -0.270173 0.232586
v 0.346565 -0.270173 0.369784
v 0.163112 -0.270173 0.392789
v 0.257351 0.000000 0.403050
v 0.231917 0.000000 0.200234
v 0.353338 0.000000 0.287549
v 0.132930 0.000000 0.315188
v 0.350912 -0.270173 0.287878
v 0.231768 -0.270173 0.197309
v 0.133224 -0.270173 0.315176
v 0.257897 -0.270173 0.405674
v 0.326475 -0.150203 0.209581
v 0.231768 -0.150203 0.197309
v 0.346565 -0.150203 0.369784
v 0.350912 -0.150203 0.287878
v 0.163112 -0.150203 0.392789
v 0.257897 -0.150203 0.405674
v 0.143022 -0.150203 0.232586
v 0.133224 -0.150203 0.315176
v 0.244832 -0.264221 0.301492
v 0.133224 -0.270173 0.315176
v 0.163112 -0.270173 0.392789
v 0.257897 -0.270173 0.405674
v 0.346565 -0.270173 0.369784
v 0.231768 -0.270173 0.197309
v 0.143022 -0.270173 0.232586
v 0.350912 -0.270173 0.287878
v 0.326475 -0.270173 0.209581
v 0.094646 -0.160108 0.243113
v 0.123919 -0.139498 -0.188779
v 0.014003 -0.160477 0.209158
v 0.014003 -0.138762 -0.187329
v 0.175834 -0.197648 -0.112824
v 0.224972 -0.239605 -0.013271
v 0.228926 -0.254327 0.089846
v 0.193115 -0.215314 0.195175
v 0.094646 -0.080577 0.251241
v 0.214990 -0.108180 0.201002
v 0.261747 -0.127686 0.094015
v 0.265345 -0.120325 -0.016509
v 0.218108 -0.099347 -0.117615
v 0.150620 -0.070272 -0.192693
v 0.014003 -0.069904 -0.192754
v 0.045286 -0.214612 0.172603
v 0.067369 -0.252643 0.083659
v 0.063688 -0.236694 -0.012645
v 0.046803 -0.199276 -0.113856
v 0.014003 -0.149620 0.010915
v 0.014003 -0.155048 0.110037
v 0.014003 -0.144191 -0.088207
v 0.014003 -0.149620 0.010915
v 0.069301 -0.291526 -0.090208
v 0.183031 -0.294619 -0.089526
v 0.062759 -0.200841 -0.044535
v 0.179249 -0.196096 -0.043975
v 0.074041 -0.314832 -0.019961
v 0.180534 -0.316195 -0.019279
v 0.189200 -0.222339 0.013767
v 0.065514 -0.227084 0.013206
v 0.159100 -0.235714 -0.140016
v 0.074800 -0.232758 -0.138165
v 0.178405 -0.168090 -0.105593
v 0.061915 -0.172835 -0.106154
v 0.221958 -0.181253 0.145424
v 0.087614 -0.240216 0.049216
v 0.165355 -0.237234 0.049568
v 0.087614 -0.240216 0.049216
v 0.074041 -0.314832 -0.019961
v 0.165355 -0.237234 0.049568
v 0.180534 -0.316195 -0.019279
v 0.069301 -0.291526 -0.090208
v 0.183031 -0.294619 -0.089526
v 0.180534 -0.316195 -0.019279
v 0.074041 -0.314832 -0.019961
vt 0.695312 0.008789
vt 0.695312 0.081055
vt 0.612305 0.008789
vt 0.668947 0.046677
vt 0.668947 0.053594
vt 0.664329 0.047995
vt 0.664741 0.052984
vt 0.612305 0.081055
vt 0.695312 0.008789
vt 0.612305 0.008789
vt 0.695312 0.081055
vt 0.668947 0.046677
vt 0.664329 0.047995
vt 0.668947 0.053594
vt 0.664741 0.052984
vt 0.612305 0.081055
vt 0.013852 0.876487
vt 0.018360 0.867030
vt 0.018278 0.876526
vt 0.013934 0.866992
vt 0.008783 0.876444
vt 0.008865 0.866948
vt 0.014975 0.867007
vt 0.009919 0.876527
vt 0.009898 0.867018
vt 0.014995 0.876517
vt 0.005442 0.866998
vt 0.005462 0.876507
vt 0.013934 0.866992
vt 0.013852 0.876487
vt 0.734005 0.015926
vt 0.729295 0.026017
vt 0.714379 0.028541
vt 0.700429 0.024844
vt 0.699752 0.014534
vt 0.703604 0.004408
vt 0.718509 0.001962
vt 0.732471 0.005582
vt 0.716540 0.015830
vt 0.014995 0.876517
vt 0.014975 0.867007
vt 0.022787 0.867069
vt 0.022705 0.876564
vt 0.003714 0.876400
vt 0.003796 0.866904
vt 0.009875 0.866989
vt 0.009895 0.876498
vt 0.004822 0.867029
vt 0.004842 0.876538
vt 0.030273 0.869141
vt 0.000000 0.849609
vt 0.000000 0.869141
vt 0.030273 0.849609
vt 0.030273 0.869141
vt 0.000000 0.849609
vt 0.000000 0.869141
vt 0.030273 0.849609
vt 0.030273 0.849609
vt 0.030258 0.869141
vt 0.041992 0.869141
vt 0.029297 0.869141
vt 0.041992 0.849609
vt 0.029297 0.849609
vt 0.030273 0.869141
vt -0.000023 0.869141
vt 0.030273 0.849609
vt 0.000000 0.849609
vt 0.000000 0.849609
vt 0.030273 0.849609
vt 0.030273 0.869141
vt 0.000000 0.869141
vt 0.030273 0.849609
vt 0.030273 0.869141
vt 0.646514 0.042414
vt 0.646514 0.042414
vt 0.646514 0.042414
vt 0.646514 0.042414
vt 0.652936 0.052407
vt 0.651239 0.042459
vt 0.652936 0.042414
vt 0.664465 0.051966
vt 0.662303 0.050043
vt 0.664400 0.049534
vt 0.657335 0.044636
vt 0.652033 0.044176
vt 0.678307 0.010688
vt 0.695767 0.020468
vt 0.656166 0.045054
vt 0.656358 0.047789
vt 0.652936 0.045160
vt 0.659340 0.047790
vt 0.656763 0.050298
vt 0.653292 0.047713
vt 0.634984 0.030095
vt 0.643925 0.053660
vt 0.635441 0.073538
vt 0.659229 0.050298
vt 0.659058 0.052227
vt 0.657517 0.053155
vt 0.659061 0.052227
vt 0.659061 0.055298
vt 0.659340 0.045055
vt 0.649543 0.042580
vt 0.656983 0.062347
vt 0.654237 0.062404
vt 0.653549 0.060711
vt 0.651426 0.056065
vt 0.650537 0.054527
vt 0.651426 0.052407
vt 0.696228 0.045669
vt 0.695971 0.081263
vt 0.656938 0.081514
vt 0.654214 0.050184
vt 0.651815 0.033455
vt 0.653364 0.059009
vt 0.656942 0.058962
vt 0.656963 0.060657
vt 0.657320 0.052166
vt 0.655425 0.073131
vt 0.651338 0.010019
vt 0.649409 0.045028
vt 0.649141 0.049926
vt 0.649275 0.047477
vt 0.649007 0.052375
vt 0.656161 0.063721
vt 0.647914 0.044422
vt 0.646922 0.046936
vt 0.646514 0.049318
vt 0.647543 0.051498
vt 0.663702 0.047939
vt 0.659968 0.048083
vt 0.663385 0.045592
vt 0.659355 0.045377
vt 0.659745 0.043610
vt 0.663750 0.043975
vt 0.661259 0.042414
vt 0.664465 0.042616
vt 0.652936 0.063721
vt 0.664646 0.042448
vt 0.659206 0.038085
vt 0.664393 0.038141
vt 0.659629 0.055337
vt 0.664312 0.052273
vt 0.664329 0.055665
vt 0.657616 0.042077
vt 0.653438 0.038085
vt 0.657649 0.038218
vt 0.658202 0.048800
vt 0.664316 0.049378
vt 0.654736 0.043787
vt 0.651796 0.046073
vt 0.657577 0.045727
vt 0.657649 0.048279
vt 0.657649 0.042500
vt 0.664326 0.046677
vt 0.657777 0.046677
vt 0.651366 0.041800
vt 0.664329 0.046677
vt 0.653818 0.042560
vt 0.013852 0.876487
vt 0.018278 0.876526
vt 0.018360 0.867030
vt 0.013934 0.866992
vt 0.008865 0.866948
vt 0.008783 0.876444
vt 0.014975 0.867007
vt 0.009898 0.867018
vt 0.009919 0.876527
vt 0.014995 0.876517
vt 0.005462 0.876507
vt 0.005442 0.866998
vt 0.013934 0.866992
vt 0.013852 0.876487
vt 0.734005 0.015926
vt 0.714379 0.028541
vt 0.729295 0.026017
vt 0.699752 0.014534
vt 0.700429 0.024844
vt 0.718509 0.001962
vt 0.703604 0.004408
vt 0.732471 0.005582
vt 0.716540 0.015830
vt 0.014995 0.876517
vt 0.014975 0.867007
vt 0.022787 0.867069
vt 0.022705 0.876564
vt 0.003714 0.876400
vt 0.003796 0.866904
vt 0.009875 0.866989
vt 0.009895 0.876498
vt 0.004822 0.867029
vt 0.004842 0.876538
vt 0.030273 0.869141
vt 0.000000 0.869141
vt 0.000000 0.849609
vt 0.030273 0.849609
vt 0.030273 0.849609
vt 0.041992 0.869141
vt 0.029297 0.869141
vt 0.030273 0.869141
vt -0.000023 0.869141
vt 0.030273 0.869141
vt 0.000000 0.869141
vt 0.030273 0.869141
vt 0.646514 0.042414
vt 0.646514 0.042414
vt 0.646514 0.042414
vt 0.646514 0.042414
vt 0.651239 0.042459
vt 0.664400 0.049534
vt 0.662303 0.050043
vt 0.657335 0.044636
vt 0.678307 0.010688
vt 0.695767 0.020468
vt 0.656166 0.045054
vt 0.652936 0.045160
vt 0.656358 0.047789
vt 0.653292 0.047713
vt 0.656763 0.050298
vt 0.635441 0.073538
vt 0.643925 0.053660
vt 0.657517 0.053155
vt 0.659061 0.055298
vt 0.659061 0.052227
vt 0.649543 0.042580
vt 0.656983 0.062347
vt 0.653549 0.060711
vt 0.654237 0.062404
vt 0.651426 0.056065
vt 0.651426 0.052407
vt 0.650537 0.054527
vt 0.696228 0.045669
vt 0.656938 0.081514
vt 0.695971 0.081263
vt 0.654214 0.050184
vt 0.656963 0.060657
vt 0.657320 0.052166
vt 0.649409 0.045028
vt 0.649275 0.047477
vt 0.649141 0.049926
vt 0.649007 0.052375
vt 0.656161 0.063721
vt 0.647914 0.044422
vt 0.646922 0.046936
vt 0.646514 0.049318
vt 0.647543 0.051498
vt 0.663702 0.047939
vt 0.659968 0.048083
vt 0.663385 0.045592
vt 0.659355 0.045377
vt 0.659745 0.043610
vt 0.663750 0.043975
vt 0.661259 0.042414
vt 0.664465 0.042616
vt 0.652936 0.063721
vt 0.659206 0.038085
vt 0.664646 0.042448
vt 0.664393 0.038141
vt 0.659629 0.055337
vt 0.664312 0.052273
vt 0.657649 0.052572
vt 0.653438 0.038085
vt 0.657616 0.042077
vt 0.657649 0.038218
vt 0.658202 0.048800
vt 0.654736 0.043787
vt 0.651796 0.046073
vt 0.657649 0.048279
vt 0.657577 0.045727
vt 0.657649 0.042500
vt 0.664326 0.046677
vt 0.651366 0.041800
vt 0.664316 0.049378
vt 0.664329 0.046677
vt 0.653818 0.042560
vt 0.657649 0.052572
vt 0.664329 0.055665
vt 0.657777 0.046677
vn -0.0134 0.6785 0.7345
vn -0.0143 -0.4568 -0.8894
vn -0.0029 -0.4707 -0.8823
vn 0.0217 0.6547 0.7556
vn -0.0134 -0.6785 0.7345
vn -0.0143 0.4568 -0.8894
vn -0.0029 0.4707 -0.8823
vn 0.0217 -0.6547 0.7556
vn 0.8141 0.0000 0.5807
vn 0.9919 0.0051 -0.1269
vn 0.9922 0.0000 -0.1244
vn 0.6431 0.0000 -0.7657
vn -0.1216 -0.0066 -0.9925
vn -0.1244 0.0000 -0.9922
vn -0.6203 0.0000 0.7843
vn 0.1269 -0.0061 0.9919
vn 0.1244 0.0000 0.9922
vn -0.7929 0.0000 -0.6094
vn -0.9922 0.0009 0.1245
vn -0.9922 0.0000 0.1244
vn 0.8113 -0.0003 0.5846
vn 0.6412 -0.0041 -0.7674
vn 0.0297 0.9995 -0.0037
vn 0.0000 1.0000 0.0000
vn -0.0046 0.9994 -0.0345
vn -0.0307 0.9995 0.0039
vn 0.0040 0.9994 0.0345
vn -0.0013 1.0000 0.0001
vn -0.6202 0.0004 0.7844
vn -0.7927 0.0006 -0.6095
vn -0.9922 0.0000 0.1245
vn -0.7869 0.0000 -0.6171
vn -0.1192 0.0000 -0.9929
vn 0.6228 0.0000 -0.7824
vn 0.9916 0.0000 -0.1294
vn 0.7965 0.0000 0.6046
vn 0.1290 0.0000 0.9916
vn -0.6136 0.0000 0.7896
vn -0.9655 0.2599 -0.0142
vn -0.8661 0.2244 0.4465
vn -0.9690 0.2467 -0.0116
vn 0.0000 0.0000 1.0000
vn -0.8554 0.0000 0.5179
vn -0.7021 0.0402 -0.7110
vn -0.6995 0.0000 -0.7146
vn -0.0510 0.3523 0.9344
vn -0.7823 0.3182 0.5355
vn 0.6912 0.1129 0.7138
vn 0.7006 0.0000 0.7135
vn 0.9610 0.1630 0.2233
vn 0.8873 0.2226 0.4039
vn 0.9582 0.1797 -0.2226
vn 0.5864 0.7935 0.1627
vn 0.9799 0.0000 -0.1993
vn 0.7893 0.2020 -0.5798
vn 0.5629 0.7658 -0.3108
vn -0.0756 0.0728 0.9944
vn 0.8378 0.0000 -0.5459
vn 0.4179 0.0000 -0.9085
vn 0.4025 0.1331 -0.9056
vn 0.4053 0.6936 -0.5954
vn 0.9766 0.0000 0.2152
vn -0.6441 0.3940 -0.6557
vn 0.2435 0.4367 -0.8660
vn 0.4488 0.6006 0.6617
vn -0.0551 0.0000 0.9985
vn -0.4643 0.8164 -0.3432
vn -0.4842 0.8546 -0.1875
vn -0.4585 0.8865 0.0620
vn -0.5296 0.7696 0.3566
vn -0.0265 0.8253 -0.5641
vn 0.4570 0.0910 -0.8848
vn -0.5460 0.0875 -0.8332
vn 0.9896 0.0229 -0.1417
vn 0.7552 -0.1131 -0.6456
vn -0.9949 0.0936 -0.0380
vn -0.7514 -0.1737 -0.6366
vn 0.9958 0.0509 0.0755
vn 0.9815 0.1375 0.1332
vn -0.9846 0.1295 0.1169
vn -0.9593 0.1764 0.2201
vn -0.8632 0.2497 0.4387
vn -0.0151 0.8516 -0.5239
vn -0.0190 0.9517 -0.3063
vn -0.0103 0.9557 -0.2939
vn -0.9979 0.0541 -0.0354
vn 0.8509 0.2426 0.4658
vn 0.9919 -0.0051 -0.1269
vn -0.1216 0.0066 -0.9925
vn 0.1269 0.0061 0.9919
vn -0.9922 -0.0009 0.1245
vn 0.8113 0.0003 0.5846
vn 0.6412 0.0041 -0.7674
vn 0.0297 -0.9995 -0.0037
vn -0.0046 -0.9994 -0.0345
vn 0.0000 -1.0000 0.0000
vn -0.0307 -0.9995 0.0039
vn 0.0040 -0.9994 0.0345
vn -0.0013 -1.0000 0.0001
vn -0.6202 -0.0004 0.7844
vn -0.7927 -0.0006 -0.6095
vn -0.9655 -0.2599 -0.0142
vn -0.9690 -0.2467 -0.0116
vn -0.8661 -0.2244 0.4465
vn -0.7021 -0.0402 -0.7110
vn -0.7823 -0.3182 0.5355
vn -0.0510 -0.3523 0.9344
vn 0.6912 -0.1129 0.7138
vn 0.9610 -0.1630 0.2233
vn 0.8873 -0.2226 0.4039
vn 0.5864 -0.7935 0.1627
vn 0.9582 -0.1797 -0.2226
vn 0.5629 -0.7658 -0.3108
vn 0.7893 -0.2020 -0.5798
vn -0.0756 -0.0728 0.9944
vn 0.4053 -0.6936 -0.5954
vn 0.4025 -0.1331 -0.9056
vn -0.6441 -0.3940 -0.6557
vn 0.2435 -0.4367 -0.8660
vn 0.4488 -0.6006 0.6617
vn -0.4643 -0.8164 -0.3432
vn -0.4842 -0.8546 -0.1875
vn -0.4585 -0.8865 0.0620
vn -0.5296 -0.7696 0.3566
vn 0.4570 -0.0910 -0.8848
vn -0.0265 -0.8253 -0.5641
vn -0.5460 -0.0875 -0.8332
vn 0.9896 -0.0229 -0.1417
vn 0.9919 0.0826 -0.0964
vn -0.9949 -0.0936 -0.0380
vn -0.7514 0.1737 -0.6366
vn 0.9958 -0.0509 0.0755
vn -0.9846 -0.1295 0.1169
vn -0.8632 -0.2497 0.4387
vn -0.9593 -0.1764 0.2201
vn -0.0151 -0.8516 -0.5239
vn -0.0190 -0.9517 -0.3063
vn -0.9979 -0.0541 -0.0354
vn 0.9815 -0.1375 0.1332
vn 0.8509 -0.2426 0.4658
vn 0.9919 -0.0826 -0.0964
vn 0.7552 0.1131 -0.6456
vn -0.0103 -0.9557 -0.2939
usemtl Material
s off
f 73/1/1 72/2/1 75/3/1
f 67/4/2 68/5/2 65/6/2
f 66/7/3 65/6/3 68/5/3
f 72/2/4 71/8/4 75/3/4
f 152/9/5 154/10/5 151/11/5
f 146/12/6 144/13/6 147/14/6
f 145/15/7 147/14/7 144/13/7
f 151/11/8 154/10/8 150/16/8
s 1
f 3/17/9 12/18/10 5/19/11
f 1/20/12 10/21/13 6/22/14
f 4/23/15 14/24/16 8/25/17
f 2/26/18 16/27/19 7/28/20
f 3/17/9 11/29/21 12/18/10
f 1/20/12 9/30/22 10/21/13
f 18/31/23 19/32/24 20/33/25
f 20/33/25 21/34/24 24/35/26
f 24/35/26 25/36/24 22/37/27
f 22/37/27 23/38/24 18/31/23
f 18/31/23 17/39/28 22/37/27
f 4/23/15 13/40/29 14/24/16
f 2/26/18 15/41/30 16/27/19
f 18/31/23 20/33/25 17/39/28
f 20/33/25 24/35/26 17/39/28
f 22/37/27 17/39/28 24/35/26
f 5/19/11 12/18/10 9/42/22
f 1/43/12 5/19/11 9/42/22
f 6/22/14 10/21/13 15/44/30
f 2/45/18 6/22/14 15/44/30
f 13/46/29 4/47/15 16/27/19
f 7/28/20 16/27/19 4/47/15
f 3/48/9 8/25/17 11/49/21
f 8/25/17 14/24/16 11/49/21
f 15/50/30 91/51/31 16/52/19
f 91/51/31 15/50/30 81/53/32
f 81/54/32 10/55/13 89/56/33
f 15/57/30 10/55/13 81/54/32
f 10/55/13 9/58/22 89/56/33
f 89/56/33 9/58/22 80/59/34
f 9/60/22 12/61/10 80/62/34
f 80/62/34 12/61/10 90/63/35
f 12/64/10 11/65/21 90/66/35
f 90/66/35 11/65/21 82/67/36
f 88/68/37 82/69/36 11/70/21
f 11/70/21 14/71/16 88/68/37
f 88/68/37 14/71/16 83/72/38
f 14/71/16 13/73/29 83/72/38
f 91/51/31 83/72/38 16/52/19
f 16/52/19 83/72/38 13/73/29
f 55/74/39 56/75/40 54/76/41 53/77/42
f 28/78/43 48/79/44 29/80/45
f 28/81/43 26/82/46 32/83/47
f 43/84/48 41/85/49 44/86/50
f 43/84/48 44/86/50 69/87/51
f 44/88/50 45/89/52 39/90/53
f 45/89/52 44/88/50 36/91/54
f 45/89/52 46/92/55 37/93/56
f 28/94/43 42/95/57 26/96/46
f 46/92/55 45/89/52 34/97/58
f 27/98/59 46/92/55 34/97/58
f 46/99/55 47/100/60 35/101/61
f 34/97/58 45/89/52 36/91/54
f 36/91/54 44/88/50 38/102/62
f 28/78/43 33/103/63 48/79/44
f 33/104/63 31/105/64 47/106/60
f 47/107/60 31/108/64 35/109/61
f 40/110/65 26/111/46 42/112/57
f 46/92/55 35/113/61 37/93/56
f 45/89/52 37/93/56 39/90/53
f 28/94/43 30/114/66 42/95/57
f 27/115/59 29/116/45 48/117/44
f 46/92/55 27/98/59 47/118/60
f 30/119/66 41/85/49 43/84/48
f 47/106/60 27/115/59 48/117/44
f 48/117/44 33/104/63 47/106/60
f 41/85/49 38/120/62 44/86/50
f 43/84/48 69/87/51 40/110/65
f 40/110/65 42/112/57 43/84/48
f 30/119/66 43/84/48 42/112/57
f 28/78/43 55/121/39 33/103/63
f 28/78/43 54/122/41 56/123/40
f 28/78/43 56/123/40 55/121/39
f 28/78/43 32/124/47 54/122/41
f 31/105/64 33/104/63 52/125/67
f 33/103/63 55/121/39 52/126/67
f 56/123/40 51/127/68 52/126/67
f 56/123/40 52/126/67 55/121/39
f 51/127/68 56/123/40 50/128/69
f 54/122/41 50/128/69 56/123/40
f 50/128/69 54/122/41 49/129/70
f 54/122/41 32/124/47 49/129/70
f 32/83/47 26/82/46 49/130/70
f 26/82/46 40/131/65 49/130/70
f 49/130/70 40/131/65 50/132/69
f 40/131/65 39/133/53 50/132/69
f 37/134/56 50/132/69 39/133/53
f 50/132/69 37/134/56 51/135/68
f 37/134/56 35/136/61 51/135/68
f 51/135/68 35/136/61 52/137/67
f 35/138/61 31/105/64 52/125/67
f 76/139/71 65/140/72 66/141/73
f 65/142/72 60/143/74 67/144/75
f 59/145/76 66/146/73 68/147/77
f 60/143/74 78/148/78 63/149/79
f 39/90/53 69/150/51 44/88/50
f 79/151/80 64/152/81 70/153/82
f 77/154/83 61/155/84 62/156/85
f 59/145/76 79/151/80 57/157/86
f 63/149/79 78/148/78 74/158/87
f 39/90/53 40/159/65 69/150/51
f 86/160/9 92/161/11 99/162/88
f 84/163/12 93/164/14 97/165/89
f 87/166/15 95/167/17 101/168/90
f 85/169/18 94/170/20 103/171/91
f 86/160/9 99/162/88 98/172/92
f 84/163/12 97/165/89 96/173/93
f 105/174/94 107/175/95 106/176/96
f 107/175/95 111/177/97 108/178/96
f 111/177/97 109/179/98 112/180/96
f 109/179/98 105/174/94 110/181/96
f 105/174/94 109/179/98 104/182/99
f 87/166/15 101/168/90 100/183/100
f 85/169/18 103/171/91 102/184/101
f 105/174/94 104/182/99 107/175/95
f 107/175/95 104/182/99 111/177/97
f 109/179/98 111/177/97 104/182/99
f 92/161/11 96/185/93 99/162/88
f 84/186/12 96/185/93 92/161/11
f 93/164/14 102/187/101 97/165/89
f 85/188/18 102/187/101 93/164/14
f 100/189/100 103/171/91 87/190/15
f 94/170/20 87/190/15 103/171/91
f 86/191/9 98/192/92 95/167/17
f 95/167/17 98/192/92 101/168/90
f 102/193/101 103/194/91 91/51/31
f 91/51/31 81/53/32 102/193/101
f 81/54/32 89/56/33 97/195/89
f 102/196/101 81/54/32 97/195/89
f 97/195/89 89/56/33 96/197/93
f 89/56/33 80/59/34 96/197/93
f 96/198/93 80/62/34 99/199/88
f 80/62/34 90/63/35 99/199/88
f 99/200/88 90/66/35 98/201/92
f 90/66/35 82/67/36 98/201/92
f 88/68/37 98/202/92 82/69/36
f 98/202/92 88/68/37 101/203/90
f 88/68/37 83/72/38 101/203/90
f 101/203/90 83/72/38 100/204/100
f 91/51/31 103/194/91 83/72/38
f 103/194/91 100/204/100 83/72/38
f 134/205/102 132/206/42 133/207/103 135/208/104
f 28/78/43 29/80/45 127/209/105
f 28/81/43 115/210/106 113/211/107
f 122/212/108 123/213/109 41/85/49
f 122/212/108 148/214/110 123/213/109
f 123/215/109 119/216/111 124/217/112
f 124/217/112 36/91/54 123/215/109
f 124/217/112 118/218/113 125/219/114
f 28/94/43 113/220/107 121/221/115
f 125/219/114 34/97/58 124/217/112
f 27/98/59 34/97/58 125/219/114
f 125/222/114 117/223/116 126/224/117
f 34/97/58 36/91/54 124/217/112
f 36/91/54 38/102/62 123/215/109
f 28/78/43 127/209/105 116/225/118
f 116/226/118 126/227/117 114/228/119
f 126/229/117 117/230/116 114/231/119
f 120/232/120 121/233/115 113/234/107
f 125/219/114 118/218/113 117/235/116
f 124/217/112 119/216/111 118/218/113
f 28/94/43 121/221/115 30/114/66
f 27/115/59 127/236/105 29/116/45
f 125/219/114 126/237/117 27/98/59
f 30/119/66 122/212/108 41/85/49
f 126/227/117 127/236/105 27/115/59
f 127/236/105 126/227/117 116/226/118
f 41/85/49 123/213/109 38/120/62
f 122/212/108 120/232/120 148/214/110
f 120/232/120 122/212/108 121/233/115
f 30/119/66 121/233/115 122/212/108
f 28/78/43 116/225/118 134/238/102
f 28/78/43 135/239/104 133/240/103
f 28/78/43 134/238/102 135/239/104
f 28/78/43 133/240/103 115/241/106
f 114/228/119 131/242/121 116/226/118
f 116/225/118 131/243/121 134/238/102
f 135/239/104 131/243/121 130/244/122
f 135/239/104 134/238/102 131/243/121
f 130/244/122 129/245/123 135/239/104
f 133/240/103 135/239/104 129/245/123
f 129/245/123 128/246/124 133/240/103
f 133/240/103 128/246/124 115/241/106
f 115/210/106 128/247/124 113/211/107
f 113/211/107 128/247/124 120/248/120
f 128/247/124 129/249/123 120/248/120
f 120/248/120 129/249/123 119/250/111
f 118/251/113 119/250/111 129/249/123
f 129/249/123 130/252/122 118/251/113
f 118/251/113 130/252/122 117/253/116
f 130/252/122 131/254/121 117/253/116
f 117/255/116 131/242/121 114/228/119
f 144/256/125 155/257/126 145/258/127
f 144/259/125 139/260/128 137/261/129
f 145/262/127 138/263/130 147/264/131
f 139/260/128 157/265/132 137/261/129
f 119/216/111 123/215/109 148/266/110
f 158/267/133 149/268/134 143/269/135
f 156/270/136 140/271/137 155/257/126
f 158/267/133 138/263/130 136/272/138
f 142/273/139 153/274/140 157/265/132
f 119/216/111 148/266/110 120/275/120
f 76/139/71 77/154/83 65/140/72
f 65/142/72 58/276/141 60/143/74
f 59/145/76 57/157/86 66/146/73
f 60/143/74 58/276/141 78/148/78
f 77/154/83 76/139/71 61/155/84
f 59/145/76 64/152/81 79/151/80
f 144/256/125 156/270/136 155/257/126
f 144/259/125 146/277/142 139/260/128
f 145/262/127 136/272/138 138/263/130
f 139/260/128 142/273/139 157/265/132
f 156/270/136 141/278/143 140/271/137
f 158/267/133 143/269/135 138/263/130
