# Blender v2.81 (sub 16) OBJ File: 'TinyWorldAdventureBackpack.blend'
# www.blender.org
mtllib container.mtl
o container_Cube.002
v 0.079789 0.354402 -0.271958
v 0.376454 0.344909 -0.271958
v 0.425617 0.200122 -0.271958
v 0.233046 0.405846 -0.271958
v 0.031439 0.200122 -0.271958
v 0.208885 0.104196 -0.337381
v 0.228528 0.200122 -0.327819
v 0.329331 0.302984 -0.298689
v 0.132243 0.302984 -0.298689
v 0.031439 0.200122 0.044737
v 0.027350 0.200122 0.307419
v 0.074120 0.361558 0.047751
v 0.234295 0.416658 0.047751
v 0.066053 0.362766 0.298073
v 0.233046 0.405846 0.298073
v 0.439377 0.206386 0.047485
v 0.437970 0.200122 0.328685
v 0.387456 0.351094 0.062120
v 0.376454 0.344909 0.304230
v 0.027350 0.200122 0.307419
v 0.052464 0.195230 0.307419
v 0.092465 0.337913 0.298073
v 0.233046 0.388036 0.298073
v 0.366101 0.336026 0.304230
v 0.419958 0.196917 0.328685
v 0.052464 0.195230 0.063157
v 0.052464 0.195230 -0.239844
v 0.052464 0.195230 0.307419
v 0.092465 0.337913 0.298073
v 0.092465 0.337913 0.046893
v 0.233046 0.388036 0.046893
v 0.092465 0.337913 -0.239844
v 0.233046 0.388036 -0.239844
v 0.366101 0.336026 0.044517
v 0.419958 0.196917 0.068972
v 0.366101 0.336026 -0.239844
v 0.419958 0.196917 -0.239844
v 0.419958 0.196917 0.328685
v 0.419958 0.196917 0.068972
v 0.052464 0.195230 -0.239844
v 0.233046 0.388036 -0.239844
v 0.092465 0.337913 -0.239844
v 0.419958 0.196917 -0.239844
v 0.366101 0.336026 -0.239844
v 0.233046 0.405846 0.298073
v 0.066053 0.362766 0.298073
v 0.437970 0.200122 0.328685
v 0.376454 0.344909 0.304230
v 0.079789 -0.365607 -0.271958
v 0.376454 -0.356115 -0.271958
v 0.425617 -0.211327 -0.271958
v 0.024409 -0.005603 -0.271958
v 0.233046 -0.417052 -0.271958
v 0.441683 -0.005603 -0.271958
v 0.031439 -0.211327 -0.271958
v 0.208885 -0.115402 -0.337381
v 0.233046 -0.005603 -0.335435
v 0.228528 -0.211327 -0.327819
v 0.329331 -0.314189 -0.298689
v 0.132243 -0.314189 -0.298689
v 0.024409 -0.005603 0.044737
v 0.031439 -0.211327 0.044737
v 0.024409 -0.005603 0.307419
v 0.027350 -0.211327 0.307419
v 0.074120 -0.372764 0.047751
v 0.234295 -0.427864 0.047751
v 0.066053 -0.373972 0.298073
v 0.233046 -0.417052 0.298073
v 0.439377 -0.217592 0.047485
v 0.457040 -0.005603 0.047485
v 0.437970 -0.211327 0.328685
v 0.456841 -0.005603 0.328685
v 0.387456 -0.362300 0.062120
v 0.376454 -0.356115 0.304230
v 0.048367 -0.005603 0.307419
v 0.027350 -0.211327 0.307419
v 0.052464 -0.206436 0.307419
v 0.092465 -0.349118 0.298073
v 0.233046 -0.399242 0.298073
v 0.366101 -0.347232 0.304230
v 0.419958 -0.208123 0.328685
v 0.435619 -0.005603 0.328685
v 0.048367 -0.005603 0.063157
v 0.052464 -0.206436 0.063157
v 0.048367 -0.005603 -0.239844
v 0.052464 -0.206436 -0.239844
v 0.052464 -0.206436 0.307419
v 0.092465 -0.349118 0.298073
v 0.092465 -0.349118 0.046893
v 0.233046 -0.399242 0.046893
v 0.092465 -0.349118 -0.239844
v 0.233046 -0.399242 -0.239844
v 0.366101 -0.347232 0.044517
v 0.419958 -0.208123 0.068972
v 0.366101 -0.347232 -0.239844
v 0.419958 -0.208123 -0.239844
v 0.419958 -0.208123 0.328685
v 0.435619 -0.005603 0.328685
v 0.435619 -0.005603 0.062513
v 0.435619 -0.005603 -0.239844
v 0.419958 -0.208123 0.068972
v 0.435619 -0.005603 -0.239844
v 0.052464 -0.206436 -0.239844
v 0.048367 -0.005603 -0.239844
v 0.233046 -0.399242 -0.239844
v 0.092465 -0.349118 -0.239844
v 0.419958 -0.208123 -0.239844
v 0.366101 -0.347232 -0.239844
v 0.435619 -0.005603 -0.239844
v 0.233046 -0.417052 0.298073
v 0.066053 -0.373972 0.298073
v 0.456841 -0.005603 0.328685
v 0.437970 -0.211327 0.328685
v 0.376454 -0.356115 0.304230
v 0.024409 -0.005603 0.307419
vt 0.144456 0.318593
vt 0.135962 0.296506
vt 0.157238 0.289667
vt 0.150580 0.308375
vt 0.156774 0.302209
vt 0.169713 0.316390
vt 0.174735 0.280149
vt 0.174735 0.311540
vt 0.157931 0.314529
vt 0.167235 0.317047
vt 0.171093 0.267588
vt 0.195640 0.273482
vt 0.128436 0.303381
vt 0.142952 0.290742
vt 0.170003 0.287740
vt 0.182942 0.301964
vt 0.143354 0.281360
vt 0.223781 0.268477
vt 0.219552 0.320827
vt 0.143272 0.311009
vt 0.132641 0.286492
vt 0.189983 0.309283
vt 0.136035 0.339348
vt 0.170502 0.287318
vt 0.170551 0.339323
vt 0.135987 0.287344
vt 0.170456 0.244179
vt 0.197887 0.250977
vt 0.168703 0.303579
vt 0.170466 0.250484
vt 0.197430 0.304094
vt 0.168679 0.345152
vt 0.115889 0.346056
vt 0.148482 0.296771
vt 0.148373 0.346049
vt 0.115000 0.296780
vt 0.148482 0.253410
vt 0.135947 0.244209
vt 0.197887 0.345693
vt 0.115978 0.253420
vt 0.197645 0.286842
vt 0.197797 0.245728
vt 0.196502 0.339348
vt 0.156315 0.292127
vt 0.157261 0.344584
vt 0.131688 0.289781
vt 0.132641 0.344637
vt 0.157356 0.245968
vt 0.132644 0.250051
vt 0.147305 0.305437
vt 0.148644 0.345680
vt 0.150449 0.249990
vt 0.212761 0.259236
vt 0.213142 0.263694
vt 0.126287 0.259386
vt 0.126945 0.262637
vt 0.178994 0.272175
vt 0.179652 0.275427
vt 0.156840 0.277140
vt 0.160210 0.280563
vt 0.211510 0.273721
vt 0.206308 0.278411
vt 0.124785 0.273904
vt 0.129059 0.277800
vt 0.125710 0.312452
vt 0.212915 0.308136
vt 0.212900 0.312292
vt 0.126271 0.307513
vt 0.212597 0.282727
vt 0.126685 0.283383
vt 0.126190 0.278114
vt 0.212871 0.278433
vt 0.126146 0.258965
vt 0.213003 0.259079
vt 0.126227 0.263393
vt 0.212956 0.263378
vt 0.136978 0.344005
vt 0.172832 0.301250
vt 0.172832 0.344023
vt 0.136978 0.301233
vt 0.172832 0.248192
vt 0.000000 0.000000
vt 0.000000 0.000000
vt 0.000000 0.000000
vt 0.000000 0.000000
vt 0.154489 0.346650
vt 0.181090 0.302820
vt 0.181090 0.346650
vt 0.154489 0.302820
vt 0.181090 0.252787
vt 0.159167 0.281932
vt 0.179607 0.320208
vt 0.179606 0.280439
vt 0.195744 0.288979
vt 0.171155 0.337651
vt 0.172205 0.284288
vt 0.010151 -0.001999
vt 0.010151 -0.001999
vt 0.010151 -0.001999
vt 0.010151 -0.001999
vt 0.138989 0.337019
vt 0.138989 0.337019
vt 0.140017 0.284772
vt 0.179606 0.280439
vt 0.179606 0.320120
vt 0.159237 0.281890
vt 0.161390 0.319659
vt 0.172832 0.344023
vt 0.198011 0.342448
vt 0.198011 0.298464
vt 0.198011 0.248254
vt 0.200314 0.252787
vt 0.200314 0.302406
vt 0.200775 0.346340
vt 0.126050 0.248806
vt 0.173651 0.251940
vt 0.127224 0.341236
vt 0.174369 0.339659
vt 0.207751 0.329686
vt 0.219094 0.295982
vt 0.206478 0.264379
vt 0.136978 0.248174
vt 0.154489 0.252787
vt 0.159361 0.321507
vt 0.194777 0.338116
vt 0.144456 0.318593
vt 0.157238 0.289667
vt 0.135962 0.296506
vt 0.150580 0.308375
vt 0.169713 0.316390
vt 0.156774 0.302209
vt 0.157931 0.314529
vt 0.167235 0.317047
vt 0.195640 0.273482
vt 0.171093 0.267588
vt 0.128436 0.303381
vt 0.142952 0.290742
vt 0.170003 0.287740
vt 0.182942 0.301964
vt 0.143354 0.281360
vt 0.143272 0.311009
vt 0.132641 0.286492
vt 0.189983 0.309283
vt 0.170551 0.339323
vt 0.170502 0.287318
vt 0.170456 0.244179
vt 0.197887 0.250977
vt 0.170466 0.250484
vt 0.168703 0.303579
vt 0.197430 0.304094
vt 0.168679 0.345152
vt 0.115889 0.346056
vt 0.115000 0.296780
vt 0.197887 0.345693
vt 0.115978 0.253420
vt 0.197645 0.286842
vt 0.197797 0.245728
vt 0.196502 0.339348
vt 0.156315 0.292127
vt 0.131688 0.289781
vt 0.157261 0.344584
vt 0.132641 0.344637
vt 0.157356 0.245968
vt 0.132644 0.250051
vt 0.147305 0.305437
vt 0.148644 0.345680
vt 0.150449 0.249990
vt 0.126287 0.259386
vt 0.126945 0.262637
vt 0.178994 0.272175
vt 0.156840 0.277140
vt 0.179652 0.275427
vt 0.160210 0.280563
vt 0.211510 0.273721
vt 0.124785 0.273904
vt 0.206308 0.278411
vt 0.129059 0.277800
vt 0.125710 0.312452
vt 0.212900 0.312292
vt 0.212915 0.308136
vt 0.126271 0.307513
vt 0.212597 0.282727
vt 0.126190 0.278114
vt 0.126685 0.283383
vt 0.212871 0.278433
vt 0.126146 0.258965
vt 0.126227 0.263393
vt 0.172832 0.344023
vt 0.172832 0.301250
vt 0.172832 0.248192
vt 0.000000 0.000000
vt 0.000000 0.000000
vt 0.000000 0.000000
vt 0.000000 0.000000
vt 0.154489 0.346650
vt 0.181090 0.346650
vt 0.181090 0.302820
vt 0.154489 0.302820
vt 0.181090 0.252787
vt 0.159167 0.281932
vt 0.179606 0.280439
vt 0.179607 0.320208
vt 0.195744 0.288979
vt 0.172205 0.284288
vt 0.171155 0.337651
vt 0.010151 -0.001999
vt 0.010151 -0.001999
vt 0.159237 0.281890
vt 0.161390 0.319659
vt 0.172832 0.344023
vt 0.198011 0.342448
vt 0.198011 0.298464
vt 0.198011 0.248254
vt 0.200314 0.252787
vt 0.200314 0.302406
vt 0.200775 0.346340
vt 0.173651 0.251940
vt 0.174369 0.339659
vt 0.207751 0.329686
vt 0.219094 0.295982
vt 0.206478 0.264379
vt 0.154489 0.252787
vt 0.159361 0.321507
vt 0.194777 0.338116
vn 0.0171 0.1141 -0.9933
vn 0.2109 0.2026 -0.9563
vn 0.7939 0.1516 -0.5889
vn 0.6301 0.5851 -0.5105
vn 0.0290 0.8368 -0.5467
vn 0.7969 0.0000 -0.6041
vn 0.0403 0.0000 -0.9992
vn -0.0469 0.0335 -0.9983
vn -0.8146 0.1344 -0.5642
vn -0.6115 0.5972 -0.5190
vn -0.1916 0.1913 -0.9626
vn -0.8178 0.0000 -0.5754
vn -0.9893 0.1459 -0.0077
vn -1.0000 0.0000 -0.0045
vn -0.9914 0.1298 -0.0161
vn 0.0372 0.9993 0.0048
vn -0.7241 0.6896 -0.0101
vn 0.0628 0.9977 0.0258
vn 0.9997 0.0000 -0.0226
vn 0.9754 0.2197 -0.0140
vn 1.0000 0.0000 0.0044
vn -1.0000 0.0000 0.0000
vn -0.7257 0.6875 -0.0267
vn 0.9719 0.2351 0.0101
vn 0.7307 0.6826 0.0076
vn 0.7271 0.6855 0.0355
vn 0.0000 0.0000 1.0000
vn 0.7024 0.0000 0.7117
vn 0.0056 0.0287 0.9995
vn 0.3060 0.0111 0.9519
vn 0.0220 0.0266 0.9994
vn 0.1071 -0.2344 0.9662
vn -0.0211 0.0011 0.9998
vn -0.0307 -0.6117 0.7905
vn -0.4904 -0.3532 0.7967
vn -0.0693 0.0808 0.9943
vn -0.0160 0.0762 0.9969
vn -0.2640 -0.0431 0.9635
vn 0.9892 -0.1463 0.0000
vn 1.0000 0.0000 0.0000
vn 0.6668 -0.1869 0.7214
vn 0.6941 -0.1946 0.6930
vn -0.0150 -0.9999 0.0000
vn 0.7311 -0.6822 0.0000
vn -0.9739 -0.2270 0.0000
vn -0.7082 -0.7060 0.0000
vn -0.9752 -0.2214 0.0000
vn -0.9766 -0.2150 0.0000
vn -0.7050 -0.0545 0.7071
vn -0.7060 0.0000 0.7082
vn 0.0171 -0.1141 -0.9933
vn 0.7939 -0.1516 -0.5889
vn 0.2109 -0.2026 -0.9563
vn 0.6301 -0.5851 -0.5105
vn 0.0290 -0.8368 -0.5467
vn -0.0469 -0.0335 -0.9983
vn -0.8146 -0.1344 -0.5642
vn -0.6115 -0.5972 -0.5190
vn -0.1916 -0.1913 -0.9626
vn -0.9893 -0.1459 -0.0077
vn -0.9914 -0.1298 -0.0161
vn 0.0372 -0.9993 0.0048
vn -0.7241 -0.6896 -0.0101
vn 0.0628 -0.9977 0.0258
vn 0.9754 -0.2197 -0.0140
vn -0.7257 -0.6875 -0.0267
vn 0.9719 -0.2351 0.0101
vn 0.7307 -0.6826 0.0076
vn 0.7271 -0.6855 0.0355
vn 0.0056 -0.0287 0.9995
vn 0.3060 -0.0111 0.9519
vn 0.0220 -0.0266 0.9994
vn 0.1071 0.2344 0.9662
vn -0.0211 -0.0011 0.9998
vn -0.0307 0.6117 0.7905
vn -0.0693 -0.0808 0.9943
vn -0.4904 0.3532 0.7967
vn -0.0160 -0.0762 0.9969
vn -0.2640 0.0431 0.9635
vn 0.9892 0.1463 0.0000
vn 0.6941 0.1946 0.6930
vn 0.6668 0.1869 0.7214
vn -0.0150 0.9999 0.0000
vn 0.7311 0.6822 0.0000
vn -0.9739 0.2270 0.0000
vn -0.7082 0.7060 0.0000
vn -0.9766 0.2150 0.0000
vn -0.9752 0.2214 0.0000
vn -0.7050 0.0545 0.7071
usemtl Material.002
s 1
f 7/1/1 8/2/2 3/3/3
f 2/4/4 8/5/2 4/6/5
f 54/7/6 57/8/7 6/9/8
f 5/10/9 7/11/1 6/12/8
f 1/13/10 9/14/11 5/10/9
f 7/15/1 9/16/11 4/6/5
f 6/9/8 3/17/3 54/7/6
f 57/18/7 52/19/12 6/12/8
f 6/12/8 52/19/12 5/10/9
f 7/20/1 3/17/3 6/9/8
f 7/15/1 4/6/5 8/5/2
f 2/21/4 3/3/3 8/2/2
f 1/22/10 4/6/5 9/16/11
f 7/11/1 5/10/9 9/14/11
f 52/23/12 10/24/13 5/25/9
f 61/26/14 11/27/15 10/24/13
f 1/28/10 13/29/16 4/30/5
f 12/31/17 45/32/18 13/29/16
f 3/33/3 70/34/19 54/35/6
f 16/36/20 112/37/21 70/34/19
f 52/23/12 61/26/14 10/24/13
f 61/26/14 115/38/22 11/27/15
f 1/28/10 12/31/17 13/29/16
f 12/31/17 46/39/23 45/32/18
f 3/33/3 16/36/20 70/34/19
f 16/36/20 47/40/24 112/37/21
f 10/24/13 11/27/15 12/41/17
f 12/41/17 11/27/15 46/42/23
f 10/24/13 12/41/17 5/25/9
f 5/25/9 12/41/17 1/43/10
f 16/44/20 3/45/3 18/46/25
f 2/47/4 18/46/25 3/45/3
f 47/48/24 16/44/20 48/49/26
f 48/49/26 16/44/20 18/46/25
f 45/32/18 18/50/25 13/29/16
f 48/51/26 18/50/25 45/32/18
f 18/50/25 2/52/4 13/29/16
f 4/30/5 13/29/16 2/52/4
f 63/53/27 75/54/28 20/55/29
f 21/56/30 20/55/29 75/54/28
f 20/57/29 21/58/30 14/59/31
f 22/60/32 14/59/31 21/58/30
f 14/61/31 22/62/32 15/63/33
f 23/64/34 15/63/33 22/62/32
f 15/65/33 24/66/35 19/67/36
f 23/68/34 24/66/35 15/65/33
f 17/69/37 19/70/36 24/71/35
f 25/72/38 17/69/37 24/71/35
f 25/73/38 82/74/27 17/75/37
f 17/75/37 82/74/27 72/76/27
f 75/77/28 26/78/39 21/79/30
f 83/80/40 40/81/39 26/78/39
f 22/82/32 21/83/30 28/84/41 29/85/42
f 22/86/32 31/87/43 23/88/34
f 30/89/44 41/90/43 31/87/43
f 24/91/35 39/92/45 25/93/38
f 34/94/46 43/95/47 35/96/48
f 82/97/27 25/98/38 38/99/49 98/100/50
f 100/101/22 35/96/48 43/95/47
f 109/102/22 99/103/22 35/96/48 100/101/22
f 99/104/22 98/105/50 39/106/45
f 98/105/50 38/107/49 39/106/45
f 28/108/41 26/78/39 29/109/42
f 29/109/42 26/78/39 30/110/44
f 26/78/39 40/81/39 30/110/44
f 30/110/44 40/81/39 42/111/44
f 44/112/46 34/113/46 41/90/43
f 41/90/43 34/113/46 31/87/43
f 23/88/34 31/87/43 34/113/46
f 24/114/35 23/88/34 34/113/46
f 102/115/27 37/116/27 85/117/27
f 85/117/27 37/116/27 27/118/27
f 32/119/27 27/118/27 33/120/27
f 36/121/27 33/120/27 37/116/27
f 27/118/27 37/116/27 33/120/27
f 75/77/28 83/80/40 26/78/39
f 83/80/40 104/122/40 40/81/39
f 22/86/32 30/89/44 31/87/43
f 30/89/44 42/123/44 41/90/43
f 24/91/35 34/124/46 39/92/45
f 34/94/46 44/125/46 43/95/47
f 58/126/51 51/127/52 59/128/53
f 50/129/54 53/130/55 59/131/53
f 54/7/6 56/132/56 57/8/7
f 55/133/57 56/134/56 58/135/51
f 49/136/58 55/133/57 60/137/59
f 58/138/51 53/130/55 60/139/59
f 56/132/56 54/7/6 51/140/52
f 57/18/7 56/134/56 52/19/12
f 56/134/56 55/133/57 52/19/12
f 58/141/51 56/132/56 51/140/52
f 58/138/51 59/131/53 53/130/55
f 50/142/54 59/128/53 51/127/52
f 49/143/58 60/139/59 53/130/55
f 58/135/51 60/137/59 55/133/57
f 52/23/12 55/144/57 62/145/60
f 61/26/14 62/145/60 64/146/61
f 49/147/58 53/148/55 66/149/62
f 65/150/63 66/149/62 110/151/64
f 51/152/52 54/35/6 70/34/19
f 69/153/65 70/34/19 112/37/21
f 52/23/12 62/145/60 61/26/14
f 61/26/14 64/146/61 115/38/22
f 49/147/58 66/149/62 65/150/63
f 65/150/63 110/151/64 111/154/66
f 51/152/52 70/34/19 69/153/65
f 69/153/65 112/37/21 113/155/67
f 62/145/60 65/156/63 64/146/61
f 65/156/63 111/157/66 64/146/61
f 62/145/60 55/144/57 65/156/63
f 55/144/57 49/158/58 65/156/63
f 69/159/65 73/160/68 51/161/52
f 50/162/54 51/161/52 73/160/68
f 113/163/67 114/164/69 69/159/65
f 114/164/69 73/160/68 69/159/65
f 110/151/64 66/149/62 73/165/68
f 114/166/69 110/151/64 73/165/68
f 73/165/68 66/149/62 50/167/54
f 53/148/55 50/167/54 66/149/62
f 63/53/27 76/168/70 75/54/28
f 77/169/71 75/54/28 76/168/70
f 76/170/70 67/171/72 77/172/71
f 78/173/73 77/172/71 67/171/72
f 67/174/72 68/175/74 78/176/73
f 79/177/75 78/176/73 68/175/74
f 68/178/74 74/179/76 80/180/77
f 79/181/75 68/178/74 80/180/77
f 71/182/78 80/183/77 74/184/76
f 81/185/79 80/183/77 71/182/78
f 81/186/79 71/187/78 82/74/27
f 71/187/78 72/76/27 82/74/27
f 75/77/28 77/188/71 84/189/80
f 83/80/40 84/189/80 103/190/80
f 78/191/73 88/192/81 87/193/82 77/194/71
f 78/195/73 79/196/75 90/197/83
f 89/198/84 90/197/83 105/199/83
f 80/200/77 81/201/79 101/202/85
f 93/203/86 94/204/87 107/205/88
f 82/97/27 98/100/50 97/206/89 81/207/79
f 100/101/22 107/205/88 94/204/87
f 109/102/22 100/101/22 94/204/87 99/103/22
f 99/104/22 101/208/85 98/105/50
f 98/105/50 101/208/85 97/209/89
f 87/210/82 88/211/81 84/189/80
f 88/211/81 89/212/84 84/189/80
f 84/189/80 89/212/84 103/190/80
f 89/212/84 106/213/84 103/190/80
f 108/214/86 105/199/83 93/215/86
f 105/199/83 90/197/83 93/215/86
f 79/196/75 93/215/86 90/197/83
f 80/216/77 93/215/86 79/196/75
f 102/115/27 85/117/27 96/217/27
f 85/117/27 86/218/27 96/217/27
f 91/219/27 92/220/27 86/218/27
f 95/221/27 96/217/27 92/220/27
f 86/218/27 92/220/27 96/217/27
f 75/77/28 84/189/80 83/80/40
f 83/80/40 103/190/80 104/122/40
f 78/195/73 90/197/83 89/198/84
f 89/198/84 105/199/83 106/222/84
f 80/200/77 101/202/85 93/223/86
f 93/203/86 107/205/88 108/224/86
