# Blender v2.81 (sub 16) OBJ File: 'TinyWorldAdventureBackpack.blend'
# www.blender.org
mtllib sickle.mtl
o w_hammer_sickle
v 0.239735 -0.005992 -0.168372
v 0.251385 -0.008917 0.016757
v 0.185859 -0.008916 0.001654
v 0.175580 -0.028670 -0.209540
v 0.346529 0.006708 -0.279138
v 0.300454 -0.020268 -0.346865
v 0.185859 0.020709 0.001654
v 0.251385 0.020709 0.016757
v 0.239735 0.019408 -0.168373
v 0.175580 0.040463 -0.209540
v 0.300454 0.032109 -0.346866
v 0.538454 0.032108 -0.390723
v 0.538453 -0.020269 -0.390723
v 0.531911 0.006708 -0.302936
v 0.684901 0.006708 -0.250602
v 0.727124 0.032108 -0.322658
v 0.765709 0.006708 -0.129647
v 0.834122 0.032107 -0.152438
v 0.834122 -0.013963 -0.152439
v 0.776969 -0.005992 -0.011687
v 0.721666 0.006708 0.055287
v 0.727123 -0.020269 -0.322658
v 0.776969 0.019408 -0.011687
v -0.223174 0.057212 -0.068523
v 0.253462 0.066017 -0.065452
v 0.253765 0.002447 -0.115749
v -0.223009 0.003158 -0.110996
v -0.223397 0.010652 -0.013497
v 0.253070 0.011486 -0.001244
v -0.223209 -0.044673 -0.061361
v 0.253405 -0.053604 -0.056833
v 0.302480 0.006587 -0.061037
v 0.346529 0.006708 -0.279138
v 0.346529 0.006708 -0.279138
v 0.531911 0.006708 -0.302936
v 0.684901 0.006708 -0.250602
v 0.765709 0.006708 -0.129647
vt 0.121550 0.968353
vt 0.117683 0.967866
vt 0.117972 0.963547
vt 0.121550 0.963053
vt 0.125520 0.968097
vt 0.125370 0.963309
vt 0.117972 0.963547
vt 0.117683 0.967866
vt 0.121550 0.968353
vt 0.121550 0.963053
vt 0.125520 0.968097
vt 0.125370 0.963309
vt 0.125370 0.963309
vt 0.125370 0.963309
vt 0.125520 0.968097
vt 0.125520 0.968097
vt 0.125520 0.968097
vt 0.125370 0.963309
vt 0.125520 0.968097
vt 0.125370 0.963309
vt 0.125370 0.963309
vt 0.125370 0.963309
vt 0.125520 0.968097
vt 0.125520 0.968097
vt 0.125520 0.968097
vt 0.125370 0.963309
vt 0.125370 0.963309
vt 0.125520 0.968097
vt 0.088723 0.976025
vt 0.088716 0.977849
vt 0.089948 0.977850
vt 0.090015 0.976026
vt 0.089856 0.976030
vt 0.089792 0.977853
vt 0.091177 0.976031
vt 0.091052 0.977855
vt 0.089811 0.979676
vn 0.6696 -0.7028 0.2402
vn 0.1087 -0.9938 -0.0225
vn 0.0611 -0.9981 0.0022
vn 0.2717 -0.9547 0.1214
vn 0.1558 -0.9533 0.2586
vn 0.1761 -0.9498 0.2585
vn 0.0544 0.9985 0.0096
vn 0.0016 1.0000 -0.0071
vn 0.2302 0.9691 0.0888
vn 0.2544 0.9603 0.1143
vn 0.1481 0.9585 0.2436
vn 0.1678 0.9551 0.2441
vn 0.9350 0.0000 0.3547
vn -0.0262 0.9590 0.2822
vn -0.0277 -0.9541 0.2982
vn -0.0309 -0.9561 0.2915
vn 0.7199 0.0000 0.6941
vn -0.1991 -0.9507 0.2376
vn -0.1783 0.9554 0.2353
vn -0.3252 0.9444 0.0491
vn -0.3219 0.9430 0.0848
vn -0.2635 -0.9613 0.0809
vn -0.3071 -0.9489 -0.0729
vn -0.2802 -0.9588 0.0460
vn -0.3063 -0.9491 -0.0729
vn -0.1885 0.9560 0.2249
vn -0.1763 -0.9529 0.2467
vn -0.3173 0.9456 -0.0715
vn -0.3063 0.9491 -0.0729
vn -0.0292 0.9608 0.2758
vn -0.0181 0.9945 -0.1030
vn 0.3579 0.9297 -0.0872
vn 0.3520 -0.0666 -0.9336
vn -0.0094 -0.0690 -0.9976
vn -0.0260 0.0774 0.9967
vn 0.3536 0.0745 0.9324
vn -0.0184 -0.9989 0.0434
vn 0.3582 -0.9321 0.0526
vn -1.0000 0.0001 -0.0040
vn -1.0000 0.0000 -0.0040
vn 0.9999 0.0004 -0.0146
vn -0.9988 -0.0000 0.0486
vn -0.9389 -0.0000 -0.3441
vn 0.9980 0.0000 -0.0628
vn -0.2246 -0.0000 0.9745
vn -0.4902 -0.0000 -0.8716
vn 0.0819 -0.0000 -0.9966
vn 0.6272 -0.0000 -0.7789
vn 0.6245 -0.0000 -0.7811
vn 0.9949 -0.0000 -0.1013
vn 0.9948 -0.0000 -0.1015
vn 0.8645 -0.0000 0.5026
vn 0.8638 -0.0000 0.5038
vn 0.7711 -0.0000 0.6367
usemtl TT_RTS_Units.001
s 1
f 1/1/1 2/2/2 3/3/3
f 3/3/3 4/4/4 1/1/1
f 33/5/5 1/1/1 4/4/4
f 4/4/4 6/6/6 33/5/5
f 7/7/7 8/8/8 9/9/9
f 9/9/9 10/10/10 7/7/7
f 10/10/10 9/9/9 34/11/11
f 34/11/11 11/12/12 10/10/10
f 2/2/2 1/1/1 9/9/13
f 34/11/11 12/13/14 11/12/12
f 33/5/5 13/14/15 35/15/16
f 5/16/17 9/9/13 1/1/1
f 13/14/15 36/17/18 35/15/16
f 16/18/19 37/19/20 18/20/21
f 19/21/22 20/22/23 17/23/24
f 21/24/25 17/23/24 20/22/23
f 12/13/14 15/25/26 16/18/19
f 22/26/27 17/23/24 36/17/18
f 18/20/21 37/19/20 23/27/28
f 21/24/29 23/27/28 37/19/20
f 34/11/11 14/28/30 12/13/14
f 33/5/5 6/6/6 13/14/15
f 13/14/15 22/26/27 36/17/18
f 16/18/19 15/25/26 37/19/20
f 12/13/14 14/28/30 15/25/26
f 22/26/27 19/21/22 17/23/24
f 24/29/31 25/30/32 26/31/33
f 26/31/33 27/32/34 24/29/31
f 28/33/35 29/34/36 25/30/32
f 25/30/32 24/29/31 28/33/35
f 30/35/37 31/36/38 29/34/36
f 29/34/36 28/33/35 30/35/37
f 27/32/34 26/31/33 31/36/38
f 31/36/38 30/35/37 27/32/34
f 28/33/39 24/29/39 27/32/39
f 27/32/39 30/35/40 28/33/39
f 25/30/32 32/37/41 26/31/33
f 29/34/36 32/37/41 25/30/32
f 31/36/38 32/37/41 29/34/36
f 26/31/33 32/37/41 31/36/38
f 7/7/42 10/10/43 4/4/43
f 4/4/43 3/3/42 7/7/42
f 9/9/44 8/8/44 2/2/44
f 8/8/45 7/7/45 3/3/45
f 3/3/45 2/2/45 8/8/45
f 10/10/43 11/12/46 6/6/46
f 6/6/46 4/4/43 10/10/43
f 13/14/47 12/13/47 16/18/48 22/26/49
f 6/6/46 11/12/46 12/13/47 13/14/47
f 19/21/50 18/20/51 23/27/52 20/22/53
f 22/26/49 16/18/48 18/20/51 19/21/50
f 21/24/54 20/22/53 23/27/52
