# Blender v2.81 (sub 16) OBJ File: 'TinyWorldFences.blend'
# www.blender.org
mtllib ConstructionFences0.mtl
o Construction0_fence_1_Mesh.014
v -0.684273 0.965982 -0.009570
v -0.693036 0.973162 0.309403
v -0.382290 1.018111 0.315656
v -0.373526 1.010931 -0.003316
v -0.523972 -0.261778 0.010533
v -0.180154 -0.212045 0.017451
v -0.187780 -0.203799 0.337106
v -0.531597 -0.253532 0.330188
v 0.899621 -1.150417 0.368798
v 0.926342 -1.170042 0.051350
v 1.194580 -1.007314 0.065148
v 1.167860 -0.987688 0.382594
v 0.249526 -0.101939 0.261248
v 0.546313 0.078108 0.276514
v 0.574644 0.058364 -0.041468
v 0.277859 -0.121681 -0.056734
v 0.018618 1.248757 -0.016435
v 0.010819 1.253570 0.126234
v 0.284389 1.379886 0.108291
v 0.292188 1.375072 -0.034377
v 0.835672 -0.259729 0.103288
v 1.088659 -0.120752 0.085491
v 1.080704 -0.117778 0.214547
v 0.827715 -0.256754 0.232344
v 0.398614 0.463211 0.111782
v 0.704246 0.618468 0.086502
v 0.412636 0.462051 0.016034
v 0.718266 0.617309 -0.009246
v 0.150721 1.507134 0.317589
v 0.275087 1.574162 0.339477
v 0.297344 1.570207 0.038466
v 0.172979 1.503181 0.016579
v 0.990740 0.006673 0.296995
v 1.002979 0.020865 0.008408
v 1.115667 0.080686 0.029630
v 1.103427 0.066494 0.318218
v 0.634098 0.770337 0.354941
v 0.649628 0.775421 0.011594
v 0.552517 0.723824 0.331556
v 0.568047 0.728910 -0.011790
v 0.460772 1.263807 0.317589
v 0.585138 1.330834 0.339477
v 0.607396 1.326880 0.038466
v 0.483031 1.259853 0.016579
v 1.300791 -0.236655 0.296995
v 1.313030 -0.222462 0.008408
v 1.425718 -0.162641 0.029630
v 1.413478 -0.176833 0.318218
v 0.944149 0.527009 0.354941
v 0.959679 0.532093 0.011594
v 0.862568 0.480497 0.331556
v 0.878099 0.485582 -0.011790
v 0.091130 1.105827 0.106138
v 0.083331 1.110641 0.248808
v 0.356901 1.236957 0.230864
v 0.364700 1.232142 0.088196
v 0.908184 -0.402659 0.225862
v 1.161171 -0.263682 0.208065
v 1.153216 -0.260707 0.337120
v 0.900227 -0.399684 0.354917
v 0.471126 0.320282 0.234356
v 0.776758 0.475538 0.209075
v 0.485148 0.319122 0.138607
v 0.790778 0.474379 0.113327
v 0.196349 0.090566 0.326513
v 0.211202 0.088717 0.007690
v 0.490834 0.231009 0.021165
v 0.475982 0.232858 0.339987
v -0.379223 1.186816 0.305281
v -0.069830 1.344251 0.320190
v -0.053398 1.342204 0.000767
v -0.362790 1.184769 -0.014142
v -0.137494 -0.121625 -0.021487
v -0.171374 -0.129429 0.295788
v 0.107406 0.011578 0.327746
v 0.141287 0.019383 0.010472
v 0.404627 -1.234845 -0.002977
v 0.713077 -1.078830 0.032383
v 0.679880 -1.085288 0.350442
v 0.371431 -1.241302 0.315083
vt 0.251983 0.153866
vt 0.251983 0.098862
vt 0.193392 0.098862
vt 0.193392 0.153866
vt 0.251983 0.153866
vt 0.193392 0.153866
vt 0.193392 0.098862
vt 0.251983 0.098862
vt 0.299982 0.053642
vt 0.299982 0.076141
vt 0.194597 0.076141
vt 0.194597 0.053642
vt 0.299982 0.071720
vt 0.194597 0.071720
vt 0.299982 0.094219
vt 0.194597 0.094219
vt 0.251983 0.153866
vt 0.251983 0.098862
vt 0.193392 0.098862
vt 0.193392 0.153866
vt 0.251983 0.153866
vt 0.193392 0.153866
vt 0.193392 0.098862
vt 0.251983 0.098862
vt 0.299982 0.053642
vt 0.299982 0.076141
vt 0.194597 0.076141
vt 0.194597 0.053642
vt 0.299982 0.071720
vt 0.194597 0.071720
vt 0.299982 0.094219
vt 0.194597 0.094219
vt 0.251983 0.153866
vt 0.251983 0.098862
vt 0.193392 0.098862
vt 0.193392 0.153866
vt 0.251983 0.153866
vt 0.193392 0.153866
vt 0.193392 0.098862
vt 0.251983 0.098862
vt 0.194597 0.076141
vt 0.194597 0.053642
vt 0.247290 0.053642
vt 0.247290 0.076141
vt 0.194597 0.071720
vt 0.247290 0.071720
vt 0.194597 0.094219
vt 0.247290 0.094219
vt 0.299982 0.053642
vt 0.299982 0.076141
vt 0.299982 0.071720
vt 0.299982 0.094219
vt 0.251983 0.153866
vt 0.251983 0.098862
vt 0.193392 0.098862
vt 0.193392 0.153866
vt 0.251983 0.153866
vt 0.193392 0.153866
vt 0.193392 0.098862
vt 0.251983 0.098862
vt 0.194597 0.076141
vt 0.194597 0.053642
vt 0.247290 0.053642
vt 0.247290 0.076141
vt 0.194597 0.071720
vt 0.247290 0.071720
vt 0.194597 0.094219
vt 0.247290 0.094219
vt 0.299982 0.053642
vt 0.299982 0.076141
vt 0.299982 0.071720
vt 0.299982 0.094219
vt 0.251983 0.153866
vt 0.251983 0.098862
vt 0.193392 0.098862
vt 0.193392 0.153866
vt 0.251983 0.153866
vt 0.193392 0.153866
vt 0.193392 0.098862
vt 0.251983 0.098862
vt 0.194597 0.076141
vt 0.194597 0.053642
vt 0.247290 0.053642
vt 0.247290 0.076141
vt 0.194597 0.071720
vt 0.247290 0.071720
vt 0.194597 0.094219
vt 0.247290 0.094219
vt 0.299982 0.053642
vt 0.299982 0.076141
vt 0.299982 0.071720
vt 0.299982 0.094219
vt 0.251983 0.153866
vt 0.251983 0.098862
vt 0.193392 0.098862
vt 0.193392 0.153866
vt 0.251983 0.153866
vt 0.193392 0.153866
vt 0.193392 0.098862
vt 0.251983 0.098862
vt 0.194597 0.076141
vt 0.194597 0.053642
vt 0.247290 0.053642
vt 0.247290 0.076141
vt 0.194597 0.071720
vt 0.247290 0.071720
vt 0.194597 0.094219
vt 0.247290 0.094219
vt 0.299982 0.053642
vt 0.299982 0.076141
vt 0.299982 0.071720
vt 0.299982 0.094219
vt 0.251983 0.153866
vt 0.251983 0.098862
vt 0.193392 0.098862
vt 0.193392 0.153866
vt 0.251983 0.153866
vt 0.193392 0.153866
vt 0.193392 0.098862
vt 0.251983 0.098862
vt 0.299982 0.053642
vt 0.299982 0.076141
vt 0.194597 0.076141
vt 0.194597 0.053642
vt 0.299982 0.071720
vt 0.194597 0.071720
vt 0.299982 0.094219
vt 0.194597 0.094219
vt 0.251983 0.153866
vt 0.251983 0.098862
vt 0.193392 0.098862
vt 0.193392 0.153866
vt 0.251983 0.153866
vt 0.193392 0.153866
vt 0.193392 0.098862
vt 0.251983 0.098862
vt 0.299982 0.053642
vt 0.299982 0.076141
vt 0.194597 0.076141
vt 0.194597 0.053642
vt 0.299982 0.071720
vt 0.194597 0.071720
vt 0.299982 0.094219
vt 0.194597 0.094219
vn -0.1426 0.9894 -0.0262
vn 0.1425 -0.9894 0.0289
vn -0.0221 0.0140 0.9997
vn -0.9912 -0.1306 -0.0209
vn -0.9912 -0.1308 -0.0203
vn -0.9912 -0.1300 -0.0237
vn -0.9912 -0.1298 -0.0243
vn 0.0221 -0.0135 -0.9997
vn 0.9874 0.1566 0.0202
vn 0.9875 0.1565 0.0195
vn 0.9873 0.1574 0.0229
vn 0.9872 0.1576 0.0236
vn 0.5127 -0.8532 0.0959
vn -0.5124 0.8530 -0.0986
vn 0.0825 -0.0516 -0.9953
vn -0.8477 -0.5289 -0.0420
vn -0.8477 -0.5288 -0.0427
vn -0.8475 -0.5293 -0.0393
vn -0.8475 -0.5294 -0.0386
vn -0.0822 0.0511 0.9953
vn 0.8611 0.5064 0.0446
vn 0.8610 0.5066 0.0453
vn 0.8617 0.5057 0.0419
vn 0.8618 0.5055 0.0413
vn -0.4215 0.9052 -0.0536
vn 0.4836 -0.8739 0.0500
vn 0.4836 -0.8739 0.0499
vn 0.0638 0.0118 0.9979
vn 0.0602 0.0113 0.9981
vn 0.0334 0.0888 0.9955
vn 0.0355 0.0922 0.9951
vn -0.8969 -0.4404 -0.0405
vn -0.8682 -0.4811 -0.1213
vn -0.8696 -0.4805 -0.1134
vn -0.8975 -0.4397 -0.0342
vn -0.0408 -0.0604 -0.9973
vn -0.0323 -0.0983 -0.9946
vn -0.0301 -0.0960 -0.9949
vn -0.0377 -0.0600 -0.9975
vn 0.8710 0.4898 0.0377
vn 0.8727 0.4727 0.1221
vn 0.8739 0.4727 0.1134
vn 0.8708 0.4907 0.0310
vn -0.0161 0.1558 0.9877
vn -0.0133 0.1590 0.9872
vn -0.8551 -0.5164 -0.0463
vn -0.8553 -0.5166 -0.0408
vn -0.0056 -0.1248 -0.9922
vn -0.0030 -0.1217 -0.9926
vn 0.8896 0.4540 0.0505
vn 0.8906 0.4526 0.0445
vn -0.4676 0.8827 -0.0462
vn 0.4722 -0.8812 -0.0233
vn 0.9116 0.4070 0.0586
vn 0.9109 0.4080 0.0620
vn 0.8753 0.4810 0.0501
vn 0.8744 0.4829 0.0467
vn -0.1536 -0.0507 0.9868
vn -0.2046 -0.1291 0.9703
vn -0.1980 -0.1247 0.9722
vn -0.1484 -0.0473 0.9878
vn -0.8884 -0.4556 -0.0567
vn -0.8711 -0.4889 -0.0466
vn -0.8715 -0.4879 -0.0497
vn -0.8878 -0.4564 -0.0597
vn 0.1274 0.0999 -0.9868
vn 0.2093 0.1207 -0.9704
vn 0.2018 0.1167 -0.9724
vn 0.1211 0.0980 -0.9878
vn 0.8319 0.5514 0.0624
vn 0.8312 0.5529 0.0584
vn -0.1218 -0.1315 0.9838
vn -0.1168 -0.1293 0.9847
vn -0.8524 -0.5196 -0.0579
vn -0.8530 -0.5183 -0.0617
vn 0.1561 0.0689 -0.9853
vn 0.1513 0.0648 -0.9864
vn 0.4524 -0.8915 0.0262
vn -0.4522 0.8914 -0.0290
vn 0.0460 0.0042 -0.9989
vn -0.8847 -0.4643 -0.0419
vn -0.8847 -0.4642 -0.0425
vn -0.8845 -0.4649 -0.0392
vn -0.8844 -0.4651 -0.0385
vn -0.0458 -0.0047 0.9989
vn 0.8966 0.4409 0.0426
vn 0.8965 0.4410 0.0433
vn 0.8970 0.4402 0.0399
vn 0.8971 0.4401 0.0392
vn -0.4488 0.8932 -0.0260
vn 0.4485 -0.8933 0.0287
vn -0.0984 -0.0308 0.9947
vn -0.8932 -0.4377 -0.1028
vn -0.8932 -0.4378 -0.1021
vn -0.8933 -0.4370 -0.1055
vn -0.8933 -0.4368 -0.1061
vn 0.0982 0.0313 -0.9947
vn 0.8814 0.4612 0.1020
vn 0.8816 0.4610 0.1014
vn 0.8808 0.4617 0.1048
vn 0.8807 0.4618 0.1054
usemtl TT_RTS_Buildings_mat.012
s 1
f 1/1/1 2/2/1 3/3/1
f 3/3/1 4/4/1 1/1/1
f 5/5/2 6/6/2 7/7/2
f 7/7/2 8/8/2 5/5/2
f 8/9/3 7/10/3 3/11/3
f 3/11/3 2/12/3 8/9/3
f 5/13/4 8/9/5 2/12/6
f 2/12/6 1/14/7 5/13/4
f 6/15/8 5/13/8 1/14/8
f 1/14/8 4/16/8 6/15/8
f 7/10/9 6/15/10 4/16/11
f 4/16/11 3/11/12 7/10/9
f 9/17/13 10/18/13 11/19/13
f 11/19/13 12/20/13 9/17/13
f 13/21/14 14/22/14 15/23/14
f 15/23/14 16/24/14 13/21/14
f 16/25/15 15/26/15 11/27/15
f 11/27/15 10/28/15 16/25/15
f 13/29/16 16/25/17 10/28/18
f 10/28/18 9/30/19 13/29/16
f 14/31/20 13/29/20 9/30/20
f 9/30/20 12/32/20 14/31/20
f 15/26/21 14/31/22 12/32/23
f 12/32/23 11/27/24 15/26/21
f 17/33/25 18/34/25 19/35/25
f 19/35/25 20/36/25 17/33/25
f 21/37/26 22/38/27 23/39/26
f 23/39/26 24/40/26 21/37/26
f 19/41/28 18/42/29 25/43/30
f 25/43/30 26/44/31 19/41/28
f 17/45/32 27/46/33 25/43/34
f 25/43/34 18/42/35 17/45/32
f 20/47/36 28/48/37 27/46/38
f 27/46/38 17/45/39 20/47/36
f 19/41/40 26/44/41 28/48/42
f 28/48/42 20/47/43 19/41/40
f 25/43/30 24/49/44 23/50/45
f 23/50/45 26/44/31 25/43/30
f 21/51/46 24/49/47 25/43/34
f 25/43/34 27/46/33 21/51/46
f 22/52/48 21/51/49 27/46/38
f 27/46/38 28/48/37 22/52/48
f 23/50/50 22/52/51 28/48/42
f 28/48/42 26/44/41 23/50/50
f 29/53/52 30/54/52 31/55/52
f 31/55/52 32/56/52 29/53/52
f 33/57/53 34/58/53 35/59/53
f 35/59/53 36/60/53 33/57/53
f 31/61/54 30/62/55 37/63/56
f 37/63/56 38/64/57 31/61/54
f 29/65/58 39/66/59 37/63/60
f 37/63/60 30/62/61 29/65/58
f 32/67/62 40/68/63 39/66/64
f 39/66/64 29/65/65 32/67/62
f 31/61/66 38/64/67 40/68/68
f 40/68/68 32/67/69 31/61/66
f 37/63/56 36/69/70 35/70/71
f 35/70/71 38/64/57 37/63/56
f 33/71/72 36/69/73 37/63/60
f 37/63/60 39/66/59 33/71/72
f 34/72/74 33/71/75 39/66/64
f 39/66/64 40/68/63 34/72/74
f 35/70/76 34/72/77 40/68/68
f 40/68/68 38/64/67 35/70/76
f 41/73/52 42/74/52 43/75/52
f 43/75/52 44/76/52 41/73/52
f 45/77/53 46/78/53 47/79/53
f 47/79/53 48/80/53 45/77/53
f 43/81/54 42/82/55 49/83/56
f 49/83/56 50/84/57 43/81/54
f 41/85/58 51/86/59 49/83/60
f 49/83/60 42/82/61 41/85/58
f 44/87/62 52/88/63 51/86/64
f 51/86/64 41/85/65 44/87/62
f 43/81/66 50/84/67 52/88/68
f 52/88/68 44/87/69 43/81/66
f 49/83/56 48/89/70 47/90/71
f 47/90/71 50/84/57 49/83/56
f 45/91/72 48/89/73 49/83/60
f 49/83/60 51/86/59 45/91/72
f 46/92/74 45/91/75 51/86/64
f 51/86/64 52/88/63 46/92/74
f 47/90/76 46/92/77 52/88/68
f 52/88/68 50/84/67 47/90/76
f 53/93/25 54/94/25 55/95/25
f 55/95/25 56/96/25 53/93/25
f 57/97/26 58/98/27 59/99/26
f 59/99/26 60/100/26 57/97/26
f 55/101/28 54/102/29 61/103/30
f 61/103/30 62/104/31 55/101/28
f 53/105/32 63/106/33 61/103/34
f 61/103/34 54/102/35 53/105/32
f 56/107/36 64/108/37 63/106/38
f 63/106/38 53/105/39 56/107/36
f 55/101/40 62/104/41 64/108/42
f 64/108/42 56/107/43 55/101/40
f 61/103/30 60/109/44 59/110/45
f 59/110/45 62/104/31 61/103/30
f 57/111/46 60/109/47 61/103/34
f 61/103/34 63/106/33 57/111/46
f 58/112/48 57/111/49 63/106/38
f 63/106/38 64/108/37 58/112/48
f 59/110/50 58/112/51 64/108/42
f 64/108/42 62/104/41 59/110/50
f 65/113/78 66/114/78 67/115/78
f 67/115/78 68/116/78 65/113/78
f 69/117/79 70/118/79 71/119/79
f 71/119/79 72/120/79 69/117/79
f 72/121/80 71/122/80 67/123/80
f 67/123/80 66/124/80 72/121/80
f 69/125/81 72/121/82 66/124/83
f 66/124/83 65/126/84 69/125/81
f 70/127/85 69/125/85 65/126/85
f 65/126/85 68/128/85 70/127/85
f 71/122/86 70/127/87 68/128/88
f 68/128/88 67/123/89 71/122/86
f 73/129/90 74/130/90 75/131/90
f 75/131/90 76/132/90 73/129/90
f 77/133/91 78/134/91 79/135/91
f 79/135/91 80/136/91 77/133/91
f 80/137/92 79/138/92 75/139/92
f 75/139/92 74/140/92 80/137/92
f 77/141/93 80/137/94 74/140/95
f 74/140/95 73/142/96 77/141/93
f 78/143/97 77/141/97 73/142/97
f 73/142/97 76/144/97 78/143/97
f 79/138/98 78/143/99 76/144/100
f 76/144/100 75/139/101 79/138/98
