# Blender v2.81 (sub 16) OBJ File: 'TinyWorldFences.blend'
# www.blender.org
mtllib ConstructionFences0.mtl
o Construction0_fence_1_Mesh.014
v 1.010984 -0.009570 -0.393051
v 1.021351 0.309403 -0.397618
v 0.920844 0.315656 -0.100159
v 0.910477 -0.003316 -0.095591
v -0.156456 0.010533 -0.805576
v -0.267659 0.017451 -0.476459
v -0.256856 0.337106 -0.479529
v -0.145653 0.330188 -0.808645
v -1.593024 0.368798 0.061930
v -1.622616 0.051350 0.076881
v -1.598855 0.065148 0.389719
v -1.569264 0.382594 0.374769
v -0.363869 0.261248 -0.043455
v -0.337580 0.276514 0.302677
v -0.368006 -0.041468 0.319011
v -0.394294 -0.056734 -0.027121
v 0.945149 -0.016435 0.361722
v 0.952971 0.126234 0.356945
v 0.941846 0.108291 0.658064
v 0.934024 -0.034377 0.662841
v -0.769778 0.103288 0.407879
v -0.760299 0.085491 0.696369
v -0.754047 0.214547 0.690621
v -0.763526 0.232344 0.402129
v 0.072678 0.111782 0.345194
v 0.072857 0.086502 0.687999
v 0.065300 0.016034 0.357174
v 0.065480 -0.009246 0.699978
v 1.115802 0.317589 0.596430
v 1.119309 0.339477 0.737665
v 1.105712 0.038466 0.755725
v 1.102205 0.016579 0.614491
v -0.602360 0.296995 0.666697
v -0.595240 0.008408 0.684033
v -0.592876 0.029630 0.811593
v -0.599995 0.318218 0.794256
v 0.240031 0.354941 0.694152
v 0.237538 0.011594 0.710302
v 0.235461 0.331556 0.600355
v 0.232970 -0.011790 0.616505
v 0.758525 0.317589 0.762844
v 0.762032 0.339477 0.904078
v 0.748436 0.038466 0.922138
v 0.744928 0.016579 0.780905
v -0.959637 0.296995 0.833110
v -0.952517 0.008408 0.850446
v -0.950153 0.029630 0.978006
v -0.957272 0.318218 0.960670
v -0.117246 0.354941 0.860566
v -0.119738 0.011594 0.876716
v -0.121815 0.331556 0.766768
v -0.124307 -0.011790 0.782919
v 0.784878 0.106138 0.361722
v 0.792700 0.248808 0.356945
v 0.781575 0.230864 0.658064
v 0.773753 0.088196 0.662841
v -0.930050 0.225862 0.407878
v -0.920570 0.208065 0.696369
v -0.914318 0.337120 0.690620
v -0.923797 0.354917 0.402129
v -0.087593 0.234356 0.345194
v -0.087414 0.209075 0.687999
v -0.094971 0.138607 0.357174
v -0.094791 0.113327 0.699978
v -0.168134 0.326513 -0.003783
v -0.176503 0.007690 0.008626
v -0.176123 0.021165 0.322379
v -0.167754 0.339987 0.309971
v 1.069907 0.305281 -0.021096
v 1.070327 0.320190 0.326049
v 1.061067 0.000767 0.339777
v 1.060647 -0.014142 -0.007366
v -0.206324 -0.021487 -0.397506
v -0.197955 0.295788 -0.431251
v -0.198335 0.327746 -0.118839
v -0.206704 0.010472 -0.085093
v -1.444365 -0.002977 -0.417702
v -1.444785 0.032383 -0.072041
v -1.435525 0.350442 -0.104568
v -1.435105 0.315083 -0.450228
vt 0.251983 0.153866
vt 0.251983 0.098862
vt 0.193392 0.098862
vt 0.193392 0.153866
vt 0.251983 0.153866
vt 0.193392 0.153866
vt 0.193392 0.098862
vt 0.251983 0.098862
vt 0.299982 0.053642
vt 0.299982 0.076141
vt 0.194597 0.076141
vt 0.194597 0.053642
vt 0.299982 0.071720
vt 0.194597 0.071720
vt 0.299982 0.094219
vt 0.194597 0.094219
vt 0.251983 0.153866
vt 0.251983 0.098862
vt 0.193392 0.098862
vt 0.193392 0.153866
vt 0.251983 0.153866
vt 0.193392 0.153866
vt 0.193392 0.098862
vt 0.251983 0.098862
vt 0.299982 0.053642
vt 0.299982 0.076141
vt 0.194597 0.076141
vt 0.194597 0.053642
vt 0.299982 0.071720
vt 0.194597 0.071720
vt 0.299982 0.094219
vt 0.194597 0.094219
vt 0.251983 0.153866
vt 0.251983 0.098862
vt 0.193392 0.098862
vt 0.193392 0.153866
vt 0.251983 0.153866
vt 0.193392 0.153866
vt 0.193392 0.098862
vt 0.251983 0.098862
vt 0.194597 0.076141
vt 0.194597 0.053642
vt 0.247290 0.053642
vt 0.247290 0.076141
vt 0.194597 0.071720
vt 0.247290 0.071720
vt 0.194597 0.094219
vt 0.247290 0.094219
vt 0.299982 0.053642
vt 0.299982 0.076141
vt 0.299982 0.071720
vt 0.299982 0.094219
vt 0.251983 0.153866
vt 0.251983 0.098862
vt 0.193392 0.098862
vt 0.193392 0.153866
vt 0.251983 0.153866
vt 0.193392 0.153866
vt 0.193392 0.098862
vt 0.251983 0.098862
vt 0.194597 0.076141
vt 0.194597 0.053642
vt 0.247290 0.053642
vt 0.247290 0.076141
vt 0.194597 0.071720
vt 0.247290 0.071720
vt 0.194597 0.094219
vt 0.247290 0.094219
vt 0.299982 0.053642
vt 0.299982 0.076141
vt 0.299982 0.071720
vt 0.299982 0.094219
vt 0.251983 0.153866
vt 0.251983 0.098862
vt 0.193392 0.098862
vt 0.193392 0.153866
vt 0.251983 0.153866
vt 0.193392 0.153866
vt 0.193392 0.098862
vt 0.251983 0.098862
vt 0.194597 0.076141
vt 0.194597 0.053642
vt 0.247290 0.053642
vt 0.247290 0.076141
vt 0.194597 0.071720
vt 0.247290 0.071720
vt 0.194597 0.094219
vt 0.247290 0.094219
vt 0.299982 0.053642
vt 0.299982 0.076141
vt 0.299982 0.071720
vt 0.299982 0.094219
vt 0.251983 0.153866
vt 0.251983 0.098862
vt 0.193392 0.098862
vt 0.193392 0.153866
vt 0.251983 0.153866
vt 0.193392 0.153866
vt 0.193392 0.098862
vt 0.251983 0.098862
vt 0.194597 0.076141
vt 0.194597 0.053642
vt 0.247290 0.053642
vt 0.247290 0.076141
vt 0.194597 0.071720
vt 0.247290 0.071720
vt 0.194597 0.094219
vt 0.247290 0.094219
vt 0.299982 0.053642
vt 0.299982 0.076141
vt 0.299982 0.071720
vt 0.299982 0.094219
vt 0.251983 0.153866
vt 0.251983 0.098862
vt 0.193392 0.098862
vt 0.193392 0.153866
vt 0.251983 0.153866
vt 0.193392 0.153866
vt 0.193392 0.098862
vt 0.251983 0.098862
vt 0.299982 0.053642
vt 0.299982 0.076141
vt 0.194597 0.076141
vt 0.194597 0.053642
vt 0.299982 0.071720
vt 0.194597 0.071720
vt 0.299982 0.094219
vt 0.194597 0.094219
vt 0.251983 0.153866
vt 0.251983 0.098862
vt 0.193392 0.098862
vt 0.193392 0.153866
vt 0.251983 0.153866
vt 0.193392 0.153866
vt 0.193392 0.098862
vt 0.251983 0.098862
vt 0.299982 0.053642
vt 0.299982 0.076141
vt 0.194597 0.076141
vt 0.194597 0.053642
vt 0.299982 0.071720
vt 0.194597 0.071720
vt 0.299982 0.094219
vt 0.194597 0.094219
vn 0.9469 -0.0262 0.3205
vn -0.9468 0.0289 -0.3205
vn 0.0225 0.9997 -0.0134
vn 0.3320 -0.0209 -0.9431
vn 0.3318 -0.0203 -0.9431
vn 0.3326 -0.0237 -0.9428
vn 0.3327 -0.0243 -0.9427
vn -0.0220 -0.9997 0.0136
vn -0.3071 0.0202 0.9515
vn -0.3072 0.0195 0.9514
vn -0.3063 0.0229 0.9517
vn -0.3061 0.0236 0.9517
vn -0.9928 0.0959 0.0712
vn 0.9926 -0.0986 -0.0710
vn -0.0833 -0.9953 0.0502
vn -0.0881 -0.0420 -0.9952
vn -0.0880 -0.0427 -0.9952
vn -0.0886 -0.0393 -0.9953
vn -0.0887 -0.0386 -0.9953
vn 0.0828 0.9953 -0.0502
vn 0.0620 0.0446 0.9971
vn 0.0623 0.0453 0.9970
vn 0.0611 0.0419 0.9973
vn 0.0609 0.0413 0.9973
vn 0.9980 -0.0536 0.0337
vn -0.9981 0.0500 0.0359
vn -0.9981 0.0499 0.0359
vn -0.0184 0.9979 0.0623
vn -0.0172 0.9981 0.0588
vn 0.0641 0.9955 0.0700
vn 0.0662 0.9951 0.0734
vn 0.0130 -0.0405 -0.9991
vn -0.0362 -0.1213 -0.9920
vn -0.0350 -0.1134 -0.9929
vn 0.0139 -0.0342 -0.9993
vn -0.0355 -0.9973 -0.0637
vn -0.0731 -0.9946 -0.0733
vn -0.0720 -0.9949 -0.0703
vn -0.0365 -0.9975 -0.0608
vn 0.0427 0.0377 0.9984
vn 0.0267 0.1221 0.9922
vn 0.0262 0.1134 0.9932
vn 0.0436 0.0310 0.9986
vn 0.1462 0.9877 0.0561
vn 0.1478 0.9872 0.0601
vn -0.0737 -0.0463 -0.9962
vn -0.0737 -0.0408 -0.9964
vn -0.1087 -0.9922 -0.0614
vn -0.1072 -0.9926 -0.0577
vn 0.0024 0.0505 0.9987
vn 0.0007 0.0445 0.9990
vn 0.9988 -0.0462 -0.0176
vn -0.9995 -0.0233 0.0224
vn -0.0495 0.0586 0.9971
vn -0.0482 0.0620 0.9969
vn 0.0329 0.0501 0.9982
vn 0.0350 0.0467 0.9983
vn 0.0242 0.9868 -0.1599
vn -0.0225 0.9703 -0.2408
vn -0.0216 0.9722 -0.2330
vn 0.0250 0.9878 -0.1537
vn -0.0043 -0.0567 -0.9984
vn -0.0419 -0.0466 -0.9980
vn -0.0409 -0.0497 -0.9979
vn -0.0054 -0.0597 -0.9982
vn 0.0315 -0.9868 0.1588
vn 0.0129 -0.9704 0.2413
vn 0.0127 -0.9724 0.2328
vn 0.0326 -0.9878 0.1523
vn 0.1154 0.0624 0.9914
vn 0.1170 0.0584 0.9914
vn -0.0622 0.9838 -0.1681
vn -0.0624 0.9847 -0.1627
vn -0.0777 -0.0579 -0.9953
vn -0.0763 -0.0617 -0.9952
vn -0.0092 -0.9853 0.1703
vn -0.0107 -0.9864 0.1643
vn -0.9997 0.0262 0.0001
vn 0.9996 -0.0290 0.0000
vn -0.0171 -0.9989 0.0429
vn -0.0138 -0.0419 -0.9990
vn -0.0137 -0.0425 -0.9990
vn -0.0145 -0.0392 -0.9991
vn -0.0146 -0.0385 -0.9992
vn 0.0165 0.9989 -0.0429
vn -0.0125 0.0426 0.9990
vn -0.0123 0.0433 0.9990
vn -0.0132 0.0399 0.9991
vn -0.0134 0.0392 0.9991
vn 0.9997 -0.0260 0.0039
vn -0.9996 0.0287 -0.0041
vn 0.0171 0.9947 -0.1017
vn 0.0138 -0.1028 -0.9946
vn 0.0137 -0.1021 -0.9947
vn 0.0145 -0.1055 -0.9943
vn 0.0146 -0.1061 -0.9942
vn -0.0165 -0.9947 0.1017
vn 0.0125 0.1020 0.9947
vn 0.0123 0.1014 0.9948
vn 0.0132 0.1048 0.9944
vn 0.0134 0.1054 0.9943
usemtl TT_RTS_Buildings_mat.013
s 1
f 1/1/1 2/2/1 3/3/1
f 3/3/1 4/4/1 1/1/1
f 5/5/2 6/6/2 7/7/2
f 7/7/2 8/8/2 5/5/2
f 8/9/3 7/10/3 3/11/3
f 3/11/3 2/12/3 8/9/3
f 5/13/4 8/9/5 2/12/6
f 2/12/6 1/14/7 5/13/4
f 6/15/8 5/13/8 1/14/8
f 1/14/8 4/16/8 6/15/8
f 7/10/9 6/15/10 4/16/11
f 4/16/11 3/11/12 7/10/9
usemtl TT_RTS_Buildings_mat.007
f 9/17/13 10/18/13 11/19/13
f 11/19/13 12/20/13 9/17/13
f 13/21/14 14/22/14 15/23/14
f 15/23/14 16/24/14 13/21/14
f 16/25/15 15/26/15 11/27/15
f 11/27/15 10/28/15 16/25/15
f 13/29/16 16/25/17 10/28/18
f 10/28/18 9/30/19 13/29/16
f 14/31/20 13/29/20 9/30/20
f 9/30/20 12/32/20 14/31/20
f 15/26/21 14/31/22 12/32/23
f 12/32/23 11/27/24 15/26/21
usemtl TT_RTS_Buildings_mat.001
f 17/33/25 18/34/25 19/35/25
f 19/35/25 20/36/25 17/33/25
f 21/37/26 22/38/27 23/39/26
f 23/39/26 24/40/26 21/37/26
f 19/41/28 18/42/29 25/43/30
f 25/43/30 26/44/31 19/41/28
f 17/45/32 27/46/33 25/43/34
f 25/43/34 18/42/35 17/45/32
f 20/47/36 28/48/37 27/46/38
f 27/46/38 17/45/39 20/47/36
f 19/41/40 26/44/41 28/48/42
f 28/48/42 20/47/43 19/41/40
f 25/43/30 24/49/44 23/50/45
f 23/50/45 26/44/31 25/43/30
f 21/51/46 24/49/47 25/43/34
f 25/43/34 27/46/33 21/51/46
f 22/52/48 21/51/49 27/46/38
f 27/46/38 28/48/37 22/52/48
f 23/50/50 22/52/51 28/48/42
f 28/48/42 26/44/41 23/50/50
usemtl TT_RTS_Buildings_mat.008
f 29/53/52 30/54/52 31/55/52
f 31/55/52 32/56/52 29/53/52
f 33/57/53 34/58/53 35/59/53
f 35/59/53 36/60/53 33/57/53
f 31/61/54 30/62/55 37/63/56
f 37/63/56 38/64/57 31/61/54
f 29/65/58 39/66/59 37/63/60
f 37/63/60 30/62/61 29/65/58
f 32/67/62 40/68/63 39/66/64
f 39/66/64 29/65/65 32/67/62
f 31/61/66 38/64/67 40/68/68
f 40/68/68 32/67/69 31/61/66
f 37/63/56 36/69/70 35/70/71
f 35/70/71 38/64/57 37/63/56
f 33/71/72 36/69/73 37/63/60
f 37/63/60 39/66/59 33/71/72
f 34/72/74 33/71/75 39/66/64
f 39/66/64 40/68/63 34/72/74
f 35/70/76 34/72/77 40/68/68
f 40/68/68 38/64/67 35/70/76
usemtl TT_RTS_Buildings_mat.009
f 41/73/52 42/74/52 43/75/52
f 43/75/52 44/76/52 41/73/52
f 45/77/53 46/78/53 47/79/53
f 47/79/53 48/80/53 45/77/53
f 43/81/54 42/82/55 49/83/56
f 49/83/56 50/84/57 43/81/54
f 41/85/58 51/86/59 49/83/60
f 49/83/60 42/82/61 41/85/58
f 44/87/62 52/88/63 51/86/64
f 51/86/64 41/85/65 44/87/62
f 43/81/66 50/84/67 52/88/68
f 52/88/68 44/87/69 43/81/66
f 49/83/56 48/89/70 47/90/71
f 47/90/71 50/84/57 49/83/56
f 45/91/72 48/89/73 49/83/60
f 49/83/60 51/86/59 45/91/72
f 46/92/74 45/91/75 51/86/64
f 51/86/64 52/88/63 46/92/74
f 47/90/76 46/92/77 52/88/68
f 52/88/68 50/84/67 47/90/76
usemtl TT_RTS_Buildings_mat.010
f 53/93/25 54/94/25 55/95/25
f 55/95/25 56/96/25 53/93/25
f 57/97/26 58/98/27 59/99/26
f 59/99/26 60/100/26 57/97/26
f 55/101/28 54/102/29 61/103/30
f 61/103/30 62/104/31 55/101/28
f 53/105/32 63/106/33 61/103/34
f 61/103/34 54/102/35 53/105/32
f 56/107/36 64/108/37 63/106/38
f 63/106/38 53/105/39 56/107/36
f 55/101/40 62/104/41 64/108/42
f 64/108/42 56/107/43 55/101/40
f 61/103/30 60/109/44 59/110/45
f 59/110/45 62/104/31 61/103/30
f 57/111/46 60/109/47 61/103/34
f 61/103/34 63/106/33 57/111/46
f 58/112/48 57/111/49 63/106/38
f 63/106/38 64/108/37 58/112/48
f 59/110/50 58/112/51 64/108/42
f 64/108/42 62/104/41 59/110/50
usemtl TT_RTS_Buildings_mat.011
f 65/113/78 66/114/78 67/115/78
f 67/115/78 68/116/78 65/113/78
f 69/117/79 70/118/79 71/119/79
f 71/119/79 72/120/79 69/117/79
f 72/121/80 71/122/80 67/123/80
f 67/123/80 66/124/80 72/121/80
f 69/125/81 72/121/82 66/124/83
f 66/124/83 65/126/84 69/125/81
f 70/127/85 69/125/85 65/126/85
f 65/126/85 68/128/85 70/127/85
f 71/122/86 70/127/87 68/128/88
f 68/128/88 67/123/89 71/122/86
usemtl TT_RTS_Buildings_mat.012
f 73/129/90 74/130/90 75/131/90
f 75/131/90 76/132/90 73/129/90
f 77/133/91 78/134/91 79/135/91
f 79/135/91 80/136/91 77/133/91
f 80/137/92 79/138/92 75/139/92
f 75/139/92 74/140/92 80/137/92
f 77/141/93 80/137/94 74/140/95
f 74/140/95 73/142/96 77/141/93
f 78/143/97 77/141/97 73/142/97
f 73/142/97 76/144/97 78/143/97
f 79/138/98 78/143/99 76/144/100
f 76/144/100 75/139/101 79/138/98
