# Blender v2.81 (sub 16) OBJ File: ''
# www.blender.org
mtllib Fence_F.mtl
o Fence_F_fence_1_Mesh.010
v -1.827283 -0.367729 -0.126818
v -1.853803 -0.368214 0.150230
v -2.241380 -0.342465 0.121517
v -2.214859 -0.341979 -0.155531
v -1.818967 0.826410 -0.130462
v -2.151240 0.848508 -0.162230
v -2.180583 0.847971 0.144303
v -1.848309 0.825872 0.176071
v -2.055530 0.683831 -1.745760
v -1.914366 0.705302 -1.753416
v -1.896812 0.404286 -1.738183
v -2.037976 0.382815 -1.730526
v -2.045914 0.673624 -0.008469
v -2.029566 0.384967 -0.015599
v -1.902046 0.405815 -0.021654
v -1.918395 0.694472 -0.014525
v -1.935770 0.725150 -0.739165
v -1.920521 0.381768 -0.735706
v -2.029489 0.702049 -0.731635
v -2.014240 0.358667 -0.728176
v -2.054023 0.718507 0.132775
v -1.912901 0.740500 0.126486
v -1.894601 0.439275 0.133358
v -2.035722 0.417283 0.139647
v -2.048170 0.661956 1.849178
v -2.031066 0.373586 1.835621
v -1.903590 0.394885 1.830774
v -1.920694 0.683256 1.844330
v -1.936215 0.737537 1.006662
v -1.920089 0.394217 1.001592
v -2.029888 0.714037 1.012892
v -2.013762 0.370718 1.007822
v -2.137005 -0.291865 -2.054111
v -1.818182 -0.300234 -2.041702
v -1.831657 -0.299854 -1.727949
v -2.150479 -0.291485 -1.740357
v -2.115773 0.946176 -2.071424
v -2.130682 0.946596 -1.724279
v -1.811259 0.937336 -1.710551
v -1.796350 0.936916 -2.057695
v -1.857661 -0.296125 1.778331
v -1.839538 -0.303387 2.055960
v -2.141125 -0.295593 2.075851
v -2.159248 -0.288331 1.798222
v -1.809879 0.895049 1.791521
v -2.143562 0.903672 1.813529
v -2.123510 0.895638 2.120705
v -1.789826 0.887014 2.098697
v 2.172717 -0.367729 -0.126818
v 2.146197 -0.368214 0.150230
v 1.758620 -0.342465 0.121517
v 1.785141 -0.341979 -0.155531
v 2.181033 0.826410 -0.130462
v 1.848760 0.848508 -0.162230
v 1.819417 0.847971 0.144303
v 2.151691 0.825872 0.176071
v 1.944470 0.683831 -1.745760
v 2.085634 0.705302 -1.753416
v 2.103188 0.404286 -1.738183
v 1.962024 0.382815 -1.730526
v 1.954086 0.673624 -0.008469
v 1.970434 0.384967 -0.015599
v 2.097954 0.405815 -0.021654
v 2.081605 0.694472 -0.014525
v 2.064230 0.725150 -0.739165
v 2.079479 0.381768 -0.735706
v 1.970511 0.702049 -0.731635
v 1.985760 0.358667 -0.728176
v 1.945977 0.718507 0.132775
v 2.087099 0.740500 0.126486
v 2.105399 0.439275 0.133358
v 1.964278 0.417283 0.139647
v 1.951830 0.661956 1.849178
v 1.968934 0.373586 1.835621
v 2.096410 0.394885 1.830774
v 2.079306 0.683256 1.844330
v 2.063785 0.737537 1.006662
v 2.079911 0.394217 1.001592
v 1.970112 0.714037 1.012892
v 1.986238 0.370718 1.007822
v 1.862995 -0.291865 -2.054111
v 2.181818 -0.300234 -2.041702
v 2.168343 -0.299854 -1.727949
v 1.849521 -0.291485 -1.740357
v 1.884227 0.946176 -2.071424
v 1.869318 0.946596 -1.724279
v 2.188741 0.937336 -1.710551
v 2.203650 0.936916 -2.057695
v 2.142339 -0.296125 1.778331
v 2.160462 -0.303387 2.055960
v 1.858875 -0.295593 2.075851
v 1.840752 -0.288331 1.798222
v 2.190121 0.895049 1.791521
v 1.856438 0.903672 1.813529
v 1.876490 0.895638 2.120705
v 2.210174 0.887014 2.098697
v 0.124955 -0.367729 -1.825930
v -0.151792 -0.368214 -1.855425
v -0.118917 -0.342465 -2.242671
v 0.157830 -0.341979 -2.213176
v 0.128510 0.826410 -1.817576
v 0.163846 0.848508 -2.149488
v -0.142354 0.847971 -2.182122
v -0.177690 0.825872 -1.850209
v 1.898906 0.683831 -2.036774
v 1.905045 0.705302 -1.895535
v 1.889624 0.404286 -1.878146
v 1.883484 0.382815 -2.019384
v 0.008962 0.673624 -2.045820
v 0.015916 0.384967 -2.029397
v 0.020600 0.405815 -1.901819
v 0.013647 0.694472 -1.918244
v 0.961555 0.725150 -1.927833
v 0.957933 0.381768 -1.912623
v 0.731909 0.702049 -2.021628
v 0.951410 0.358667 -2.006417
v -0.132187 0.718507 -2.055446
v -0.127414 0.740500 -1.914265
v -0.134482 0.439275 -1.896040
v -0.139255 0.417283 -2.037220
v -1.848554 0.661956 -1.964194
v -1.835181 0.373586 -1.946946
v -1.831704 0.394885 -1.819425
v -1.845076 0.683256 -1.836673
v -1.007289 0.737537 -1.947032
v -1.002393 0.394217 -1.930853
v -1.012513 0.714037 -2.040767
v -1.007616 0.370718 -2.024587
v 0.124955 -0.367729 2.174070
v -0.151792 -0.368214 2.144575
v -0.118917 -0.342465 1.757329
v 0.157830 -0.341979 1.786824
v 0.128510 0.826410 2.182424
v 0.163846 0.848508 1.850512
v -0.142354 0.847971 1.817878
v -0.177690 0.825872 2.149791
v 1.905063 0.683831 1.877018
v 1.911202 0.705302 2.018256
v 1.895782 0.404286 2.035645
v 1.889642 0.382815 1.894407
v 0.008962 0.673624 1.954180
v 0.015916 0.384967 1.970603
v 0.020600 0.405815 2.098181
v 0.013647 0.694472 2.081756
v 0.940906 0.725150 2.072166
v 0.937283 0.381768 2.087378
v 0.934383 0.702049 1.978372
v 0.930760 0.358667 1.993583
v -0.132187 0.718507 1.944554
v -0.127414 0.740500 2.085735
v -0.134482 0.439275 2.103960
v -0.139255 0.417283 1.962780
v -1.848554 0.661956 1.931969
v -1.835181 0.373586 1.949217
v -1.831704 0.394885 2.076738
v -1.845075 0.683256 2.059489
v -1.007289 0.737537 2.052968
v -1.002393 0.394217 2.069147
v -1.012513 0.714037 1.959233
v -1.007616 0.370718 1.975413
vt 0.251983 0.153866
vt 0.193392 0.153866
vt 0.193392 0.098862
vt 0.251983 0.098862
vt 0.299982 0.053642
vt 0.299982 0.076141
vt 0.194597 0.076141
vt 0.194597 0.053642
vt 0.299982 0.071720
vt 0.194597 0.071720
vt 0.299982 0.094219
vt 0.194597 0.094219
vt 0.194597 0.076141
vt 0.194597 0.053642
vt 0.247290 0.053642
vt 0.247290 0.076141
vt 0.194597 0.071720
vt 0.247290 0.071720
vt 0.194597 0.094219
vt 0.247290 0.094219
vt 0.299982 0.053642
vt 0.299982 0.076141
vt 0.299982 0.071720
vt 0.299982 0.094219
vt 0.194597 0.076141
vt 0.194597 0.053642
vt 0.247290 0.053642
vt 0.247290 0.076141
vt 0.194597 0.071720
vt 0.247290 0.071720
vt 0.194597 0.094219
vt 0.247290 0.094219
vt 0.299982 0.053642
vt 0.299982 0.076141
vt 0.299982 0.071720
vt 0.299982 0.094219
vt 0.251983 0.153866
vt 0.193392 0.153866
vt 0.193392 0.098862
vt 0.251983 0.098862
vt 0.299982 0.053642
vt 0.299982 0.076141
vt 0.194597 0.076141
vt 0.194597 0.053642
vt 0.299982 0.071720
vt 0.194597 0.071720
vt 0.299982 0.094219
vt 0.194597 0.094219
vt 0.251983 0.153866
vt 0.193392 0.153866
vt 0.193392 0.098862
vt 0.251983 0.098862
vt 0.299982 0.053642
vt 0.299982 0.076141
vt 0.194597 0.076141
vt 0.194597 0.053642
vt 0.299982 0.071720
vt 0.194597 0.071720
vt 0.299982 0.094219
vt 0.194597 0.094219
vt 0.251983 0.153866
vt 0.193392 0.153866
vt 0.193392 0.098862
vt 0.251983 0.098862
vt 0.299982 0.053642
vt 0.299982 0.076141
vt 0.194597 0.076141
vt 0.194597 0.053642
vt 0.299982 0.071720
vt 0.194597 0.071720
vt 0.299982 0.094219
vt 0.194597 0.094219
vt 0.194597 0.076141
vt 0.194597 0.053642
vt 0.247290 0.053642
vt 0.247290 0.076141
vt 0.194597 0.071720
vt 0.247290 0.071720
vt 0.194597 0.094219
vt 0.247290 0.094219
vt 0.299982 0.053642
vt 0.299982 0.076141
vt 0.299982 0.071720
vt 0.299982 0.094219
vt 0.194597 0.076141
vt 0.194597 0.053642
vt 0.247290 0.053642
vt 0.247290 0.076141
vt 0.194597 0.071720
vt 0.247290 0.071720
vt 0.194597 0.094219
vt 0.247290 0.094219
vt 0.299982 0.053642
vt 0.299982 0.076141
vt 0.299982 0.071720
vt 0.299982 0.094219
vt 0.251983 0.153866
vt 0.193392 0.153866
vt 0.193392 0.098862
vt 0.251983 0.098862
vt 0.299982 0.053642
vt 0.299982 0.076141
vt 0.194597 0.076141
vt 0.194597 0.053642
vt 0.299982 0.071720
vt 0.194597 0.071720
vt 0.299982 0.094219
vt 0.194597 0.094219
vt 0.251983 0.153866
vt 0.193392 0.153866
vt 0.193392 0.098862
vt 0.251983 0.098862
vt 0.299982 0.053642
vt 0.299982 0.076141
vt 0.194597 0.076141
vt 0.194597 0.053642
vt 0.299982 0.071720
vt 0.194597 0.071720
vt 0.299982 0.094219
vt 0.194597 0.094219
vt 0.251983 0.153866
vt 0.193392 0.153866
vt 0.193392 0.098862
vt 0.251983 0.098862
vt 0.299982 0.053642
vt 0.299982 0.076141
vt 0.194597 0.076141
vt 0.194597 0.053642
vt 0.299982 0.071720
vt 0.194597 0.071720
vt 0.299982 0.094219
vt 0.194597 0.094219
vt 0.194597 0.076141
vt 0.194597 0.053642
vt 0.247290 0.053642
vt 0.247290 0.076141
vt 0.194597 0.071720
vt 0.247290 0.071720
vt 0.194597 0.094219
vt 0.247290 0.094219
vt 0.299982 0.053642
vt 0.299982 0.076141
vt 0.299982 0.071720
vt 0.299982 0.094219
vt 0.194597 0.076141
vt 0.194597 0.053642
vt 0.247290 0.053642
vt 0.247290 0.076141
vt 0.194597 0.071720
vt 0.247290 0.071720
vt 0.194597 0.094219
vt 0.247290 0.094219
vt 0.299982 0.053642
vt 0.299982 0.076141
vt 0.299982 0.071720
vt 0.299982 0.094219
vt 0.251983 0.153866
vt 0.193392 0.153866
vt 0.193392 0.098862
vt 0.251983 0.098862
vt 0.299982 0.053642
vt 0.299982 0.076141
vt 0.194597 0.076141
vt 0.194597 0.053642
vt 0.299982 0.071720
vt 0.194597 0.071720
vt 0.299982 0.094219
vt 0.194597 0.094219
vt 0.194597 0.076141
vt 0.194597 0.053642
vt 0.247290 0.053642
vt 0.247290 0.076141
vt 0.194597 0.071720
vt 0.247290 0.071720
vt 0.194597 0.094219
vt 0.247290 0.094219
vt 0.299982 0.053642
vt 0.299982 0.076141
vt 0.299982 0.071720
vt 0.299982 0.094219
vt 0.194597 0.076141
vt 0.194597 0.053642
vt 0.247290 0.053642
vt 0.247290 0.076141
vt 0.194597 0.071720
vt 0.247290 0.071720
vt 0.194597 0.094219
vt 0.247290 0.094219
vt 0.299982 0.053642
vt 0.299982 0.076141
vt 0.299982 0.071720
vt 0.299982 0.094219
vn 0.0656 0.9978 0.0080
vn -0.0920 -0.0155 0.9956
vn -0.0961 -0.0141 0.9953
vn -0.0789 -0.0200 0.9967
vn -0.0753 -0.0212 0.9969
vn 0.9954 -0.0066 0.0953
vn 0.0906 -0.0049 -0.9959
vn 0.0949 -0.0037 -0.9955
vn 0.0771 -0.0085 -0.9970
vn 0.0732 -0.0095 -0.9973
vn -0.9941 0.0526 -0.0951
vn 0.9982 0.0562 0.0209
vn 0.9980 0.0592 0.0199
vn 0.9989 0.0473 -0.0007
vn 0.9990 0.0444 -0.0014
vn -0.1569 0.9874 -0.0219
vn -0.2384 0.9711 0.0118
vn -0.2304 0.9730 0.0099
vn -0.1515 0.9882 -0.0225
vn -0.9982 -0.0543 0.0258
vn -0.9990 -0.0444 0.0013
vn -0.9989 -0.0469 0.0014
vn -0.9980 -0.0569 0.0266
vn 0.1546 -0.9876 -0.0266
vn 0.2396 -0.9709 0.0041
vn 0.2314 -0.9728 0.0064
vn 0.1489 -0.9885 -0.0273
vn 0.9981 0.0571 -0.0215
vn 0.9983 0.0535 -0.0231
vn -0.1659 0.9851 0.0445
vn -0.1591 0.9862 0.0456
vn -0.9983 -0.0528 -0.0235
vn -0.9981 -0.0559 -0.0249
vn 0.1698 -0.9847 0.0388
vn 0.1631 -0.9858 0.0399
vn 0.9979 0.0578 0.0278
vn 0.9978 0.0612 0.0266
vn 0.9987 0.0498 0.0062
vn 0.9989 0.0468 0.0057
vn -0.1602 0.9871 0.0001
vn -0.2410 0.9699 0.0343
vn -0.2330 0.9719 0.0323
vn -0.1540 0.9881 -0.0008
vn -0.9980 -0.0571 0.0261
vn -0.9989 -0.0469 0.0009
vn -0.9988 -0.0495 0.0012
vn -0.9978 -0.0600 0.0271
vn 0.1578 -0.9859 -0.0558
vn 0.2417 -0.9700 -0.0246
vn 0.2335 -0.9721 -0.0230
vn 0.1513 -0.9869 -0.0568
vn 0.9981 0.0599 -0.0146
vn 0.9983 0.0568 -0.0159
vn -0.1678 0.9836 0.0659
vn -0.1620 0.9845 0.0668
vn -0.9982 -0.0552 -0.0243
vn -0.9980 -0.0580 -0.0254
vn 0.1708 -0.9853 0.0061
vn 0.1650 -0.9863 0.0069
vn 0.0290 0.9996 0.0000
vn 0.9989 -0.0171 0.0429
vn 0.0419 -0.0138 -0.9990
vn 0.0425 -0.0137 -0.9990
vn 0.0392 -0.0145 -0.9991
vn 0.0385 -0.0146 -0.9992
vn -0.9989 0.0165 -0.0429
vn -0.0426 -0.0125 0.9990
vn -0.0433 -0.0123 0.9990
vn -0.0399 -0.0132 0.9991
vn -0.0392 -0.0134 0.9991
vn 0.0274 0.9993 0.0243
vn 0.0648 -0.0385 0.9972
vn 0.9970 -0.0393 -0.0661
vn -0.0655 0.0137 -0.9978
vn -0.9978 0.0123 0.0655
vn -0.0087 0.9978 0.0655
vn -0.9946 -0.0155 -0.1027
vn -0.9942 -0.0141 -0.1068
vn -0.9958 -0.0200 -0.0896
vn -0.9961 -0.0212 -0.0860
vn -0.1060 -0.0066 0.9943
vn 0.9948 -0.0049 0.1012
vn 0.9944 -0.0037 0.1056
vn 0.9961 -0.0085 0.0878
vn 0.9964 -0.0095 0.0840
vn 0.1057 0.0526 -0.9930
vn -0.0340 0.0561 0.9978
vn -0.0329 0.0593 0.9977
vn -0.0129 0.0471 0.9988
vn -0.0125 0.0444 0.9989
vn 0.0250 0.9870 -0.1590
vn -0.0276 0.9842 -0.1749
vn 0.0066 0.9689 -0.2473
vn 0.0260 0.9881 -0.1513
vn -0.0136 -0.0561 -0.9983
vn -0.0011 -0.0450 -0.9990
vn 0.0135 -0.0402 -0.9991
vn -0.0138 -0.0570 -0.9983
vn 0.0268 -0.9875 0.1552
vn -0.0028 -0.9709 0.2393
vn -0.0044 -0.9727 0.2319
vn 0.0277 -0.9884 0.1491
vn 0.0083 0.0570 0.9983
vn 0.0092 0.0542 0.9985
vn -0.0335 0.9865 -0.1601
vn -0.0335 0.9865 -0.1600
vn 0.0323 -0.0486 -0.9983
vn 0.0356 -0.0559 -0.9978
vn -0.0311 -0.9854 0.1674
vn -0.0317 -0.9862 0.1623
vn -0.0385 0.0578 0.9976
vn -0.0374 0.0612 0.9974
vn 0.0440 0.0510 0.9977
vn 0.0462 0.0477 0.9978
vn 0.0016 0.9871 -0.1602
vn -0.0458 0.9696 -0.2405
vn -0.0448 0.9715 -0.2327
vn 0.0024 0.9881 -0.1540
vn -0.0153 -0.0571 -0.9983
vn -0.0531 -0.0478 -0.9974
vn -0.0520 -0.0508 -0.9974
vn -0.0163 -0.0600 -0.9981
vn 0.0541 -0.9859 0.1584
vn 0.0362 -0.9698 0.2411
vn 0.0359 -0.9719 0.2326
vn 0.0551 -0.9869 0.1519
vn 0.1262 0.0651 0.9899
vn 0.1278 0.0610 0.9899
vn -0.0848 0.9822 -0.1673
vn -0.0850 0.9831 -0.1619
vn -0.0887 -0.0598 -0.9943
vn -0.0871 -0.0635 -0.9942
vn 0.0135 -0.9853 0.1704
vn 0.0120 -0.9863 0.1644
vn 0.0557 0.0524 0.9971
vn 0.0565 0.0547 0.9969
vn 0.0330 0.0462 0.9984
vn 0.0327 0.0439 0.9985
vn 0.0106 0.9876 -0.1566
vn -0.0153 0.9711 -0.2381
vn -0.0146 0.9729 -0.2306
vn 0.0118 0.9885 -0.1508
vn -0.1041 -0.0501 -0.9933
vn -0.0386 -0.0438 -0.9983
vn -0.0397 -0.0458 -0.9982
vn -0.1047 -0.0520 -0.9931
vn 0.0400 -0.9872 0.1541
vn 0.0071 -0.9711 0.2387
vn 0.0058 -0.9728 0.2314
vn 0.0402 -0.9881 0.1485
vn 0.0084 0.0570 0.9983
vn 0.0094 0.0541 0.9985
vn -0.0336 0.9857 -0.1653
vn -0.0343 0.9865 -0.1600
vn 0.0269 -0.0535 -0.9982
vn 0.0278 -0.0561 -0.9980
vn -0.0318 -0.9853 0.1676
vn -0.0324 -0.9862 0.1623
vn -0.0170 0.0498 0.9986
vn -0.0165 0.0468 0.9988
vn -0.0317 0.9699 -0.2414
vn -0.0297 0.9719 -0.2333
vn 0.0099 -0.0469 -0.9988
vn 0.0095 -0.0495 -0.9987
vn 0.0220 -0.9700 0.2420
vn 0.0205 -0.9721 0.2338
vn 0.0039 0.0599 0.9982
vn 0.0052 0.0568 0.9984
vn -0.0641 0.9836 -0.1685
vn -0.0651 0.9845 -0.1627
vn 0.0350 -0.0552 -0.9979
vn 0.0361 -0.0580 -0.9977
vn -0.0079 -0.9853 0.1707
vn -0.0086 -0.9863 0.1650
usemtl TT_RTS_Buildings_mat.003
s 1
f 5/1/1 6/2/1 7/3/1
f 7/3/1 8/4/1 5/1/1
f 8/5/2 7/6/3 3/7/4
f 3/7/4 2/8/5 8/5/2
f 5/9/6 8/5/6 2/8/6
f 2/8/6 1/10/6 5/9/6
f 6/11/7 5/9/8 1/10/9
f 1/10/9 4/12/10 6/11/7
f 7/6/11 6/11/11 4/12/11
f 4/12/11 3/7/11 7/6/11
f 11/13/12 10/14/13 17/15/14
f 17/15/14 18/16/15 11/13/12
f 9/17/16 19/18/17 17/15/18
f 17/15/18 10/14/19 9/17/16
f 12/19/20 20/20/21 19/18/22
f 19/18/22 9/17/23 12/19/20
f 11/13/24 18/16/25 20/20/26
f 20/20/26 12/19/27 11/13/24
f 17/15/14 16/21/28 15/22/29
f 15/22/29 18/16/15 17/15/14
f 13/23/30 16/21/31 17/15/18
f 17/15/18 19/18/17 13/23/30
f 14/24/32 13/23/33 19/18/22
f 19/18/22 20/20/21 14/24/32
f 15/22/34 14/24/35 20/20/26
f 20/20/26 18/16/25 15/22/34
f 23/25/36 22/26/37 29/27/38
f 29/27/38 30/28/39 23/25/36
f 21/29/40 31/30/41 29/27/42
f 29/27/42 22/26/43 21/29/40
f 24/31/44 32/32/45 31/30/46
f 31/30/46 21/29/47 24/31/44
f 23/25/48 30/28/49 32/32/50
f 32/32/50 24/31/51 23/25/48
f 29/27/38 28/33/52 27/34/53
f 27/34/53 30/28/39 29/27/38
f 25/35/54 28/33/55 29/27/42
f 29/27/42 31/30/41 25/35/54
f 26/36/56 25/35/57 31/30/46
f 31/30/46 32/32/45 26/36/56
f 27/34/58 26/36/59 32/32/50
f 32/32/50 30/28/49 27/34/58
f 37/37/60 38/38/60 39/39/60
f 39/39/60 40/40/60 37/37/60
f 40/41/61 39/42/61 35/43/61
f 35/43/61 34/44/61 40/41/61
f 37/45/62 40/41/63 34/44/64
f 34/44/64 33/46/65 37/45/62
f 38/47/66 37/45/66 33/46/66
f 33/46/66 36/48/66 38/47/66
f 39/42/67 38/47/68 36/48/69
f 36/48/69 35/43/70 39/42/67
f 45/49/71 46/50/71 47/51/71
f 47/51/71 48/52/71 45/49/71
f 48/53/72 47/54/72 43/55/72
f 43/55/72 42/56/72 48/53/72
f 45/57/73 48/53/73 42/56/73
f 42/56/73 41/58/73 45/57/73
f 46/59/74 45/57/74 41/58/74
f 41/58/74 44/60/74 46/59/74
f 47/54/75 46/59/75 44/60/75
f 44/60/75 43/55/75 47/54/75
f 53/61/1 54/62/1 55/63/1
f 55/63/1 56/64/1 53/61/1
f 56/65/2 55/66/3 51/67/4
f 51/67/4 50/68/5 56/65/2
f 53/69/6 56/65/6 50/68/6
f 50/68/6 49/70/6 53/69/6
f 54/71/7 53/69/8 49/70/9
f 49/70/9 52/72/10 54/71/7
f 55/66/11 54/71/11 52/72/11
f 52/72/11 51/67/11 55/66/11
f 59/73/12 58/74/13 65/75/14
f 65/75/14 66/76/15 59/73/12
f 57/77/16 67/78/17 65/75/18
f 65/75/18 58/74/19 57/77/16
f 60/79/20 68/80/21 67/78/22
f 67/78/22 57/77/23 60/79/20
f 59/73/24 66/76/25 68/80/26
f 68/80/26 60/79/27 59/73/24
f 65/75/14 64/81/28 63/82/29
f 63/82/29 66/76/15 65/75/14
f 61/83/30 64/81/31 65/75/18
f 65/75/18 67/78/17 61/83/30
f 62/84/32 61/83/33 67/78/22
f 67/78/22 68/80/21 62/84/32
f 63/82/34 62/84/35 68/80/26
f 68/80/26 66/76/25 63/82/34
f 71/85/36 70/86/37 77/87/38
f 77/87/38 78/88/39 71/85/36
f 69/89/40 79/90/41 77/87/42
f 77/87/42 70/86/43 69/89/40
f 72/91/44 80/92/45 79/90/46
f 79/90/46 69/89/47 72/91/44
f 71/85/48 78/88/49 80/92/50
f 80/92/50 72/91/51 71/85/48
f 77/87/38 76/93/52 75/94/53
f 75/94/53 78/88/39 77/87/38
f 73/95/54 76/93/55 77/87/42
f 77/87/42 79/90/41 73/95/54
f 74/96/56 73/95/57 79/90/46
f 79/90/46 80/92/45 74/96/56
f 75/94/58 74/96/59 80/92/50
f 80/92/50 78/88/49 75/94/58
f 85/97/60 86/98/60 87/99/60
f 87/99/60 88/100/60 85/97/60
f 88/101/61 87/102/61 83/103/61
f 83/103/61 82/104/61 88/101/61
f 85/105/62 88/101/63 82/104/64
f 82/104/64 81/106/65 85/105/62
f 86/107/66 85/105/66 81/106/66
f 81/106/66 84/108/66 86/107/66
f 87/102/67 86/107/68 84/108/69
f 84/108/69 83/103/70 87/102/67
f 93/109/71 94/110/71 95/111/71
f 95/111/71 96/112/71 93/109/71
f 96/113/72 95/114/72 91/115/72
f 91/115/72 90/116/72 96/113/72
f 93/117/73 96/113/73 90/116/73
f 90/116/73 89/118/73 93/117/73
f 94/119/74 93/117/74 89/118/74
f 89/118/74 92/120/74 94/119/74
f 95/114/75 94/119/75 92/120/75
f 92/120/75 91/115/75 95/114/75
f 101/121/76 102/122/76 103/123/76
f 103/123/76 104/124/76 101/121/76
f 104/125/77 103/126/78 99/127/79
f 99/127/79 98/128/80 104/125/77
f 101/129/81 104/125/81 98/128/81
f 98/128/81 97/130/81 101/129/81
f 102/131/82 101/129/83 97/130/84
f 97/130/84 100/132/85 102/131/82
f 103/126/86 102/131/86 100/132/86
f 100/132/86 99/127/86 103/126/86
f 107/133/87 106/134/88 113/135/89
f 113/135/89 114/136/90 107/133/87
f 105/137/91 115/138/92 113/135/93
f 113/135/93 106/134/94 105/137/91
f 108/139/95 116/140/96 115/138/97
f 115/138/97 105/137/98 108/139/95
f 107/133/99 114/136/100 116/140/101
f 116/140/101 108/139/102 107/133/99
f 113/135/89 112/141/103 111/142/104
f 111/142/104 114/136/90 113/135/89
f 109/143/105 112/141/106 113/135/93
f 113/135/93 115/138/92 109/143/105
f 110/144/107 109/143/108 115/138/97
f 115/138/97 116/140/96 110/144/107
f 111/142/109 110/144/110 116/140/101
f 116/140/101 114/136/100 111/142/109
f 119/145/111 118/146/112 125/147/113
f 125/147/113 126/148/114 119/145/111
f 117/149/115 127/150/116 125/147/117
f 125/147/117 118/146/118 117/149/115
f 120/151/119 128/152/120 127/150/121
f 127/150/121 117/149/122 120/151/119
f 119/145/123 126/148/124 128/152/125
f 128/152/125 120/151/126 119/145/123
f 125/147/113 124/153/127 123/154/128
f 123/154/128 126/148/114 125/147/113
f 121/155/129 124/153/130 125/147/117
f 125/147/117 127/150/116 121/155/129
f 122/156/131 121/155/132 127/150/121
f 127/150/121 128/152/120 122/156/131
f 123/154/133 122/156/134 128/152/125
f 128/152/125 126/148/124 123/154/133
f 133/157/76 134/158/76 135/159/76
f 135/159/76 136/160/76 133/157/76
f 136/161/77 135/162/78 131/163/79
f 131/163/79 130/164/80 136/161/77
f 133/165/81 136/161/81 130/164/81
f 130/164/81 129/166/81 133/165/81
f 134/167/82 133/165/83 129/166/84
f 129/166/84 132/168/85 134/167/82
f 135/162/86 134/167/86 132/168/86
f 132/168/86 131/163/86 135/162/86
f 139/169/135 138/170/136 145/171/137
f 145/171/137 146/172/138 139/169/135
f 137/173/139 147/174/140 145/171/141
f 145/171/141 138/170/142 137/173/139
f 140/175/143 148/176/144 147/174/145
f 147/174/145 137/173/146 140/175/143
f 139/169/147 146/172/148 148/176/149
f 148/176/149 140/175/150 139/169/147
f 145/171/137 144/177/151 143/178/152
f 143/178/152 146/172/138 145/171/137
f 141/179/153 144/177/154 145/171/141
f 145/171/141 147/174/140 141/179/153
f 142/180/155 141/179/156 147/174/145
f 147/174/145 148/176/144 142/180/155
f 143/178/157 142/180/158 148/176/149
f 148/176/149 146/172/148 143/178/157
f 151/181/111 150/182/112 157/183/159
f 157/183/159 158/184/160 151/181/111
f 149/185/115 159/186/161 157/183/162
f 157/183/162 150/182/118 149/185/115
f 152/187/119 160/188/163 159/186/164
f 159/186/164 149/185/122 152/187/119
f 151/181/123 158/184/165 160/188/166
f 160/188/166 152/187/126 151/181/123
f 157/183/159 156/189/167 155/190/168
f 155/190/168 158/184/160 157/183/159
f 153/191/169 156/189/170 157/183/162
f 157/183/162 159/186/161 153/191/169
f 154/192/171 153/191/172 159/186/164
f 159/186/164 160/188/163 154/192/171
f 155/190/173 154/192/174 160/188/166
f 160/188/166 158/184/165 155/190/173
