# Blender v2.81 (sub 16) OBJ File: ''
# www.blender.org
mtllib Fence_B.mtl
o Fence_B_fence_1_Mesh.009
v 1.827283 -0.367729 0.126818
v 1.853803 -0.368214 -0.150230
v 2.241380 -0.342465 -0.121517
v 2.214859 -0.341979 0.155531
v 1.818967 0.826410 0.130462
v 2.151240 0.848508 0.162230
v 2.180583 0.847971 -0.144303
v 1.848309 0.825872 -0.176071
v 2.055530 0.683831 1.745760
v 1.914366 0.705302 1.753416
v 1.896812 0.404286 1.738183
v 2.037976 0.382815 1.730526
v 2.045914 0.673624 0.008469
v 2.029566 0.384967 0.015599
v 1.902046 0.405815 0.021654
v 1.918395 0.694472 0.014525
v 1.935770 0.725150 0.739165
v 1.920521 0.381768 0.735706
v 2.029489 0.702049 0.731635
v 2.014240 0.358667 0.728176
v 2.054023 0.718507 -0.132775
v 1.912901 0.740500 -0.126486
v 1.894601 0.439275 -0.133358
v 2.035722 0.417283 -0.139647
v 2.048170 0.661956 -1.849178
v 2.031066 0.373586 -1.835621
v 1.903590 0.394885 -1.830774
v 1.920694 0.683256 -1.844330
v 1.936215 0.737537 -1.006662
v 1.920089 0.394217 -1.001592
v 2.029888 0.714037 -1.012892
v 2.013762 0.370718 -1.007822
v 2.137005 -0.291865 2.054111
v 1.818182 -0.300234 2.041702
v 1.831657 -0.299854 1.727949
v 2.150479 -0.291485 1.740357
v 2.115773 0.946176 2.071424
v 2.130682 0.946596 1.724279
v 1.811259 0.937336 1.710551
v 1.796350 0.936916 2.057695
v 1.857661 -0.296125 -1.778331
v 1.839538 -0.303387 -2.055960
v 2.141125 -0.295593 -2.075851
v 2.159248 -0.288331 -1.798222
v 1.809879 0.895049 -1.791521
v 2.143562 0.903672 -1.813529
v 2.123510 0.895638 -2.120705
v 1.789826 0.887014 -2.098697
vt 0.251983 0.153866
vt 0.193392 0.153866
vt 0.193392 0.098862
vt 0.251983 0.098862
vt 0.299982 0.053642
vt 0.299982 0.076141
vt 0.194597 0.076141
vt 0.194597 0.053642
vt 0.299982 0.071720
vt 0.194597 0.071720
vt 0.299982 0.094219
vt 0.194597 0.094219
vt 0.194597 0.076141
vt 0.194597 0.053642
vt 0.247290 0.053642
vt 0.247290 0.076141
vt 0.194597 0.071720
vt 0.247290 0.071720
vt 0.194597 0.094219
vt 0.247290 0.094219
vt 0.299982 0.053642
vt 0.299982 0.076141
vt 0.299982 0.071720
vt 0.299982 0.094219
vt 0.194597 0.076141
vt 0.194597 0.053642
vt 0.247290 0.053642
vt 0.247290 0.076141
vt 0.194597 0.071720
vt 0.247290 0.071720
vt 0.194597 0.094219
vt 0.247290 0.094219
vt 0.299982 0.053642
vt 0.299982 0.076141
vt 0.299982 0.071720
vt 0.299982 0.094219
vt 0.251983 0.153866
vt 0.193392 0.153866
vt 0.193392 0.098862
vt 0.251983 0.098862
vt 0.299982 0.053642
vt 0.299982 0.076141
vt 0.194597 0.076141
vt 0.194597 0.053642
vt 0.299982 0.071720
vt 0.194597 0.071720
vt 0.299982 0.094219
vt 0.194597 0.094219
vt 0.251983 0.153866
vt 0.193392 0.153866
vt 0.193392 0.098862
vt 0.251983 0.098862
vt 0.299982 0.053642
vt 0.299982 0.076141
vt 0.194597 0.076141
vt 0.194597 0.053642
vt 0.299982 0.071720
vt 0.194597 0.071720
vt 0.299982 0.094219
vt 0.194597 0.094219
vn -0.0656 0.9978 -0.0080
vn 0.0920 -0.0155 -0.9956
vn 0.0961 -0.0141 -0.9953
vn 0.0789 -0.0200 -0.9967
vn 0.0753 -0.0212 -0.9969
vn -0.9954 -0.0066 -0.0953
vn -0.0906 -0.0049 0.9959
vn -0.0949 -0.0037 0.9955
vn -0.0771 -0.0085 0.9970
vn -0.0732 -0.0095 0.9973
vn 0.9941 0.0526 0.0951
vn -0.9982 0.0562 -0.0209
vn -0.9980 0.0592 -0.0199
vn -0.9989 0.0473 0.0007
vn -0.9990 0.0444 0.0014
vn 0.1569 0.9874 0.0219
vn 0.2384 0.9711 -0.0118
vn 0.2304 0.9730 -0.0099
vn 0.1515 0.9882 0.0225
vn 0.9982 -0.0543 -0.0258
vn 0.9990 -0.0444 -0.0013
vn 0.9989 -0.0469 -0.0014
vn 0.9980 -0.0569 -0.0266
vn -0.1546 -0.9876 0.0266
vn -0.2396 -0.9709 -0.0041
vn -0.2314 -0.9728 -0.0064
vn -0.1489 -0.9885 0.0273
vn -0.9981 0.0571 0.0215
vn -0.9983 0.0535 0.0231
vn 0.1659 0.9851 -0.0445
vn 0.1591 0.9862 -0.0456
vn 0.9983 -0.0528 0.0235
vn 0.9981 -0.0559 0.0249
vn -0.1698 -0.9847 -0.0388
vn -0.1631 -0.9858 -0.0399
vn -0.9979 0.0578 -0.0278
vn -0.9978 0.0612 -0.0266
vn -0.9987 0.0498 -0.0062
vn -0.9989 0.0468 -0.0057
vn 0.1602 0.9871 -0.0001
vn 0.2410 0.9699 -0.0343
vn 0.2330 0.9719 -0.0323
vn 0.1540 0.9881 0.0008
vn 0.9980 -0.0571 -0.0261
vn 0.9989 -0.0469 -0.0009
vn 0.9988 -0.0495 -0.0012
vn 0.9978 -0.0600 -0.0271
vn -0.1578 -0.9859 0.0558
vn -0.2417 -0.9700 0.0246
vn -0.2335 -0.9721 0.0230
vn -0.1513 -0.9869 0.0568
vn -0.9981 0.0599 0.0146
vn -0.9983 0.0568 0.0159
vn 0.1678 0.9836 -0.0659
vn 0.1620 0.9845 -0.0668
vn 0.9982 -0.0552 0.0243
vn 0.9980 -0.0580 0.0254
vn -0.1708 -0.9853 -0.0061
vn -0.1650 -0.9863 -0.0069
vn -0.0290 0.9996 -0.0000
vn -0.9989 -0.0171 -0.0429
vn -0.0419 -0.0138 0.9990
vn -0.0425 -0.0137 0.9990
vn -0.0392 -0.0145 0.9991
vn -0.0385 -0.0146 0.9992
vn 0.9989 0.0165 0.0429
vn 0.0426 -0.0125 -0.9990
vn 0.0433 -0.0123 -0.9990
vn 0.0399 -0.0132 -0.9991
vn 0.0392 -0.0134 -0.9991
vn -0.0274 0.9993 -0.0243
vn -0.0274 0.9993 -0.0244
vn -0.0648 -0.0385 -0.9972
vn -0.9970 -0.0393 0.0661
vn 0.0655 0.0137 0.9978
vn 0.9978 0.0123 -0.0655
usemtl TT_RTS_Buildings_mat.002
s 1
f 5/1/1 6/2/1 7/3/1
f 7/3/1 8/4/1 5/1/1
f 8/5/2 7/6/3 3/7/4
f 3/7/4 2/8/5 8/5/2
f 5/9/6 8/5/6 2/8/6
f 2/8/6 1/10/6 5/9/6
f 6/11/7 5/9/8 1/10/9
f 1/10/9 4/12/10 6/11/7
f 7/6/11 6/11/11 4/12/11
f 4/12/11 3/7/11 7/6/11
f 11/13/12 10/14/13 17/15/14
f 17/15/14 18/16/15 11/13/12
f 9/17/16 19/18/17 17/15/18
f 17/15/18 10/14/19 9/17/16
f 12/19/20 20/20/21 19/18/22
f 19/18/22 9/17/23 12/19/20
f 11/13/24 18/16/25 20/20/26
f 20/20/26 12/19/27 11/13/24
f 17/15/14 16/21/28 15/22/29
f 15/22/29 18/16/15 17/15/14
f 13/23/30 16/21/31 17/15/18
f 17/15/18 19/18/17 13/23/30
f 14/24/32 13/23/33 19/18/22
f 19/18/22 20/20/21 14/24/32
f 15/22/34 14/24/35 20/20/26
f 20/20/26 18/16/25 15/22/34
f 23/25/36 22/26/37 29/27/38
f 29/27/38 30/28/39 23/25/36
f 21/29/40 31/30/41 29/27/42
f 29/27/42 22/26/43 21/29/40
f 24/31/44 32/32/45 31/30/46
f 31/30/46 21/29/47 24/31/44
f 23/25/48 30/28/49 32/32/50
f 32/32/50 24/31/51 23/25/48
f 29/27/38 28/33/52 27/34/53
f 27/34/53 30/28/39 29/27/38
f 25/35/54 28/33/55 29/27/42
f 29/27/42 31/30/41 25/35/54
f 26/36/56 25/35/57 31/30/46
f 31/30/46 32/32/45 26/36/56
f 27/34/58 26/36/59 32/32/50
f 32/32/50 30/28/49 27/34/58
f 37/37/60 38/38/60 39/39/60
f 39/39/60 40/40/60 37/37/60
f 40/41/61 39/42/61 35/43/61
f 35/43/61 34/44/61 40/41/61
f 37/45/62 40/41/63 34/44/64
f 34/44/64 33/46/65 37/45/62
f 38/47/66 37/45/66 33/46/66
f 33/46/66 36/48/66 38/47/66
f 39/42/67 38/47/68 36/48/69
f 36/48/69 35/43/70 39/42/67
f 45/49/71 46/50/71 47/51/71
f 47/51/71 48/52/72 45/49/71
f 48/53/73 47/54/73 43/55/73
f 43/55/73 42/56/73 48/53/73
f 45/57/74 48/53/74 42/56/74
f 42/56/74 41/58/74 45/57/74
f 46/59/75 45/57/75 41/58/75
f 41/58/75 44/60/75 46/59/75
f 47/54/76 46/59/76 44/60/76
f 44/60/76 43/55/76 47/54/76
