# Blender v2.81 (sub 16) OBJ File: ''
# www.blender.org
mtllib OpenFence_D.mtl
o OpenFence_D_fence_1_Mesh.012
v -1.857661 -0.296125 1.778331
v -1.839538 -0.303387 2.055960
v -2.141125 -0.295593 2.075851
v -2.159248 -0.288331 1.798222
v -1.809879 0.895049 1.791521
v -2.143562 0.903672 1.813529
v -2.123510 0.895638 2.120705
v -1.789826 0.887014 2.098697
v 2.172717 -0.367729 0.822066
v 2.146197 -0.368214 1.099114
v 1.758620 -0.342465 1.070402
v 1.785141 -0.341979 0.793353
v 2.181033 0.826410 0.818422
v 1.848760 0.848508 0.786654
v 1.819417 0.847971 1.093187
v 2.151691 0.825872 1.124955
v 1.944470 0.683831 -1.745760
v 2.085634 0.705302 -1.753416
v 2.103188 0.404286 -1.738183
v 1.962024 0.382815 -1.730526
v 2.064230 0.725150 -0.739165
v 2.079479 0.381768 -0.735706
v 1.970511 0.702049 -0.731635
v 1.985760 0.358667 -0.728176
v 1.951830 0.661956 1.849178
v 1.968934 0.373586 1.835621
v 2.096410 0.394885 1.830774
v 2.079306 0.683256 1.844330
v 2.063785 0.737537 1.006662
v 2.079911 0.394217 1.001592
v 1.970112 0.714037 1.012892
v 1.986238 0.370718 1.007822
v 1.819032 -0.367729 -0.959927
v 2.095856 -0.368214 -0.988687
v 2.144312 -0.342465 -0.603081
v 1.867487 -0.341979 -0.574322
v 1.813815 0.826410 -0.967359
v 1.848346 0.848508 -0.635362
v 2.154631 0.847971 -0.667182
v 2.120101 0.825872 -0.999180
v 1.862995 -0.291865 -2.054111
v 2.181818 -0.300234 -2.041702
v 2.168343 -0.299854 -1.727949
v 1.849521 -0.291485 -1.740357
v 1.884227 0.946176 -2.071424
v 1.869318 0.946596 -1.724279
v 2.188741 0.937336 -1.710551
v 2.203650 0.936916 -2.057695
v 2.142339 -0.296125 1.778331
v 2.160462 -0.303387 2.055960
v 1.858875 -0.295593 2.075851
v 1.840752 -0.288331 1.798222
v 2.190121 0.895049 1.791521
v 1.856438 0.903672 1.813529
v 1.876490 0.895638 2.120705
v 2.210174 0.887014 2.098697
v 1.047128 -0.367729 2.174070
v 0.770381 -0.368214 2.144575
v 0.803255 -0.342465 1.757329
v 1.080002 -0.341979 1.786824
v 1.050683 0.826410 2.182424
v 1.086018 0.848508 1.850512
v 0.779818 0.847971 1.817878
v 0.744483 0.825872 2.149791
v 1.905063 0.683831 1.877018
v 1.911202 0.705302 2.018256
v 1.895782 0.404286 2.035645
v 1.889642 0.382815 1.894407
v 0.940906 0.725150 2.072166
v 0.937283 0.381768 2.087378
v 0.934383 0.702049 1.978372
v 0.930760 0.358667 1.993583
v -1.848554 0.661956 1.931969
v -1.835181 0.373586 1.949217
v -1.831704 0.394885 2.076738
v -1.845075 0.683256 2.059489
v -1.007289 0.737537 2.052968
v -1.002393 0.394217 2.069147
v -1.012513 0.714037 1.959233
v -1.007616 0.370718 1.975413
v -0.847826 -0.326512 1.800144
v -0.808489 -0.326997 2.075664
v -1.191957 -0.301248 2.138848
v -1.231294 -0.300762 1.863327
v -0.840600 0.867627 1.794647
v -1.171032 0.889725 1.841863
v -1.127508 0.889188 2.146706
v -0.797076 0.867089 2.099489
vt 0.251983 0.153866
vt 0.193392 0.153866
vt 0.193392 0.098862
vt 0.251983 0.098862
vt 0.299982 0.053642
vt 0.299982 0.076141
vt 0.194597 0.076141
vt 0.194597 0.053642
vt 0.299982 0.071720
vt 0.194597 0.071720
vt 0.299982 0.094219
vt 0.194597 0.094219
vt 0.251983 0.153866
vt 0.193392 0.153866
vt 0.193392 0.098862
vt 0.251983 0.098862
vt 0.299982 0.053642
vt 0.299982 0.076141
vt 0.194597 0.076141
vt 0.194597 0.053642
vt 0.299982 0.071720
vt 0.194597 0.071720
vt 0.299982 0.094219
vt 0.194597 0.094219
vt 0.194597 0.076141
vt 0.194597 0.053642
vt 0.247290 0.053642
vt 0.247290 0.076141
vt 0.194597 0.071720
vt 0.247290 0.071720
vt 0.194597 0.094219
vt 0.247290 0.094219
vt 0.247290 0.053642
vt 0.299982 0.053642
vt 0.299982 0.076141
vt 0.247290 0.076141
vt 0.299982 0.071720
vt 0.247290 0.071720
vt 0.299982 0.094219
vt 0.247290 0.094219
vt 0.251983 0.153866
vt 0.193392 0.153866
vt 0.193392 0.098862
vt 0.251983 0.098862
vt 0.299982 0.053642
vt 0.299982 0.076141
vt 0.194597 0.076141
vt 0.194597 0.053642
vt 0.299982 0.071720
vt 0.194597 0.071720
vt 0.299982 0.094219
vt 0.194597 0.094219
vt 0.251983 0.153866
vt 0.193392 0.153866
vt 0.193392 0.098862
vt 0.251983 0.098862
vt 0.299982 0.053642
vt 0.299982 0.076141
vt 0.194597 0.076141
vt 0.194597 0.053642
vt 0.299982 0.071720
vt 0.194597 0.071720
vt 0.299982 0.094219
vt 0.194597 0.094219
vt 0.251983 0.153866
vt 0.193392 0.153866
vt 0.193392 0.098862
vt 0.251983 0.098862
vt 0.299982 0.053642
vt 0.299982 0.076141
vt 0.194597 0.076141
vt 0.194597 0.053642
vt 0.299982 0.071720
vt 0.194597 0.071720
vt 0.299982 0.094219
vt 0.194597 0.094219
vt 0.251983 0.153866
vt 0.193392 0.153866
vt 0.193392 0.098862
vt 0.251983 0.098862
vt 0.299982 0.053642
vt 0.299982 0.076141
vt 0.194597 0.076141
vt 0.194597 0.053642
vt 0.299982 0.071720
vt 0.194597 0.071720
vt 0.299982 0.094219
vt 0.194597 0.094219
vt 0.194597 0.076141
vt 0.194597 0.053642
vt 0.247290 0.053642
vt 0.247290 0.076141
vt 0.194597 0.071720
vt 0.247290 0.071720
vt 0.194597 0.094219
vt 0.247290 0.094219
vt 0.247290 0.053642
vt 0.299982 0.053642
vt 0.299982 0.076141
vt 0.247290 0.076141
vt 0.299982 0.071720
vt 0.247290 0.071720
vt 0.299982 0.094219
vt 0.247290 0.094219
vt 0.251983 0.153866
vt 0.193392 0.153866
vt 0.193392 0.098862
vt 0.251983 0.098862
vt 0.299982 0.053642
vt 0.299982 0.076141
vt 0.194597 0.076141
vt 0.194597 0.053642
vt 0.299982 0.071720
vt 0.194597 0.071720
vt 0.299982 0.094219
vt 0.194597 0.094219
vn 0.0274 0.9993 0.0243
vn 0.0648 -0.0385 0.9972
vn 0.9970 -0.0393 -0.0661
vn -0.0655 0.0137 -0.9978
vn -0.9978 0.0123 0.0655
vn 0.0656 0.9978 0.0080
vn -0.0920 -0.0155 0.9956
vn -0.0961 -0.0141 0.9953
vn -0.0789 -0.0200 0.9967
vn -0.0753 -0.0212 0.9969
vn 0.9954 -0.0066 0.0953
vn 0.0906 -0.0049 -0.9959
vn 0.0949 -0.0037 -0.9955
vn 0.0771 -0.0085 -0.9970
vn 0.0732 -0.0095 -0.9973
vn -0.9941 0.0526 -0.0951
vn 0.9982 0.0562 0.0209
vn 0.9980 0.0592 0.0199
vn 0.9986 0.0473 0.0237
vn 0.9987 0.0446 0.0246
vn -0.1569 0.9874 -0.0219
vn -0.2402 0.9707 -0.0113
vn -0.2327 0.9725 -0.0122
vn -0.1515 0.9882 -0.0225
vn -0.9982 -0.0543 0.0258
vn -0.9988 -0.0441 0.0226
vn -0.9986 -0.0465 0.0233
vn -0.9980 -0.0569 0.0266
vn 0.1546 -0.9876 -0.0266
vn 0.2381 -0.9711 -0.0162
vn 0.2298 -0.9731 -0.0172
vn 0.1489 -0.9885 -0.0273
vn 0.9986 0.0500 -0.0188
vn 0.9981 0.0599 -0.0146
vn 0.9983 0.0568 -0.0159
vn 0.9987 0.0472 -0.0199
vn -0.1678 0.9836 0.0659
vn -0.1620 0.9845 0.0668
vn -0.2318 0.9711 0.0563
vn -0.2395 0.9693 0.0551
vn -0.9982 -0.0552 -0.0243
vn -0.9980 -0.0580 -0.0254
vn -0.9986 -0.0491 -0.0217
vn -0.9987 -0.0466 -0.0207
vn 0.1708 -0.9853 0.0061
vn 0.1650 -0.9863 0.0069
vn 0.2358 -0.9718 -0.0030
vn 0.2431 -0.9700 -0.0041
vn -0.0051 0.9978 -0.0659
vn 0.9942 -0.0155 -0.1066
vn 0.9946 -0.0141 -0.1025
vn 0.9926 -0.0200 -0.1197
vn 0.9921 -0.0212 -0.1233
vn -0.1033 -0.0066 -0.9946
vn -0.9941 -0.0049 0.1081
vn -0.9946 -0.0037 0.1037
vn -0.9926 -0.0085 0.1215
vn -0.9921 -0.0095 0.1253
vn 0.1033 0.0526 0.9933
vn 0.0290 0.9996 0.0000
vn 0.9989 -0.0171 0.0429
vn 0.0419 -0.0138 -0.9990
vn 0.0425 -0.0137 -0.9990
vn 0.0392 -0.0145 -0.9991
vn 0.0385 -0.0146 -0.9992
vn -0.9989 0.0165 -0.0429
vn -0.0426 -0.0125 0.9990
vn -0.0433 -0.0123 0.9990
vn -0.0399 -0.0132 0.9991
vn -0.0392 -0.0134 0.9991
vn -0.0087 0.9978 0.0655
vn -0.9946 -0.0155 -0.1027
vn -0.9942 -0.0141 -0.1068
vn -0.9958 -0.0200 -0.0896
vn -0.9961 -0.0212 -0.0860
vn -0.1060 -0.0066 0.9943
vn 0.9948 -0.0049 0.1012
vn 0.9944 -0.0037 0.1056
vn 0.9961 -0.0085 0.0878
vn 0.9964 -0.0095 0.0840
vn 0.1057 0.0526 -0.9930
vn 0.0557 0.0524 0.9971
vn 0.0565 0.0547 0.9969
vn 0.0535 0.0458 0.9975
vn 0.0528 0.0436 0.9976
vn 0.0106 0.9876 -0.1566
vn -0.0067 0.9711 -0.2387
vn -0.0050 0.9730 -0.2307
vn 0.0118 0.9885 -0.1508
vn -0.1041 -0.0501 -0.9933
vn -0.1017 -0.0430 -0.9939
vn -0.1023 -0.0446 -0.9938
vn -0.1023 -0.0447 -0.9937
vn -0.1047 -0.0520 -0.9931
vn 0.0400 -0.9872 0.1541
vn 0.0356 -0.9709 0.2367
vn 0.0360 -0.9729 0.2286
vn 0.0402 -0.9881 0.1485
vn 0.0080 0.0500 0.9987
vn 0.0039 0.0599 0.9982
vn 0.0052 0.0568 0.9984
vn 0.0092 0.0472 0.9988
vn -0.0641 0.9836 -0.1685
vn -0.0651 0.9845 -0.1627
vn -0.0538 0.9711 -0.2324
vn -0.0526 0.9693 -0.2401
vn 0.0350 -0.0552 -0.9979
vn 0.0361 -0.0580 -0.9977
vn 0.0325 -0.0491 -0.9983
vn 0.0314 -0.0466 -0.9984
vn -0.0079 -0.9853 0.1707
vn -0.0086 -0.9863 0.1650
vn 0.0005 -0.9718 0.2358
vn 0.0014 -0.9700 0.2431
vn 0.0656 0.9978 -0.0076
vn 0.1446 -0.0155 0.9894
vn 0.1405 -0.0141 0.9900
vn 0.1576 -0.0200 0.9873
vn 0.1612 -0.0212 0.9867
vn 0.9899 -0.0066 -0.1414
vn 0.9899 -0.0066 -0.1413
vn -0.1460 -0.0049 -0.9893
vn -0.1417 -0.0037 -0.9899
vn -0.1594 -0.0085 -0.9872
vn -0.1632 -0.0095 -0.9865
vn -0.9886 0.0526 0.1412
usemtl TT_RTS_Buildings_mat.005
s 1
f 5/1/1 6/2/1 7/3/1
f 7/3/1 8/4/1 5/1/1
f 8/5/2 7/6/2 3/7/2
f 3/7/2 2/8/2 8/5/2
f 5/9/3 8/5/3 2/8/3
f 2/8/3 1/10/3 5/9/3
f 6/11/4 5/9/4 1/10/4
f 1/10/4 4/12/4 6/11/4
f 7/6/5 6/11/5 4/12/5
f 4/12/5 3/7/5 7/6/5
f 13/13/6 14/14/6 15/15/6
f 15/15/6 16/16/6 13/13/6
f 16/17/7 15/18/8 11/19/9
f 11/19/9 10/20/10 16/17/7
f 13/21/11 16/17/11 10/20/11
f 10/20/11 9/22/11 13/21/11
f 14/23/12 13/21/13 9/22/14
f 9/22/14 12/24/15 14/23/12
f 15/18/16 14/23/16 12/24/16
f 12/24/16 11/19/16 15/18/16
f 19/25/17 18/26/18 21/27/19
f 21/27/19 22/28/20 19/25/17
f 17/29/21 23/30/22 21/27/23
f 21/27/23 18/26/24 17/29/21
f 20/31/25 24/32/26 23/30/27
f 23/30/27 17/29/28 20/31/25
f 19/25/29 22/28/30 24/32/31
f 24/32/31 20/31/32 19/25/29
f 29/33/33 28/34/34 27/35/35
f 27/35/35 30/36/36 29/33/33
f 25/37/37 28/34/38 29/33/39
f 29/33/39 31/38/40 25/37/37
f 26/39/41 25/37/42 31/38/43
f 31/38/43 32/40/44 26/39/41
f 27/35/45 26/39/46 32/40/47
f 32/40/47 30/36/48 27/35/45
f 37/41/49 38/42/49 39/43/49
f 39/43/49 40/44/49 37/41/49
f 40/45/50 39/46/51 35/47/52
f 35/47/52 34/48/53 40/45/50
f 37/49/54 40/45/54 34/48/54
f 34/48/54 33/50/54 37/49/54
f 38/51/55 37/49/56 33/50/57
f 33/50/57 36/52/58 38/51/55
f 39/46/59 38/51/59 36/52/59
f 36/52/59 35/47/59 39/46/59
f 45/53/60 46/54/60 47/55/60
f 47/55/60 48/56/60 45/53/60
f 48/57/61 47/58/61 43/59/61
f 43/59/61 42/60/61 48/57/61
f 45/61/62 48/57/63 42/60/64
f 42/60/64 41/62/65 45/61/62
f 46/63/66 45/61/66 41/62/66
f 41/62/66 44/64/66 46/63/66
f 47/58/67 46/63/68 44/64/69
f 44/64/69 43/59/70 47/58/67
f 53/65/1 54/66/1 55/67/1
f 55/67/1 56/68/1 53/65/1
f 56/69/2 55/70/2 51/71/2
f 51/71/2 50/72/2 56/69/2
f 53/73/3 56/69/3 50/72/3
f 50/72/3 49/74/3 53/73/3
f 54/75/4 53/73/4 49/74/4
f 49/74/4 52/76/4 54/75/4
f 55/70/5 54/75/5 52/76/5
f 52/76/5 51/71/5 55/70/5
f 61/77/71 62/78/71 63/79/71
f 63/79/71 64/80/71 61/77/71
f 64/81/72 63/82/73 59/83/74
f 59/83/74 58/84/75 64/81/72
f 61/85/76 64/81/76 58/84/76
f 58/84/76 57/86/76 61/85/76
f 62/87/77 61/85/78 57/86/79
f 57/86/79 60/88/80 62/87/77
f 63/82/81 62/87/81 60/88/81
f 60/88/81 59/83/81 63/82/81
f 67/89/82 66/90/83 69/91/84
f 69/91/84 70/92/85 67/89/82
f 65/93/86 71/94/87 69/91/88
f 69/91/88 66/90/89 65/93/86
f 68/95/90 72/96/91 71/94/92
f 71/94/93 65/93/94 68/95/90
f 67/89/95 70/92/96 72/96/97
f 72/96/97 68/95/98 67/89/95
f 77/97/99 76/98/100 75/99/101
f 75/99/101 78/100/102 77/97/99
f 73/101/103 76/98/104 77/97/105
f 77/97/105 79/102/106 73/101/103
f 74/103/107 73/101/108 79/102/109
f 79/102/109 80/104/110 74/103/107
f 75/99/111 74/103/112 80/104/113
f 80/104/113 78/100/114 75/99/111
f 85/105/115 86/106/115 87/107/115
f 87/107/115 88/108/115 85/105/115
f 88/109/116 87/110/117 83/111/118
f 83/111/118 82/112/119 88/109/116
f 85/113/120 88/109/120 82/112/121
f 82/112/121 81/114/121 85/113/120
f 86/115/122 85/113/123 81/114/124
f 81/114/124 84/116/125 86/115/122
f 87/110/126 86/115/126 84/116/126
f 84/116/126 83/111/126 87/110/126
