# Blender v2.81 (sub 16) OBJ File: ''
# www.blender.org
mtllib OpenFence_F.mtl
o OpenFence_F_fence_1_Mesh.009
v -2.137005 -0.291865 -2.054111
v -1.818182 -0.300234 -2.041702
v -1.831657 -0.299854 -1.727949
v -2.150479 -0.291485 -1.740357
v -2.115773 0.946176 -2.071424
v -2.130682 0.946596 -1.724279
v -1.811259 0.937336 -1.710551
v -1.796350 0.936916 -2.057695
v -1.827283 -0.367729 -0.856572
v -1.853803 -0.368214 -0.579524
v -2.241380 -0.342465 -0.608237
v -2.214859 -0.341979 -0.885285
v -1.818967 0.826410 -0.860217
v -2.151240 0.848508 -0.891985
v -2.180583 0.847971 -0.585452
v -1.848309 0.825872 -0.553684
v -2.055530 0.683831 -1.745760
v -1.914366 0.705302 -1.753416
v -1.896812 0.404286 -1.738183
v -2.037976 0.382815 -1.730526
v -1.935770 0.725150 -0.739165
v -1.920521 0.381768 -0.735706
v -2.029489 0.702049 -0.731635
v -2.014240 0.358667 -0.728176
v -2.048170 0.661956 1.849178
v -2.031066 0.373586 1.835621
v -1.903590 0.394885 1.830774
v -1.920694 0.683256 1.844330
v -1.936215 0.737537 1.006662
v -1.920089 0.394217 1.001592
v -2.029888 0.714037 1.012892
v -2.013762 0.370718 1.007822
v -2.146810 -0.318287 0.807572
v -1.869031 -0.318772 0.790313
v -1.836604 -0.293023 1.177597
v -2.114383 -0.292537 1.194855
v -2.151714 0.875852 0.799930
v -2.130977 0.897950 1.133074
v -1.823636 0.897412 1.113979
v -1.844372 0.875314 0.780835
v -1.857661 -0.296125 1.778331
v -1.839538 -0.303387 2.055960
v -2.141125 -0.295593 2.075851
v -2.159248 -0.288331 1.798222
v -1.809879 0.895049 1.791521
v -2.143562 0.903672 1.813529
v -2.123510 0.895638 2.120705
v -1.789826 0.887014 2.098697
v 2.172717 -0.367729 0.822066
v 2.146197 -0.368214 1.099114
v 1.758620 -0.342465 1.070402
v 1.785141 -0.341979 0.793353
v 2.181033 0.826410 0.818422
v 1.848760 0.848508 0.786654
v 1.819417 0.847971 1.093187
v 2.151691 0.825872 1.124955
v 1.944470 0.683831 -1.745760
v 2.085634 0.705302 -1.753416
v 2.103188 0.404286 -1.738183
v 1.962024 0.382815 -1.730526
v 2.064230 0.725150 -0.739165
v 2.079479 0.381768 -0.735706
v 1.970511 0.702049 -0.731635
v 1.985760 0.358667 -0.728176
v 1.951830 0.661956 1.849178
v 1.968934 0.373586 1.835621
v 2.096410 0.394885 1.830774
v 2.079306 0.683256 1.844330
v 2.063785 0.737537 1.006662
v 2.079911 0.394217 1.001592
v 1.970112 0.714037 1.012892
v 1.986238 0.370718 1.007822
v 1.819032 -0.367729 -0.959927
v 2.095856 -0.368214 -0.988687
v 2.144312 -0.342465 -0.603081
v 1.867487 -0.341979 -0.574322
v 1.813815 0.826410 -0.967359
v 1.848346 0.848508 -0.635362
v 2.154631 0.847971 -0.667182
v 2.120101 0.825872 -0.999180
v 1.862995 -0.291865 -2.054111
v 2.181818 -0.300234 -2.041702
v 2.168343 -0.299854 -1.727949
v 1.849521 -0.291485 -1.740357
v 1.884227 0.946176 -2.071424
v 1.869318 0.946596 -1.724279
v 2.188741 0.937336 -1.710551
v 2.203650 0.936916 -2.057695
v 2.142339 -0.296125 1.778331
v 2.160462 -0.303387 2.055960
v 1.858875 -0.295593 2.075851
v 1.840752 -0.288331 1.798222
v 2.190121 0.895049 1.791521
v 1.856438 0.903672 1.813529
v 1.876490 0.895638 2.120705
v 2.210174 0.887014 2.098697
v -0.767219 -0.367729 -1.825930
v -1.043966 -0.368214 -1.855425
v -1.011091 -0.342465 -2.242671
v -0.734344 -0.341979 -2.213176
v -0.763663 0.826410 -1.817576
v -0.728328 0.848508 -2.149488
v -1.034528 0.847971 -2.182122
v -1.069863 0.825872 -1.850209
v 1.898906 0.683831 -2.036774
v 1.905045 0.705302 -1.895535
v 1.889624 0.404286 -1.878146
v 1.883484 0.382815 -2.019384
v 0.961555 0.725150 -1.927833
v 0.957933 0.381768 -1.912623
v 0.955261 0.702049 -2.021628
v 0.951410 0.358667 -2.006417
v -1.848554 0.661956 -1.964194
v -1.835181 0.373586 -1.946946
v -1.831704 0.394885 -1.819425
v -1.845076 0.683256 -1.836673
v -1.007289 0.737537 -1.947032
v -1.002393 0.394217 -1.930853
v -1.012513 0.714037 -2.040767
v -1.007616 0.370718 -2.024587
v 1.109194 -0.339227 -2.118197
v 1.114472 -0.339712 -1.839933
v 0.726151 -0.313963 -1.824217
v 0.720873 -0.313477 -2.102481
v 1.117039 0.854912 -2.122768
v 0.783312 0.877010 -2.116399
v 0.789151 0.876473 -1.808520
v 1.122880 0.854374 -1.814889
v 1.047128 -0.367729 2.174070
v 0.770381 -0.368214 2.144575
v 0.803255 -0.342465 1.757329
v 1.080002 -0.341979 1.786824
v 1.050683 0.826410 2.182424
v 1.086018 0.848508 1.850512
v 0.779818 0.847971 1.817878
v 0.744483 0.825872 2.149791
v 1.905063 0.683831 1.877018
v 1.911202 0.705302 2.018256
v 1.895782 0.404286 2.035645
v 1.889642 0.382815 1.894407
v 0.940906 0.725150 2.072166
v 0.937283 0.381768 2.087378
v 0.934383 0.702049 1.978372
v 0.930760 0.358667 1.993583
v -1.848554 0.661956 1.931969
v -1.835181 0.373586 1.949217
v -1.831704 0.394885 2.076738
v -1.845075 0.683256 2.059489
v -1.007289 0.737537 2.052968
v -1.002393 0.394217 2.069147
v -1.012513 0.714037 1.959233
v -1.007616 0.370718 1.975413
v -0.847826 -0.326512 1.800144
v -0.808489 -0.326997 2.075664
v -1.191957 -0.301248 2.138848
v -1.231294 -0.300762 1.863327
v -0.840600 0.867627 1.794647
v -1.171032 0.889725 1.841863
v -1.127508 0.889188 2.146706
v -0.797076 0.867089 2.099489
vt 0.251983 0.153866
vt 0.193392 0.153866
vt 0.193392 0.098862
vt 0.251983 0.098862
vt 0.299982 0.053642
vt 0.299982 0.076141
vt 0.194597 0.076141
vt 0.194597 0.053642
vt 0.299982 0.071720
vt 0.194597 0.071720
vt 0.299982 0.094219
vt 0.194597 0.094219
vt 0.251983 0.153866
vt 0.193392 0.153866
vt 0.193392 0.098862
vt 0.251983 0.098862
vt 0.299982 0.053642
vt 0.299982 0.076141
vt 0.194597 0.076141
vt 0.194597 0.053642
vt 0.299982 0.071720
vt 0.194597 0.071720
vt 0.299982 0.094219
vt 0.194597 0.094219
vt 0.194597 0.076141
vt 0.194597 0.053642
vt 0.247290 0.053642
vt 0.247290 0.076141
vt 0.194597 0.071720
vt 0.247290 0.071720
vt 0.194597 0.094219
vt 0.247290 0.094219
vt 0.247290 0.053642
vt 0.299982 0.053642
vt 0.299982 0.076141
vt 0.247290 0.076141
vt 0.299982 0.071720
vt 0.247290 0.071720
vt 0.299982 0.094219
vt 0.247290 0.094219
vt 0.251983 0.153866
vt 0.193392 0.153866
vt 0.193392 0.098862
vt 0.251983 0.098862
vt 0.299982 0.053642
vt 0.299982 0.076141
vt 0.194597 0.076141
vt 0.194597 0.053642
vt 0.299982 0.071720
vt 0.194597 0.071720
vt 0.299982 0.094219
vt 0.194597 0.094219
vt 0.251983 0.153866
vt 0.193392 0.153866
vt 0.193392 0.098862
vt 0.251983 0.098862
vt 0.299982 0.053642
vt 0.299982 0.076141
vt 0.194597 0.076141
vt 0.194597 0.053642
vt 0.299982 0.071720
vt 0.194597 0.071720
vt 0.299982 0.094219
vt 0.194597 0.094219
vt 0.251983 0.153866
vt 0.193392 0.153866
vt 0.193392 0.098862
vt 0.251983 0.098862
vt 0.299982 0.053642
vt 0.299982 0.076141
vt 0.194597 0.076141
vt 0.194597 0.053642
vt 0.299982 0.071720
vt 0.194597 0.071720
vt 0.299982 0.094219
vt 0.194597 0.094219
vt 0.194597 0.076141
vt 0.194597 0.053642
vt 0.247290 0.053642
vt 0.247290 0.076141
vt 0.194597 0.071720
vt 0.247290 0.071720
vt 0.194597 0.094219
vt 0.247290 0.094219
vt 0.247290 0.053642
vt 0.299982 0.053642
vt 0.299982 0.076141
vt 0.247290 0.076141
vt 0.299982 0.071720
vt 0.247290 0.071720
vt 0.299982 0.094219
vt 0.247290 0.094219
vt 0.251983 0.153866
vt 0.193392 0.153866
vt 0.193392 0.098862
vt 0.251983 0.098862
vt 0.299982 0.053642
vt 0.299982 0.076141
vt 0.194597 0.076141
vt 0.194597 0.053642
vt 0.299982 0.071720
vt 0.194597 0.071720
vt 0.299982 0.094219
vt 0.194597 0.094219
vt 0.251983 0.153866
vt 0.193392 0.153866
vt 0.193392 0.098862
vt 0.251983 0.098862
vt 0.299982 0.053642
vt 0.299982 0.076141
vt 0.194597 0.076141
vt 0.194597 0.053642
vt 0.299982 0.071720
vt 0.194597 0.071720
vt 0.299982 0.094219
vt 0.194597 0.094219
vt 0.251983 0.153866
vt 0.193392 0.153866
vt 0.193392 0.098862
vt 0.251983 0.098862
vt 0.299982 0.053642
vt 0.299982 0.076141
vt 0.194597 0.076141
vt 0.194597 0.053642
vt 0.299982 0.071720
vt 0.194597 0.071720
vt 0.299982 0.094219
vt 0.194597 0.094219
vt 0.251983 0.153866
vt 0.193392 0.153866
vt 0.193392 0.098862
vt 0.251983 0.098862
vt 0.299982 0.053642
vt 0.299982 0.076141
vt 0.194597 0.076141
vt 0.194597 0.053642
vt 0.299982 0.071720
vt 0.194597 0.071720
vt 0.299982 0.094219
vt 0.194597 0.094219
vt 0.194597 0.076141
vt 0.194597 0.053642
vt 0.247290 0.053642
vt 0.247290 0.076141
vt 0.194597 0.071720
vt 0.247290 0.071720
vt 0.194597 0.094219
vt 0.247290 0.094219
vt 0.247290 0.053642
vt 0.299982 0.053642
vt 0.299982 0.076141
vt 0.247290 0.076141
vt 0.299982 0.071720
vt 0.247290 0.071720
vt 0.299982 0.094219
vt 0.247290 0.094219
vt 0.251983 0.153866
vt 0.193392 0.153866
vt 0.193392 0.098862
vt 0.251983 0.098862
vt 0.299982 0.053642
vt 0.299982 0.076141
vt 0.194597 0.076141
vt 0.194597 0.053642
vt 0.299982 0.071720
vt 0.194597 0.071720
vt 0.299982 0.094219
vt 0.194597 0.094219
vt 0.251983 0.153866
vt 0.193392 0.153866
vt 0.193392 0.098862
vt 0.251983 0.098862
vt 0.299982 0.053642
vt 0.299982 0.076141
vt 0.194597 0.076141
vt 0.194597 0.053642
vt 0.299982 0.071720
vt 0.194597 0.071720
vt 0.299982 0.094219
vt 0.194597 0.094219
vt 0.194597 0.076141
vt 0.194597 0.053642
vt 0.247290 0.053642
vt 0.247290 0.076141
vt 0.194597 0.071720
vt 0.247290 0.071720
vt 0.194597 0.094219
vt 0.247290 0.094219
vt 0.247290 0.053642
vt 0.299982 0.053642
vt 0.299982 0.076141
vt 0.247290 0.076141
vt 0.299982 0.071720
vt 0.247290 0.071720
vt 0.299982 0.094219
vt 0.247290 0.094219
vt 0.251983 0.153866
vt 0.193392 0.153866
vt 0.193392 0.098862
vt 0.251983 0.098862
vt 0.299982 0.053642
vt 0.299982 0.076141
vt 0.194597 0.076141
vt 0.194597 0.053642
vt 0.299982 0.071720
vt 0.194597 0.071720
vt 0.299982 0.094219
vt 0.194597 0.094219
vn 0.0290 0.9996 0.0000
vn 0.9989 -0.0171 0.0429
vn 0.0419 -0.0138 -0.9990
vn 0.0425 -0.0137 -0.9990
vn 0.0392 -0.0145 -0.9991
vn 0.0385 -0.0146 -0.9992
vn -0.9989 0.0165 -0.0429
vn -0.0426 -0.0125 0.9990
vn -0.0433 -0.0123 0.9990
vn -0.0399 -0.0132 0.9991
vn -0.0392 -0.0134 0.9991
vn 0.0656 0.9978 0.0080
vn -0.0920 -0.0155 0.9956
vn -0.0961 -0.0141 0.9953
vn -0.0789 -0.0200 0.9967
vn -0.0753 -0.0212 0.9969
vn 0.9954 -0.0066 0.0953
vn 0.0906 -0.0049 -0.9959
vn 0.0949 -0.0037 -0.9955
vn 0.0771 -0.0085 -0.9970
vn 0.0732 -0.0095 -0.9973
vn -0.9941 0.0526 -0.0951
vn 0.9982 0.0562 0.0209
vn 0.9980 0.0592 0.0199
vn 0.9986 0.0473 0.0237
vn 0.9987 0.0446 0.0246
vn -0.1569 0.9874 -0.0219
vn -0.2402 0.9707 -0.0113
vn -0.2327 0.9725 -0.0122
vn -0.1515 0.9882 -0.0225
vn -0.9982 -0.0543 0.0258
vn -0.9988 -0.0441 0.0226
vn -0.9986 -0.0465 0.0233
vn -0.9980 -0.0569 0.0266
vn 0.1546 -0.9876 -0.0266
vn 0.2381 -0.9711 -0.0162
vn 0.2298 -0.9731 -0.0172
vn 0.1489 -0.9885 -0.0273
vn 0.9986 0.0500 -0.0188
vn 0.9981 0.0599 -0.0146
vn 0.9983 0.0568 -0.0159
vn 0.9987 0.0472 -0.0199
vn -0.1678 0.9836 0.0659
vn -0.1620 0.9845 0.0668
vn -0.2318 0.9711 0.0563
vn -0.2395 0.9693 0.0551
vn -0.9982 -0.0552 -0.0243
vn -0.9980 -0.0580 -0.0254
vn -0.9986 -0.0491 -0.0217
vn -0.9987 -0.0466 -0.0207
vn 0.1708 -0.9853 0.0061
vn 0.1650 -0.9863 0.0069
vn 0.2358 -0.9718 -0.0030
vn 0.2431 -0.9700 -0.0041
vn -0.0024 0.9978 -0.0660
vn 0.9977 -0.0155 -0.0653
vn 0.9980 -0.0141 -0.0612
vn 0.9967 -0.0200 -0.0784
vn 0.9964 -0.0212 -0.0820
vn -0.0620 -0.0066 -0.9981
vn -0.9978 -0.0049 0.0668
vn -0.9980 -0.0037 0.0624
vn -0.9967 -0.0085 0.0802
vn -0.9964 -0.0095 0.0841
vn 0.0620 0.0526 0.9967
vn 0.0274 0.9993 0.0243
vn 0.0648 -0.0385 0.9972
vn 0.9970 -0.0393 -0.0661
vn -0.0655 0.0137 -0.9978
vn -0.9978 0.0123 0.0655
vn -0.0051 0.9978 -0.0659
vn 0.9942 -0.0155 -0.1066
vn 0.9946 -0.0141 -0.1025
vn 0.9926 -0.0200 -0.1197
vn 0.9921 -0.0212 -0.1233
vn -0.1033 -0.0066 -0.9946
vn -0.9941 -0.0049 0.1081
vn -0.9946 -0.0037 0.1037
vn -0.9926 -0.0085 0.1215
vn -0.9921 -0.0095 0.1253
vn 0.1033 0.0526 0.9933
vn -0.0087 0.9978 0.0655
vn -0.9946 -0.0155 -0.1027
vn -0.9942 -0.0141 -0.1068
vn -0.9958 -0.0200 -0.0896
vn -0.9961 -0.0212 -0.0860
vn -0.1060 -0.0066 0.9943
vn 0.9948 -0.0049 0.1012
vn 0.9944 -0.0037 0.1056
vn 0.9961 -0.0085 0.0878
vn 0.9964 -0.0095 0.0840
vn 0.1057 0.0526 -0.9930
vn -0.0340 0.0561 0.9978
vn -0.0329 0.0593 0.9977
vn -0.0370 0.0476 0.9982
vn -0.0380 0.0446 0.9983
vn 0.0253 0.9873 -0.1571
vn 0.0149 0.9706 -0.2401
vn 0.0159 0.9726 -0.2321
vn 0.0260 0.9881 -0.1513
vn -0.0162 -0.0540 -0.9984
vn -0.0128 -0.0441 -0.9989
vn -0.0136 -0.0466 -0.9988
vn -0.0171 -0.0568 -0.9982
vn 0.0268 -0.9875 0.1552
vn 0.0147 -0.9711 0.2382
vn 0.0160 -0.9732 0.2293
vn 0.0277 -0.9884 0.1491
vn 0.1316 0.0521 0.9899
vn 0.1262 0.0651 0.9899
vn 0.1278 0.0611 0.9899
vn 0.1330 0.0485 0.9899
vn -0.0848 0.9822 -0.1673
vn -0.0850 0.9831 -0.1619
vn -0.0824 0.9695 -0.2310
vn -0.0821 0.9678 -0.2381
vn -0.0887 -0.0598 -0.9943
vn -0.0871 -0.0635 -0.9942
vn -0.0921 -0.0515 -0.9944
vn -0.0935 -0.0482 -0.9945
vn 0.0135 -0.9853 0.1704
vn 0.0120 -0.9863 0.1644
vn 0.0297 -0.9718 0.2338
vn 0.0317 -0.9699 0.2414
vn 0.0661 0.9978 0.0005
vn 0.0222 -0.0155 0.9996
vn 0.0181 -0.0141 0.9997
vn 0.0354 -0.0200 0.9992
vn 0.0390 -0.0212 0.9990
vn 0.9998 -0.0066 -0.0190
vn -0.0237 -0.0049 -0.9997
vn -0.0193 -0.0037 -0.9998
vn -0.0372 -0.0085 -0.9993
vn -0.0411 -0.0095 -0.9991
vn -0.9984 0.0526 0.0190
vn 0.0557 0.0524 0.9971
vn 0.0565 0.0547 0.9969
vn 0.0535 0.0458 0.9975
vn 0.0528 0.0436 0.9976
vn 0.0106 0.9876 -0.1566
vn -0.0067 0.9711 -0.2387
vn -0.0050 0.9730 -0.2307
vn 0.0118 0.9885 -0.1508
vn -0.1041 -0.0501 -0.9933
vn -0.1017 -0.0430 -0.9939
vn -0.1023 -0.0446 -0.9938
vn -0.1023 -0.0447 -0.9937
vn -0.1047 -0.0520 -0.9931
vn 0.0400 -0.9872 0.1541
vn 0.0356 -0.9709 0.2367
vn 0.0360 -0.9729 0.2286
vn 0.0402 -0.9881 0.1485
vn 0.0080 0.0500 0.9987
vn 0.0039 0.0599 0.9982
vn 0.0052 0.0568 0.9984
vn 0.0092 0.0472 0.9988
vn -0.0641 0.9836 -0.1685
vn -0.0651 0.9845 -0.1627
vn -0.0538 0.9711 -0.2324
vn -0.0526 0.9693 -0.2401
vn 0.0350 -0.0552 -0.9979
vn 0.0361 -0.0580 -0.9977
vn 0.0325 -0.0491 -0.9983
vn 0.0314 -0.0466 -0.9984
vn -0.0079 -0.9853 0.1707
vn -0.0086 -0.9863 0.1650
vn 0.0005 -0.9718 0.2358
vn 0.0014 -0.9700 0.2431
vn 0.0656 0.9978 -0.0076
vn 0.1446 -0.0155 0.9894
vn 0.1405 -0.0141 0.9900
vn 0.1576 -0.0200 0.9873
vn 0.1612 -0.0212 0.9867
vn 0.9899 -0.0066 -0.1414
vn 0.9899 -0.0066 -0.1413
vn -0.1460 -0.0049 -0.9893
vn -0.1417 -0.0037 -0.9899
vn -0.1594 -0.0085 -0.9872
vn -0.1632 -0.0095 -0.9865
vn -0.9886 0.0526 0.1412
usemtl TT_RTS_Buildings_mat.002
s 1
f 5/1/1 6/2/1 7/3/1
f 7/3/1 8/4/1 5/1/1
f 8/5/2 7/6/2 3/7/2
f 3/7/2 2/8/2 8/5/2
f 5/9/3 8/5/4 2/8/5
f 2/8/5 1/10/6 5/9/3
f 6/11/7 5/9/7 1/10/7
f 1/10/7 4/12/7 6/11/7
f 7/6/8 6/11/9 4/12/10
f 4/12/10 3/7/11 7/6/8
f 13/13/12 14/14/12 15/15/12
f 15/15/12 16/16/12 13/13/12
f 16/17/13 15/18/14 11/19/15
f 11/19/15 10/20/16 16/17/13
f 13/21/17 16/17/17 10/20/17
f 10/20/17 9/22/17 13/21/17
f 14/23/18 13/21/19 9/22/20
f 9/22/20 12/24/21 14/23/18
f 15/18/22 14/23/22 12/24/22
f 12/24/22 11/19/22 15/18/22
f 19/25/23 18/26/24 21/27/25
f 21/27/25 22/28/26 19/25/23
f 17/29/27 23/30/28 21/27/29
f 21/27/29 18/26/30 17/29/27
f 20/31/31 24/32/32 23/30/33
f 23/30/33 17/29/34 20/31/31
f 19/25/35 22/28/36 24/32/37
f 24/32/37 20/31/38 19/25/35
f 29/33/39 28/34/40 27/35/41
f 27/35/41 30/36/42 29/33/39
f 25/37/43 28/34/44 29/33/45
f 29/33/45 31/38/46 25/37/43
f 26/39/47 25/37/48 31/38/49
f 31/38/49 32/40/50 26/39/47
f 27/35/51 26/39/52 32/40/53
f 32/40/53 30/36/54 27/35/51
f 37/41/55 38/42/55 39/43/55
f 39/43/55 40/44/55 37/41/55
f 40/45/56 39/46/57 35/47/58
f 35/47/58 34/48/59 40/45/56
f 37/49/60 40/45/60 34/48/60
f 34/48/60 33/50/60 37/49/60
f 38/51/61 37/49/62 33/50/63
f 33/50/63 36/52/64 38/51/61
f 39/46/65 38/51/65 36/52/65
f 36/52/65 35/47/65 39/46/65
f 45/53/66 46/54/66 47/55/66
f 47/55/66 48/56/66 45/53/66
f 48/57/67 47/58/67 43/59/67
f 43/59/67 42/60/67 48/57/67
f 45/61/68 48/57/68 42/60/68
f 42/60/68 41/62/68 45/61/68
f 46/63/69 45/61/69 41/62/69
f 41/62/69 44/64/69 46/63/69
f 47/58/70 46/63/70 44/64/70
f 44/64/70 43/59/70 47/58/70
f 53/65/12 54/66/12 55/67/12
f 55/67/12 56/68/12 53/65/12
f 56/69/13 55/70/14 51/71/15
f 51/71/15 50/72/16 56/69/13
f 53/73/17 56/69/17 50/72/17
f 50/72/17 49/74/17 53/73/17
f 54/75/18 53/73/19 49/74/20
f 49/74/20 52/76/21 54/75/18
f 55/70/22 54/75/22 52/76/22
f 52/76/22 51/71/22 55/70/22
f 59/77/23 58/78/24 61/79/25
f 61/79/25 62/80/26 59/77/23
f 57/81/27 63/82/28 61/79/29
f 61/79/29 58/78/30 57/81/27
f 60/83/31 64/84/32 63/82/33
f 63/82/33 57/81/34 60/83/31
f 59/77/35 62/80/36 64/84/37
f 64/84/37 60/83/38 59/77/35
f 69/85/39 68/86/40 67/87/41
f 67/87/41 70/88/42 69/85/39
f 65/89/43 68/86/44 69/85/45
f 69/85/45 71/90/46 65/89/43
f 66/91/47 65/89/48 71/90/49
f 71/90/49 72/92/50 66/91/47
f 67/87/51 66/91/52 72/92/53
f 72/92/53 70/88/54 67/87/51
f 77/93/71 78/94/71 79/95/71
f 79/95/71 80/96/71 77/93/71
f 80/97/72 79/98/73 75/99/74
f 75/99/74 74/100/75 80/97/72
f 77/101/76 80/97/76 74/100/76
f 74/100/76 73/102/76 77/101/76
f 78/103/77 77/101/78 73/102/79
f 73/102/79 76/104/80 78/103/77
f 79/98/81 78/103/81 76/104/81
f 76/104/81 75/99/81 79/98/81
f 85/105/1 86/106/1 87/107/1
f 87/107/1 88/108/1 85/105/1
f 88/109/2 87/110/2 83/111/2
f 83/111/2 82/112/2 88/109/2
f 85/113/3 88/109/4 82/112/5
f 82/112/5 81/114/6 85/113/3
f 86/115/7 85/113/7 81/114/7
f 81/114/7 84/116/7 86/115/7
f 87/110/8 86/115/9 84/116/10
f 84/116/10 83/111/11 87/110/8
f 93/117/66 94/118/66 95/119/66
f 95/119/66 96/120/66 93/117/66
f 96/121/67 95/122/67 91/123/67
f 91/123/67 90/124/67 96/121/67
f 93/125/68 96/121/68 90/124/68
f 90/124/68 89/126/68 93/125/68
f 94/127/69 93/125/69 89/126/69
f 89/126/69 92/128/69 94/127/69
f 95/122/70 94/127/70 92/128/70
f 92/128/70 91/123/70 95/122/70
f 101/129/82 102/130/82 103/131/82
f 103/131/82 104/132/82 101/129/82
f 104/133/83 103/134/84 99/135/85
f 99/135/85 98/136/86 104/133/83
f 101/137/87 104/133/87 98/136/87
f 98/136/87 97/138/87 101/137/87
f 102/139/88 101/137/89 97/138/90
f 97/138/90 100/140/91 102/139/88
f 103/134/92 102/139/92 100/140/92
f 100/140/92 99/135/92 103/134/92
f 107/141/93 106/142/94 109/143/95
f 109/143/95 110/144/96 107/141/93
f 105/145/97 111/146/98 109/143/99
f 109/143/99 106/142/100 105/145/97
f 108/147/101 112/148/102 111/146/103
f 111/146/103 105/145/104 108/147/101
f 107/141/105 110/144/106 112/148/107
f 112/148/107 108/147/108 107/141/105
f 117/149/109 116/150/110 115/151/111
f 115/151/111 118/152/112 117/149/109
f 113/153/113 116/150/114 117/149/115
f 117/149/115 119/154/116 113/153/113
f 114/155/117 113/153/118 119/154/119
f 119/154/119 120/156/120 114/155/117
f 115/151/121 114/155/122 120/156/123
f 120/156/123 118/152/124 115/151/121
f 125/157/125 126/158/125 127/159/125
f 127/159/125 128/160/125 125/157/125
f 128/161/126 127/162/127 123/163/128
f 123/163/128 122/164/129 128/161/126
f 125/165/130 128/161/130 122/164/130
f 122/164/130 121/166/130 125/165/130
f 126/167/131 125/165/132 121/166/133
f 121/166/133 124/168/134 126/167/131
f 127/162/135 126/167/135 124/168/135
f 124/168/135 123/163/135 127/162/135
f 133/169/82 134/170/82 135/171/82
f 135/171/82 136/172/82 133/169/82
f 136/173/83 135/174/84 131/175/85
f 131/175/85 130/176/86 136/173/83
f 133/177/87 136/173/87 130/176/87
f 130/176/87 129/178/87 133/177/87
f 134/179/88 133/177/89 129/178/90
f 129/178/90 132/180/91 134/179/88
f 135/174/92 134/179/92 132/180/92
f 132/180/92 131/175/92 135/174/92
f 139/181/136 138/182/137 141/183/138
f 141/183/138 142/184/139 139/181/136
f 137/185/140 143/186/141 141/183/142
f 141/183/142 138/182/143 137/185/140
f 140/187/144 144/188/145 143/186/146
f 143/186/147 137/185/148 140/187/144
f 139/181/149 142/184/150 144/188/151
f 144/188/151 140/187/152 139/181/149
f 149/189/153 148/190/154 147/191/155
f 147/191/155 150/192/156 149/189/153
f 145/193/157 148/190/158 149/189/159
f 149/189/159 151/194/160 145/193/157
f 146/195/161 145/193/162 151/194/163
f 151/194/163 152/196/164 146/195/161
f 147/191/165 146/195/166 152/196/167
f 152/196/167 150/192/168 147/191/165
f 157/197/169 158/198/169 159/199/169
f 159/199/169 160/200/169 157/197/169
f 160/201/170 159/202/171 155/203/172
f 155/203/172 154/204/173 160/201/170
f 157/205/174 160/201/174 154/204/175
f 154/204/175 153/206/175 157/205/174
f 158/207/176 157/205/177 153/206/178
f 153/206/178 156/208/179 158/207/176
f 159/202/180 158/207/180 156/208/180
f 156/208/180 155/203/180 159/202/180
