# Blender v2.81 (sub 16) OBJ File: ''
# www.blender.org
mtllib StoneWall_E.mtl
o Wall_E_Mesh.017
v 1.500000 -0.100000 1.500000
v -1.246701 4.415180 1.246702
v -1.419873 4.669180 1.420877
v 1.421363 4.669180 1.420877
v -1.354321 5.191055 1.355326
v 1.358303 1.278737 1.358303
v -1.358303 1.278737 1.358303
v 1.479417 1.030565 1.479417
v 1.246702 4.415180 1.246701
v 1.246701 4.415180 -1.246702
v 1.355811 5.191055 1.355326
v 1.355811 5.191055 -1.354807
v 1.479417 1.030565 -1.479417
v 1.421363 4.669180 -1.420358
v 1.358303 1.278737 -1.358303
v -1.500000 -0.100000 1.500000
v -1.246702 4.415180 -1.246701
v -1.419873 4.669180 -1.420358
v -1.354321 5.191055 -1.354807
v -1.358303 1.278737 -1.358303
v -1.479417 1.030565 1.479417
v -1.479417 1.030565 -1.479417
v 1.500000 -0.100000 -1.500000
v -1.500000 -0.100000 -1.500000
v -0.883691 5.191055 0.884696
v 0.885181 5.191055 0.884696
v 0.885181 5.191055 -0.884176
v -0.883691 5.191055 -0.884176
v 0.836656 4.898880 0.836171
v 0.836656 4.898880 -0.835652
v -0.835166 4.898880 0.836171
v -0.835166 4.898880 -0.835652
v -1.327706 2.907459 1.327706
v 1.327706 2.907459 1.327706
v 1.327706 2.907459 -1.327706
v -1.327706 2.907459 -1.327706
v -0.666742 4.602618 0.689880
v -1.430170 4.634821 0.682746
v -1.452411 4.626809 0.998078
v -0.602675 4.591140 1.084805
v -1.426275 4.696273 1.484099
v -0.662925 4.672857 1.491773
v -0.698853 5.390038 0.720689
v -0.657870 5.420387 1.079746
v -1.402245 5.423285 1.012218
v -1.361126 5.400208 0.726655
v -0.692600 5.398157 1.401813
v -1.371567 5.407903 1.407424
v 1.436520 4.602618 0.689880
v 0.673091 4.634821 0.682746
v 0.650850 4.626810 0.998078
v 1.500586 4.591140 1.084806
v 0.676986 4.696274 1.484100
v 1.440337 4.672858 1.491774
v 1.404408 5.390038 0.720689
v 1.445391 5.420387 1.079747
v 0.701016 5.423285 1.012219
v 0.742135 5.400208 0.726655
v 1.410662 5.398158 1.401814
v 0.731694 5.407904 1.407424
v -0.666741 4.602618 -0.669667
v -1.430170 4.634821 -0.662533
v -1.452411 4.626809 -0.997559
v -0.602675 4.591140 -1.084286
v -1.426275 4.696273 -1.483580
v -0.662924 4.672857 -1.491254
v -0.698853 5.390038 -0.700476
v -0.657870 5.420387 -1.079227
v -1.402245 5.423285 -1.011699
v -1.361126 5.400208 -0.706442
v -0.692599 5.398157 -1.401294
v -1.371566 5.407903 -1.406905
v 1.436520 4.602618 -0.644496
v 0.673092 4.634821 -0.637362
v 0.650851 4.626810 -0.997559
v 1.500586 4.591140 -1.084286
v 0.676987 4.696274 -1.483580
v 1.440337 4.672858 -1.491254
v 1.404408 5.390038 -0.675305
v 1.445391 5.420387 -1.079227
v 0.701016 5.423285 -1.011699
v 0.742135 5.400208 -0.681272
v 1.410662 5.398158 -1.401294
v 0.731695 5.407904 -1.406905
v -0.000001 -0.798671 -1.004484
v -0.000001 3.293599 -0.959071
v -0.000001 3.090997 -0.836050
v -0.000000 3.293599 -0.438276
v -0.000001 3.547599 -0.959034
v -0.000001 3.547599 -0.485375
v -0.000000 -0.798671 1.004485
v -0.000000 3.293599 0.959121
v -0.000000 3.293599 0.438506
v -0.000000 3.090997 0.836045
v -0.000000 3.547599 0.485400
v -0.000000 3.547599 0.959057
v -0.000000 3.293599 0.000000
v -2.000001 -0.798671 -1.004484
v -2.000001 3.090997 -0.836024
v -2.000001 3.293599 -0.958984
v -2.000001 3.293599 -0.438255
v -2.000001 3.547599 -0.485255
v -2.000001 3.547599 -0.959021
v -2.000001 3.293599 0.000000
v -1.020838 3.432211 -1.081347
v -0.910485 3.513427 -0.437822
v -1.489945 3.457726 -1.035719
v -1.480181 3.511044 -0.457615
v -0.928477 3.864398 -0.475814
v -1.014401 3.861334 -1.039547
v -1.431342 3.848133 -0.499048
v -1.424202 3.837826 -1.013246
v -2.000001 -0.798671 1.004485
v -2.000001 3.090997 0.836031
v -2.000001 3.293599 0.438027
v -2.000001 3.293599 0.958934
v -2.000001 3.547599 0.958999
v -2.000001 3.547599 0.485231
v -0.910485 3.513427 0.425215
v -1.020837 3.432211 1.081348
v -1.480181 3.511044 0.445008
v -1.489945 3.457726 1.035719
v -1.014400 3.861334 1.039548
v -0.928477 3.864398 0.463206
v -1.424202 3.837826 1.013246
v -1.431342 3.848133 0.486440
v -0.000001 0.368229 -0.893321
v -0.000000 0.368229 0.893335
v -2.000001 0.368229 -0.893307
v -2.000001 0.368229 0.893294
v -0.000000 0.105676 1.004485
v -2.000001 0.105676 -1.004484
v -0.000001 0.105676 -1.004484
v -2.000001 0.105676 1.004485
vt 0.188949 0.324537
vt 0.002291 0.324514
vt 0.002291 0.328146
vt 0.188949 0.328292
vt 0.188949 0.311490
vt 0.002291 0.311490
vt 0.619651 0.144558
vt 0.619651 0.118287
vt 0.529182 0.118339
vt 0.529182 0.144557
vt 0.188949 0.324537
vt 0.188949 0.328292
vt 0.002291 0.328146
vt 0.002291 0.324514
vt 0.188949 0.311490
vt 0.002291 0.311490
vt 0.529182 0.118785
vt 0.619651 0.118581
vt 0.182416 0.000759
vt 0.178870 0.071553
vt 0.015238 0.071553
vt 0.011692 0.000759
vt 0.012767 0.288793
vt 0.119387 0.288793
vt 0.130734 0.303206
vt 0.001420 0.303206
vt 0.127751 0.340583
vt 0.004404 0.340583
vt 0.158915 0.187817
vt 0.031868 0.187817
vt 0.032087 0.087093
vt 0.159249 0.087093
vt 0.178091 0.087093
vt 0.016016 0.087093
vt 0.182416 0.000759
vt 0.178870 0.071553
vt 0.015238 0.071553
vt 0.011692 0.000759
vt 0.012767 0.288793
vt 0.119387 0.288793
vt 0.130734 0.303206
vt 0.001420 0.303206
vt 0.127751 0.340583
vt 0.004404 0.340583
vt 0.158915 0.187817
vt 0.031868 0.187817
vt 0.032087 0.087093
vt 0.159249 0.087093
vt 0.178091 0.087093
vt 0.016016 0.087093
vt 0.182416 0.000759
vt 0.178870 0.071553
vt 0.015238 0.071553
vt 0.011692 0.000759
vt 0.012767 0.288793
vt 0.119387 0.288793
vt 0.130734 0.303206
vt 0.001420 0.303206
vt 0.127751 0.340583
vt 0.004404 0.340583
vt 0.158915 0.187817
vt 0.031868 0.187817
vt 0.032087 0.087093
vt 0.159249 0.087093
vt 0.178091 0.087093
vt 0.016016 0.087093
vt 0.182416 0.000759
vt 0.178870 0.071553
vt 0.015238 0.071553
vt 0.011692 0.000759
vt 0.012767 0.288793
vt 0.119387 0.288793
vt 0.130734 0.303206
vt 0.001420 0.303206
vt 0.127751 0.340583
vt 0.004404 0.340583
vt 0.158915 0.187817
vt 0.031868 0.187817
vt 0.032087 0.087093
vt 0.159249 0.087093
vt 0.178091 0.087093
vt 0.016016 0.087093
vt 0.123763 0.310384
vt 0.002978 0.310384
vt 0.023953 0.336278
vt 0.102788 0.336278
vt 0.123755 0.310308
vt 0.002970 0.310308
vt 0.023945 0.336202
vt 0.102780 0.336202
vt 0.002978 0.310470
vt 0.123763 0.310470
vt 0.102788 0.336363
vt 0.023953 0.336363
vt 0.002970 0.310345
vt 0.123755 0.310345
vt 0.102780 0.336238
vt 0.023945 0.336238
vt 0.023953 0.336278
vt 0.102788 0.336278
vt 0.023945 0.336202
vt 0.102780 0.336202
vt 0.102788 0.336363
vt 0.023953 0.336363
vt 0.102780 0.336238
vt 0.023945 0.336238
vt 0.695651 0.098810
vt 0.695651 0.163781
vt 0.628513 0.163781
vt 0.628513 0.098810
vt 0.158580 0.288540
vt 0.031648 0.288540
vt 0.158580 0.288540
vt 0.031648 0.288540
vt 0.158580 0.288540
vt 0.031648 0.288540
vt 0.158580 0.288540
vt 0.031648 0.288540
vt 0.163198 0.301301
vt 0.129860 0.300363
vt 0.137257 0.306026
vt 0.163901 0.306687
vt 0.099571 0.303865
vt 0.100304 0.307377
vt 0.161495 0.336023
vt 0.160748 0.335831
vt 0.137292 0.338990
vt 0.131765 0.340338
vt 0.105448 0.338842
vt 0.106203 0.339112
vt 0.163198 0.301301
vt 0.129860 0.300363
vt 0.137257 0.306026
vt 0.163901 0.306687
vt 0.099571 0.303865
vt 0.100304 0.307377
vt 0.161495 0.336023
vt 0.160748 0.335831
vt 0.137292 0.338990
vt 0.131765 0.340338
vt 0.105448 0.338842
vt 0.106203 0.339112
vt 0.163198 0.301301
vt 0.163901 0.306687
vt 0.137257 0.306026
vt 0.129860 0.300363
vt 0.100304 0.307377
vt 0.099571 0.303865
vt 0.161495 0.336023
vt 0.131765 0.340338
vt 0.137292 0.338990
vt 0.160748 0.335831
vt 0.106203 0.339112
vt 0.105448 0.338842
vt 0.163198 0.301301
vt 0.163901 0.306687
vt 0.137257 0.306026
vt 0.129860 0.300363
vt 0.100304 0.307377
vt 0.099571 0.303865
vt 0.161495 0.336023
vt 0.131765 0.340338
vt 0.137292 0.338990
vt 0.160748 0.335831
vt 0.106203 0.339112
vt 0.105448 0.338842
vt 0.002291 0.068879
vt 0.104313 0.068879
vt 0.104313 0.002049
vt 0.002291 0.002049
vt 0.188949 0.289490
vt 0.002291 0.289490
vt 0.002291 0.311490
vt 0.188949 0.311490
vt 0.129860 0.300363
vt 0.137257 0.306026
vt 0.100304 0.307377
vt 0.099571 0.303865
vt 0.131765 0.340338
vt 0.106203 0.339112
vt 0.105448 0.338842
vt 0.137292 0.338990
vt 0.104313 0.002049
vt 0.104313 0.068879
vt 0.002291 0.068879
vt 0.002291 0.002049
vt 0.002291 0.311490
vt 0.002291 0.289490
vt 0.188949 0.289490
vt 0.188949 0.311490
vt 0.129860 0.300363
vt 0.099571 0.303865
vt 0.100304 0.307377
vt 0.137257 0.306026
vt 0.131765 0.340338
vt 0.137292 0.338990
vt 0.105448 0.338842
vt 0.106203 0.339112
vt 0.188533 0.289490
vt 0.188533 0.088281
vt 0.002291 0.088281
vt 0.188533 0.289490
vt 0.002291 0.088281
vt 0.188533 0.088281
vt 0.002291 0.087272
vt 0.104313 0.087272
vt 0.104313 0.087272
vt 0.002291 0.087272
vn 0.0000 1.0000 0.0000
vn 0.0000 0.1821 0.9833
vn 0.0002 0.1821 -0.9833
vn 0.0000 0.0182 0.9998
vn 0.0000 0.2000 0.9798
vn 0.0000 -0.5655 0.8247
vn 0.0000 -0.1777 0.9841
vn 0.0000 -0.1783 0.9840
vn 0.0000 0.1246 0.9922
vn 0.0000 0.0358 0.9994
vn 0.0000 0.0188 0.9998
vn 0.0000 0.4386 0.8987
vn 0.9998 0.0182 -0.0000
vn 0.9798 0.2000 0.0000
vn 0.8240 -0.5666 -0.0000
vn 0.9839 -0.1787 -0.0000
vn 0.9839 -0.1785 -0.0000
vn 0.9922 0.1246 -0.0000
vn 0.9994 0.0358 -0.0000
vn 0.9998 0.0188 -0.0000
vn 0.8987 0.4386 0.0000
vn -0.0000 0.0182 -0.9998
vn 0.0000 0.2000 -0.9798
vn -0.0000 -0.5644 -0.8255
vn -0.0000 -0.1777 -0.9841
vn -0.0000 -0.1770 -0.9842
vn -0.0000 0.1246 -0.9922
vn -0.0000 0.0358 -0.9994
vn 0.0000 0.0188 -0.9998
vn 0.0000 0.4386 -0.8987
vn -0.9998 0.0182 0.0000
vn -0.9798 0.2000 0.0000
vn -0.8262 -0.5633 0.0000
vn -0.9843 -0.1767 0.0000
vn -0.9842 -0.1769 0.0000
vn -0.9922 0.1246 0.0000
vn -0.9994 0.0358 0.0000
vn -0.9998 0.0188 0.0000
vn -0.8987 0.4386 0.0000
vn 0.0000 0.1638 -0.9865
vn -0.9865 0.1638 0.0000
vn 0.0000 0.1638 0.9865
vn 0.9865 0.1638 0.0000
vn 0.0000 0.0536 0.9986
vn 0.9986 0.0536 -0.0000
vn -0.0000 0.0536 -0.9986
vn -0.9986 0.0536 0.0000
vn -0.0401 -0.9989 -0.0239
vn -0.0405 -0.9957 0.0838
vn -0.0484 -0.9974 0.0539
vn -0.0419 -0.9987 -0.0283
vn -0.0320 -0.9808 0.1922
vn -0.0493 -0.9862 0.1580
vn 0.0123 0.9964 -0.0839
vn 0.0146 0.9968 -0.0784
vn 0.0073 0.9997 -0.0233
vn 0.0108 0.9999 -0.0082
vn 0.0041 0.9989 0.0470
vn 0.0149 0.9974 0.0705
vn 0.0026 0.0483 -0.9988
vn 0.0117 0.0562 -0.9983
vn 0.0014 0.0473 -0.9989
vn -0.0084 0.0388 -0.9992
vn -0.9937 0.0714 -0.0866
vn -0.9976 0.0691 -0.0102
vn -0.9969 0.0752 -0.0223
vn -0.9840 0.0973 -0.1495
vn -0.9958 0.0811 0.0420
vn -0.9954 0.0681 0.0667
vn 0.0014 0.1150 0.9934
vn -0.0062 0.1228 0.9924
vn 0.0014 0.1149 0.9934
vn 0.0097 0.1064 0.9943
vn 0.9897 0.0638 0.1279
vn 0.9981 0.0593 -0.0149
vn 0.9981 0.0623 -0.0001
vn 0.9924 0.0543 0.1108
vn 0.9862 0.0464 -0.1586
vn 0.9897 0.0600 -0.1298
vn -0.0402 -0.9989 0.0227
vn -0.0419 -0.9988 0.0267
vn -0.0484 -0.9973 -0.0546
vn -0.0405 -0.9956 -0.0840
vn -0.0493 -0.9862 -0.1580
vn -0.0320 -0.9808 -0.1922
vn 0.0121 0.9968 0.0792
vn 0.0106 0.9999 0.0063
vn 0.0072 0.9998 0.0210
vn 0.0147 0.9972 0.0734
vn 0.0149 0.9974 -0.0705
vn 0.0041 0.9989 -0.0470
vn 0.0026 0.0483 0.9988
vn -0.0084 0.0388 0.9992
vn 0.0014 0.0473 0.9989
vn 0.0117 0.0562 0.9983
vn -0.9940 0.0717 0.0824
vn -0.9854 0.0969 0.1401
vn -0.9970 0.0748 0.0180
vn -0.9976 0.0691 0.0082
vn -0.9954 0.0681 -0.0667
vn -0.9958 0.0811 -0.0420
vn 0.0014 0.1150 -0.9934
vn 0.0097 0.1064 -0.9943
vn 0.0014 0.1149 -0.9934
vn -0.0062 0.1228 -0.9924
vn 0.9897 0.0638 -0.1279
vn 0.9924 0.0543 -0.1108
vn 0.9981 0.0623 -0.0028
vn 0.9982 0.0593 0.0110
vn 0.9905 0.0598 0.1238
vn 0.9874 0.0462 0.1513
vn -0.0404 -0.9990 0.0214
vn -0.0419 -0.9988 0.0248
vn -0.0484 -0.9973 -0.0554
vn -0.0406 -0.9956 -0.0843
vn 0.0118 0.9972 0.0739
vn 0.0104 0.9999 0.0040
vn 0.0072 0.9998 0.0185
vn 0.0147 0.9976 0.0678
vn -0.9944 0.0721 0.0777
vn -0.9869 0.0965 0.1295
vn -0.9971 0.0743 0.0132
vn -0.9976 0.0690 0.0058
vn 0.9980 0.0623 -0.0061
vn 0.9982 0.0594 0.0065
vn 0.9913 0.0594 0.1170
vn 0.9887 0.0459 0.1428
vn -0.0000 0.1989 -0.9800
vn -0.0000 0.0000 -1.0000
vn -0.0000 -0.5189 -0.8548
vn -0.0000 -0.2694 -0.9630
vn -0.0194 -0.9936 0.1113
vn -0.0436 0.9990 -0.0092
vn -0.0418 0.1164 0.9923
vn -0.9875 0.1576 -0.0068
vn -0.0811 0.0861 -0.9930
vn 0.0000 0.0000 1.0000
vn -0.0000 0.1989 0.9800
vn -0.0001 -0.2694 0.9630
vn -0.0000 -0.5189 0.8548
vn -0.0001 0.0000 1.0000
vn -0.0194 -0.9938 -0.1091
vn -0.0436 0.9990 0.0090
vn -0.0418 0.1164 -0.9923
vn -0.9875 0.1576 0.0067
vn -0.0811 0.0861 0.9930
vn -0.0000 0.0210 -0.9998
vn -0.0000 0.0210 0.9998
vn -0.0000 0.3899 -0.9209
vn -0.0000 0.3899 0.9209
usemtl TT_RTS_Buildings_mat.019
s off
f 89/1/1 103/2/1 102/3/1 90/4/1
f 88/5/2 90/4/2 102/3/2 101/6/2
f 97/7/1 88/8/1 101/9/1 104/10/1
f 96/11/1 95/12/1 118/13/1 117/14/1
f 93/15/3 115/16/3 118/13/3 95/12/3
f 115/17/1 93/18/1 97/7/1 104/10/1
s 1
f 1/19/4 8/20/5 21/21/5
f 21/21/5 16/22/4 1/19/4
f 2/23/6 9/24/6 4/25/7
f 4/25/7 3/26/8 2/23/6
f 3/26/8 4/25/7 11/27/9
f 11/27/9 5/28/9 3/26/8
f 34/29/10 33/30/10 7/31/11
f 7/31/11 6/32/11 34/29/10
f 6/33/12 7/34/12 21/21/5
f 21/21/5 8/20/5 6/33/12
f 23/35/13 13/36/14 8/37/14
f 8/37/14 1/38/13 23/35/13
f 9/39/15 10/40/15 14/41/16
f 14/41/16 4/42/17 9/39/15
f 4/42/17 14/41/16 12/43/18
f 12/43/18 11/44/18 4/42/17
f 35/45/19 34/46/19 6/47/20
f 6/47/20 15/48/20 35/45/19
f 15/49/21 6/50/21 8/37/14
f 8/37/14 13/36/14 15/49/21
f 24/51/22 22/52/23 13/53/23
f 13/53/23 23/54/22 24/51/22
f 10/55/24 17/56/24 18/57/25
f 18/57/25 14/58/26 10/55/24
f 14/58/26 18/57/25 19/59/27
f 19/59/27 12/60/27 14/58/26
f 36/61/28 35/62/28 15/63/29
f 15/63/29 20/64/29 36/61/28
f 20/65/30 15/66/30 13/53/23
f 13/53/23 22/52/23 20/65/30
f 16/67/31 21/68/32 22/69/32
f 22/69/32 24/70/31 16/67/31
f 17/71/33 2/72/33 3/73/34
f 3/73/34 18/74/35 17/71/33
f 18/74/35 3/73/34 5/75/36
f 5/75/36 19/76/36 18/74/35
f 33/77/37 36/78/37 20/79/38
f 20/79/38 7/80/38 33/77/37
f 7/81/39 20/82/39 22/69/32
f 22/69/32 21/68/32 7/81/39
f 5/83/1 11/84/1 26/85/1
f 26/85/1 25/86/1 5/83/1
f 11/87/1 12/88/1 27/89/1
f 27/89/1 26/90/1 11/87/1
f 12/91/1 19/92/1 28/93/1
f 28/93/1 27/94/1 12/91/1
f 19/95/1 5/96/1 25/97/1
f 25/97/1 28/98/1 19/95/1
f 25/86/40 26/85/40 29/99/40
f 29/99/40 31/100/40 25/86/40
f 26/90/41 27/89/41 30/101/41
f 30/101/41 29/102/41 26/90/41
f 27/94/42 28/93/42 32/103/42
f 32/103/42 30/104/42 27/94/42
f 28/98/43 25/97/43 31/105/43
f 31/105/43 32/106/43 28/98/43
f 29/107/1 30/108/1 32/109/1
f 32/109/1 31/110/1 29/107/1
f 9/111/44 2/112/44 33/30/10
f 33/30/10 34/29/10 9/111/44
f 10/113/45 9/114/45 34/46/19
f 34/46/19 35/45/19 10/113/45
f 17/115/46 10/116/46 35/62/28
f 35/62/28 36/61/28 17/115/46
f 2/117/47 17/118/47 36/78/37
f 36/78/37 33/77/37 2/117/47
f 37/119/48 40/120/49 39/121/50
f 39/121/50 38/122/51 37/119/48
f 40/120/49 42/123/52 41/124/53
f 41/124/53 39/121/50 40/120/49
f 43/125/54 46/126/55 45/127/56
f 45/127/56 44/128/57 43/125/54
f 44/128/57 45/127/56 48/129/58
f 48/129/58 47/130/59 44/128/57
f 37/119/60 38/122/61 46/126/62
f 46/126/62 43/125/63 37/119/60
f 38/122/64 39/121/65 45/127/66
f 45/127/66 46/126/67 38/122/64
f 39/121/65 41/124/68 48/129/69
f 48/129/69 45/127/66 39/121/65
f 41/124/70 42/123/71 47/130/72
f 47/130/72 48/129/73 41/124/70
f 42/123/74 40/120/75 44/128/76
f 44/128/76 47/130/77 42/123/74
f 40/120/75 37/119/78 43/125/79
f 43/125/79 44/128/76 40/120/75
f 49/131/48 52/132/49 51/133/50
f 51/133/50 50/134/51 49/131/48
f 52/132/49 54/135/52 53/136/53
f 53/136/53 51/133/50 52/132/49
f 55/137/54 58/138/55 57/139/56
f 57/139/56 56/140/57 55/137/54
f 56/140/57 57/139/56 60/141/58
f 60/141/58 59/142/59 56/140/57
f 49/131/60 50/134/61 58/138/62
f 58/138/62 55/137/63 49/131/60
f 50/134/64 51/133/65 57/139/66
f 57/139/66 58/138/67 50/134/64
f 51/133/65 53/136/68 60/141/69
f 60/141/69 57/139/66 51/133/65
f 53/136/70 54/135/71 59/142/72
f 59/142/72 60/141/73 53/136/70
f 54/135/74 52/132/75 56/140/76
f 56/140/76 59/142/77 54/135/74
f 52/132/75 49/131/78 55/137/79
f 55/137/79 56/140/76 52/132/75
f 61/143/80 62/144/81 63/145/82
f 63/145/82 64/146/83 61/143/80
f 64/146/83 63/145/82 65/147/84
f 65/147/84 66/148/85 64/146/83
f 67/149/86 68/150/87 69/151/88
f 69/151/88 70/152/89 67/149/86
f 68/150/87 71/153/90 72/154/91
f 72/154/91 69/151/88 68/150/87
f 61/143/92 67/149/93 70/152/94
f 70/152/94 62/144/95 61/143/92
f 62/144/96 70/152/97 69/151/98
f 69/151/98 63/145/99 62/144/96
f 63/145/99 69/151/98 72/154/100
f 72/154/100 65/147/101 63/145/99
f 65/147/102 72/154/103 71/153/104
f 71/153/104 66/148/105 65/147/102
f 66/148/106 71/153/107 68/150/108
f 68/150/108 64/146/109 66/148/106
f 64/146/109 68/150/108 67/149/110
f 67/149/110 61/143/111 64/146/109
f 73/155/112 74/156/113 75/157/114
f 75/157/114 76/158/115 73/155/112
f 76/158/115 75/157/114 77/159/84
f 77/159/84 78/160/85 76/158/115
f 79/161/116 80/162/117 81/163/118
f 81/163/118 82/164/119 79/161/116
f 80/162/117 83/165/90 84/166/91
f 84/166/91 81/163/118 80/162/117
f 73/155/92 79/161/93 82/164/94
f 82/164/94 74/156/95 73/155/92
f 74/156/120 82/164/121 81/163/122
f 81/163/122 75/157/123 74/156/120
f 75/157/123 81/163/122 84/166/100
f 84/166/100 77/159/101 75/157/123
f 77/159/102 84/166/103 83/165/104
f 83/165/104 78/160/105 77/159/102
f 78/160/106 83/165/107 80/162/124
f 80/162/124 76/158/125 78/160/106
f 76/158/125 80/162/124 79/161/126
f 79/161/126 73/155/127 76/158/125
f 132/167/128 133/168/128 85/169/129 98/170/129
f 87/171/130 99/172/130 100/173/131 86/174/131
f 100/173/131 103/2/129 89/1/129 86/174/131
f 105/175/132 106/176/132 108/177/132 107/178/132
f 110/179/133 112/180/133 111/181/133 109/182/133
f 106/176/134 109/182/134 111/181/134 108/177/134
f 108/177/135 111/181/135 112/180/135 107/178/135
f 107/178/136 112/180/136 110/179/136 105/175/136
f 91/183/137 131/184/138 134/185/138 113/186/137
f 116/187/139 114/188/140 94/189/140 92/190/139
f 96/11/141 117/14/141 116/187/139 92/190/139
f 120/191/142 122/192/142 121/193/142 119/194/142
f 123/195/143 124/196/143 126/197/143 125/198/143
f 119/194/144 121/193/144 126/197/144 124/196/144
f 121/193/145 122/192/145 125/198/145 126/197/145
f 122/192/146 120/191/146 123/195/146 125/198/146
f 99/172/147 87/199/147 127/200/147 129/201/147
f 94/202/148 114/188/148 130/203/148 128/204/148
f 129/205/149 127/206/149 133/168/128 132/167/128
f 128/207/150 130/208/150 134/185/138 131/184/138
