# Blender v2.81 (sub 16) OBJ File: ''
# www.blender.org
mtllib StoneWall_C.mtl
o Wall_C_Mesh.011
v 1.004484 -0.798671 -0.000000
v 0.959071 3.293598 -0.000001
v 0.836050 3.090996 -0.000001
v 0.438276 3.293598 -0.000001
v 0.959034 3.547599 -0.000001
v 0.485375 3.547599 -0.000001
v -1.004485 -0.798671 -0.000000
v -0.959121 3.293598 -0.000001
v -0.438507 3.293598 -0.000001
v -0.836045 3.090996 -0.000001
v -0.485401 3.547599 -0.000001
v -0.959057 3.547599 -0.000001
v -0.000000 3.293598 -0.000001
v 1.004484 -0.798671 -2.000001
v 0.836024 3.090996 -2.000001
v 0.958984 3.293598 -2.000001
v 0.438255 3.293598 -2.000001
v 0.485255 3.547599 -2.000001
v 0.959021 3.547599 -2.000001
v -0.000000 3.293598 -2.000001
v 1.032828 3.458344 -0.518329
v 1.081347 3.432210 -1.020838
v 0.437822 3.513427 -0.910485
v 0.454666 3.531669 -0.509251
v 1.035719 3.457726 -1.489945
v 0.457615 3.511043 -1.480181
v 1.008510 3.829240 -0.557531
v 0.506954 3.839995 -0.565122
v 0.475814 3.864398 -0.928477
v 1.039547 3.861334 -1.014401
v 0.499047 3.848132 -1.431342
v 1.013246 3.837826 -1.424202
v -1.004485 -0.798671 -2.000001
v -0.836031 3.090996 -2.000001
v -0.438027 3.293598 -2.000001
v -0.958934 3.293598 -2.000001
v -0.958999 3.547599 -2.000001
v -0.485231 3.547599 -2.000001
v -1.032829 3.458344 -0.518329
v -0.442059 3.531669 -0.509251
v -0.425215 3.513427 -0.910485
v -1.081348 3.432210 -1.020838
v -0.445008 3.511043 -1.480181
v -1.035719 3.457726 -1.489945
v -1.008510 3.829240 -0.557531
v -1.039548 3.861334 -1.014401
v -0.463206 3.864398 -0.928477
v -0.494347 3.839995 -0.565123
v -1.013246 3.837826 -1.424203
v -0.486440 3.848132 -1.431342
v 0.893320 0.368229 -0.000000
v -0.893335 0.368229 -0.000000
v 0.893307 0.368229 -2.000001
v -0.893294 0.368229 -2.000001
v -1.004485 0.105676 -0.000000
v 1.004484 0.105676 -2.000001
v 1.004484 0.105676 -0.000000
v -1.004485 0.105676 -2.000001
v 1.004484 -0.798671 2.000000
v 0.959071 3.293599 2.000000
v 0.836050 3.090997 2.000000
v 0.438276 3.293599 2.000000
v 0.959034 3.547599 2.000000
v 0.485375 3.547599 2.000000
v -1.004485 -0.798671 2.000000
v -0.959121 3.293599 2.000000
v -0.438507 3.293599 2.000000
v -0.836045 3.090997 2.000000
v -0.485401 3.547599 2.000000
v -0.959057 3.547599 2.000000
v -0.000000 3.293599 2.000000
v 1.004484 -0.798671 -0.000001
v 0.836025 3.090997 -0.000001
v 0.958984 3.293599 -0.000001
v 0.438255 3.293599 -0.000001
v 0.485255 3.547599 -0.000001
v 0.959021 3.547599 -0.000001
v -0.000000 3.293599 -0.000001
v 1.032828 3.458344 1.481671
v 1.081347 3.432211 0.979163
v 0.437822 3.513427 1.089515
v 0.454666 3.531669 1.490749
v 1.035719 3.457726 0.510055
v 0.457615 3.511044 0.519819
v 1.008510 3.829240 1.442469
v 0.506954 3.839995 1.434878
v 0.475814 3.864398 1.071523
v 1.039547 3.861334 0.985599
v 0.499047 3.848132 0.568658
v 1.013246 3.837826 0.575798
v -1.004485 -0.798671 -0.000001
v -0.836031 3.090997 -0.000001
v -0.438027 3.293599 -0.000001
v -0.958934 3.293599 -0.000001
v -0.958999 3.547599 -0.000001
v -0.485231 3.547599 -0.000001
v -1.032829 3.458344 1.481671
v -0.442059 3.531669 1.490749
v -0.425215 3.513427 1.089515
v -1.081348 3.432211 0.979163
v -0.445008 3.511044 0.519819
v -1.035719 3.457726 0.510055
v -1.008510 3.829240 1.442469
v -1.039548 3.861334 0.985599
v -0.463206 3.864398 1.071523
v -0.494347 3.839995 1.434878
v -1.013246 3.837826 0.575797
v -0.486440 3.848132 0.568658
v 0.893320 0.368229 2.000000
v -0.893335 0.368229 2.000000
v -1.004485 0.105676 -0.000001
v 0.893307 0.368229 -0.000001
v -0.893294 0.368229 -0.000001
v -1.004485 0.105677 2.000000
v -1.004485 -0.798671 -0.000001
v 1.004484 0.105676 -0.000001
v 1.004484 0.105677 2.000000
v -1.004485 0.105676 -0.000001
vt 0.188949 0.324537
vt 0.002291 0.324514
vt 0.002291 0.328146
vt 0.188949 0.328292
vt 0.188949 0.311490
vt 0.002291 0.311490
vt 0.619651 0.144558
vt 0.619651 0.118287
vt 0.529182 0.118339
vt 0.529182 0.144557
vt 0.188949 0.324537
vt 0.188949 0.328292
vt 0.002291 0.328146
vt 0.002291 0.324514
vt 0.188949 0.311490
vt 0.002291 0.311490
vt 0.529182 0.118785
vt 0.619651 0.118581
vt 0.188949 0.324537
vt 0.002291 0.324514
vt 0.002291 0.328146
vt 0.188949 0.328292
vt 0.188949 0.311490
vt 0.002291 0.311490
vt 0.619651 0.144558
vt 0.619651 0.118287
vt 0.529182 0.118339
vt 0.529182 0.144557
vt 0.188949 0.324537
vt 0.188949 0.328292
vt 0.002291 0.328146
vt 0.002291 0.324514
vt 0.188949 0.311490
vt 0.002291 0.311490
vt 0.529182 0.118785
vt 0.619651 0.118581
vt 0.002291 0.068879
vt 0.104313 0.068879
vt 0.104313 0.002049
vt 0.002291 0.002049
vt 0.188949 0.289490
vt 0.002291 0.289490
vt 0.002291 0.311490
vt 0.188949 0.311490
vt 0.163198 0.301301
vt 0.163901 0.306687
vt 0.137257 0.306026
vt 0.129860 0.300363
vt 0.100304 0.307377
vt 0.099571 0.303865
vt 0.161495 0.336023
vt 0.131765 0.340338
vt 0.137292 0.338990
vt 0.160748 0.335831
vt 0.106203 0.339112
vt 0.105448 0.338842
vt 0.104313 0.002049
vt 0.104313 0.068879
vt 0.002291 0.068879
vt 0.002291 0.002049
vt 0.002291 0.311490
vt 0.002291 0.289490
vt 0.188949 0.289490
vt 0.188949 0.311490
vt 0.163198 0.301301
vt 0.129860 0.300363
vt 0.137257 0.306026
vt 0.163901 0.306687
vt 0.099571 0.303865
vt 0.100304 0.307377
vt 0.161495 0.336023
vt 0.160748 0.335831
vt 0.137292 0.338990
vt 0.131765 0.340338
vt 0.105448 0.338842
vt 0.106203 0.339112
vt 0.188533 0.289490
vt 0.188533 0.088281
vt 0.002291 0.088281
vt 0.188533 0.289490
vt 0.002291 0.088281
vt 0.188533 0.088281
vt 0.002291 0.087272
vt 0.104313 0.087272
vt 0.104313 0.087272
vt 0.002291 0.087272
vt 0.002291 0.068879
vt 0.104313 0.068879
vt 0.104313 0.002049
vt 0.002291 0.002049
vt 0.188949 0.289490
vt 0.002291 0.289490
vt 0.002291 0.311490
vt 0.188949 0.311490
vt 0.163198 0.301301
vt 0.163901 0.306687
vt 0.137257 0.306026
vt 0.129860 0.300363
vt 0.100304 0.307377
vt 0.099571 0.303865
vt 0.161495 0.336023
vt 0.131765 0.340338
vt 0.137292 0.338990
vt 0.160748 0.335831
vt 0.106203 0.339112
vt 0.105448 0.338842
vt 0.104313 0.002049
vt 0.104313 0.068879
vt 0.002291 0.068879
vt 0.002291 0.002049
vt 0.002291 0.311490
vt 0.002291 0.289490
vt 0.188949 0.289490
vt 0.188949 0.311490
vt 0.163198 0.301301
vt 0.129860 0.300363
vt 0.137257 0.306026
vt 0.163901 0.306687
vt 0.099571 0.303865
vt 0.100304 0.307377
vt 0.161495 0.336023
vt 0.160748 0.335831
vt 0.137292 0.338990
vt 0.131765 0.340338
vt 0.105448 0.338842
vt 0.106203 0.339112
vt 0.188533 0.289490
vt 0.188533 0.088281
vt 0.002291 0.088281
vt 0.188533 0.289490
vt 0.002291 0.088281
vt 0.188533 0.088281
vt 0.002291 0.068879
vt 0.002291 0.002049
vt 0.002291 0.087272
vt 0.104313 0.087272
vt 0.104313 0.087272
vt 0.002291 0.087272
vn 0.0000 1.0000 0.0000
vn -0.9833 0.1821 0.0000
vn 0.9833 0.1821 0.0002
vn 0.9800 0.1989 -0.0000
vn 1.0000 0.0000 0.0000
vn 0.8548 -0.5189 -0.0000
vn 0.9630 -0.2694 -0.0000
vn -0.1211 -0.9916 0.0444
vn -0.1168 -0.9930 0.0160
vn -0.1157 -0.9932 0.0089
vn -0.1113 -0.9936 -0.0194
vn 0.0180 0.9975 0.0687
vn 0.0132 0.9999 0.0069
vn 0.0140 0.9997 0.0175
vn 0.0092 0.9990 -0.0436
vn 0.0121 0.1381 0.9903
vn -0.9878 0.1423 0.0631
vn -0.9916 0.1290 0.0084
vn -0.9915 0.1298 0.0115
vn -0.9923 0.1164 -0.0418
vn 0.0068 0.1576 -0.9875
vn 0.9930 0.0861 -0.0811
vn 0.9963 0.0861 0.0014
vn 0.9963 0.0861 0.0002
vn 0.9929 0.0855 0.0829
vn -1.0000 0.0000 -0.0000
vn -0.9800 0.1989 -0.0000
vn -0.9630 -0.2694 -0.0001
vn -0.8548 -0.5189 -0.0000
vn -1.0000 0.0000 -0.0001
vn 0.1187 -0.9919 0.0445
vn 0.1134 -0.9935 0.0090
vn 0.1145 -0.9933 0.0160
vn 0.1091 -0.9938 -0.0194
vn -0.0176 0.9975 0.0687
vn -0.0137 0.9998 0.0174
vn -0.0129 0.9999 0.0070
vn -0.0090 0.9990 -0.0436
vn -0.0118 0.1381 0.9903
vn 0.9878 0.1423 0.0631
vn 0.9915 0.1298 0.0115
vn 0.9916 0.1290 0.0084
vn 0.9923 0.1164 -0.0418
vn -0.0067 0.1576 -0.9875
vn -0.9930 0.0861 -0.0811
vn -0.9963 0.0861 0.0002
vn -0.9963 0.0861 0.0014
vn -0.9929 0.0855 0.0829
vn 0.9998 0.0210 -0.0000
vn -0.9998 0.0210 -0.0000
vn 0.9209 0.3899 -0.0000
vn -0.9209 0.3899 -0.0000
vn 0.0000 0.0000 1.0000
usemtl TT_RTS_Buildings_mat.012
s off
f 5/1/1 19/2/1 18/3/1 6/4/1
f 4/5/2 6/4/2 18/3/2 17/6/2
f 13/7/1 4/8/1 17/9/1 20/10/1
f 12/11/1 11/12/1 38/13/1 37/14/1
f 9/15/3 35/16/3 38/13/3 11/12/3
f 35/17/1 9/18/1 13/7/1 20/10/1
f 63/19/1 77/20/1 76/21/1 64/22/1
f 62/23/2 64/22/2 76/21/2 75/24/2
f 71/25/1 62/26/1 75/27/1 78/28/1
f 70/29/1 69/30/1 96/31/1 95/32/1
f 67/33/3 93/34/3 96/31/3 69/30/3
f 93/35/1 67/36/1 71/25/1 78/28/1
s 1
f 56/37/4 57/38/4 1/39/5 14/40/5
f 3/41/6 15/42/6 16/43/7 2/44/7
f 16/43/7 19/2/5 5/1/5 2/44/7
f 21/45/8 24/46/8 23/47/9 22/48/10
f 22/48/10 23/47/9 26/49/11 25/50/11
f 27/51/12 30/52/13 29/53/14 28/54/12
f 30/52/13 32/55/15 31/56/15 29/53/14
f 21/45/16 27/51/16 28/54/16 24/46/16
f 24/46/17 28/54/17 29/53/18 23/47/19
f 23/47/19 29/53/18 31/56/20 26/49/20
f 26/49/21 31/56/21 32/55/21 25/50/21
f 25/50/22 32/55/22 30/52/23 22/48/24
f 22/48/24 30/52/23 27/51/25 21/45/25
f 7/57/26 55/58/27 58/59/27 33/60/26
f 36/61/28 34/62/29 10/63/29 8/64/28
f 12/11/30 37/14/30 36/61/28 8/64/28
f 39/65/31 42/66/32 41/67/33 40/68/31
f 42/66/32 44/69/34 43/70/34 41/67/33
f 45/71/35 48/72/35 47/73/36 46/74/37
f 46/74/37 47/73/36 50/75/38 49/76/38
f 39/65/39 40/68/39 48/72/39 45/71/39
f 40/68/40 41/67/41 47/73/42 48/72/40
f 41/67/41 43/70/43 50/75/43 47/73/42
f 43/70/44 44/69/44 49/76/44 50/75/44
f 44/69/45 42/66/46 46/74/47 49/76/45
f 42/66/46 39/65/48 45/71/48 46/74/47
f 15/42/49 3/77/49 51/78/49 53/79/49
f 10/80/50 34/62/50 54/81/50 52/82/50
f 53/83/51 51/84/51 57/38/4 56/37/4
f 52/85/52 54/86/52 58/59/27 55/58/27
f 116/87/4 117/88/4 59/89/5 72/90/5
f 61/91/6 73/92/6 74/93/7 60/94/7
f 74/93/7 77/20/5 63/19/5 60/94/7
f 79/95/8 82/96/8 81/97/9 80/98/10
f 80/98/10 81/97/9 84/99/11 83/100/11
f 85/101/12 88/102/13 87/103/14 86/104/12
f 88/102/13 90/105/15 89/106/15 87/103/14
f 79/95/16 85/101/16 86/104/16 82/96/16
f 82/96/17 86/104/17 87/103/18 81/97/19
f 81/97/19 87/103/18 89/106/20 84/99/20
f 84/99/21 89/106/21 90/105/21 83/100/21
f 83/100/22 90/105/22 88/102/23 80/98/24
f 80/98/24 88/102/23 85/101/25 79/95/25
f 65/107/26 114/108/27 118/109/27 91/110/26
f 94/111/28 92/112/29 68/113/29 66/114/28
f 70/29/30 95/32/30 94/111/28 66/114/28
f 97/115/31 100/116/32 99/117/33 98/118/31
f 100/116/32 102/119/34 101/120/34 99/117/33
f 103/121/35 106/122/35 105/123/36 104/124/37
f 104/124/37 105/123/36 108/125/38 107/126/38
f 97/115/39 98/118/39 106/122/39 103/121/39
f 98/118/40 99/117/41 105/123/42 106/122/40
f 99/117/41 101/120/43 108/125/43 105/123/42
f 101/120/44 102/119/44 107/126/44 108/125/44
f 102/119/45 100/116/46 104/124/47 107/126/45
f 100/116/46 97/115/48 103/121/48 104/124/47
f 73/92/49 61/127/49 109/128/49 112/129/49
f 68/130/50 92/112/50 113/131/50 110/132/50
f 91/110/53 118/109/53 111/133/53 115/134/53
f 112/135/51 109/136/51 117/88/4 116/87/4
f 110/137/52 113/138/52 118/109/27 114/108/27
